<?xml version="1.0" standalone="no"?>
<!DOCTYPE svg PUBLIC "-//W3C//DTD SVG 1.1//EN" "http://www.w3.org/Graphics/SVG/1.1/DTD/svg11.dtd" >
<svg xmlns="http://www.w3.org/2000/svg" xmlns:xlink="http://www.w3.org/1999/xlink" version="1.1">
<metadata>
Created by FontForge 20170731 at Tue Mar  9 14:03:58 2021
 By Aleksey,,,
Copyright (c) 2021 by Cosimo Lorenzo Pancini. All rights reserved.
</metadata>
<defs>
<font id="CocoSharpTrial-Light" horiz-adv-x="0" >
  <font-face 
    font-family="CocoSharp Trial Light"
    font-weight="300"
    font-stretch="normal"
    units-per-em="2000"
    panose-1="0 0 4 0 0 0 0 0 0 0"
    ascent="1600"
    descent="-400"
    x-height="1027"
    cap-height="1405"
    bbox="-1471 -1018 3031 2077"
    underline-thickness="95"
    underline-position="-284"
    unicode-range="U+0010-FEFC"
  />
<missing-glyph horiz-adv-x="925" 
d="M172 1495h587v-1850h-587v1850zM616 1310v61h-305v-61h120v-68h-122v-61h307v61h-122v68h122zM494 1003v129h-185v-192h307v63h-122zM370 1070h61v-67h-61v67zM616 829v61h-307v-61h122v-68h-122v-61h185v129h122zM616 594v185h-61v-122h-246v-63h307zM616 344v209h-185
v-103h63v42h61v-87h-185v148h-61v-209h307zM616 24v209h-307v-209h307zM370 172h185v-87h-185v87zM616 -79v61h-307v-61h129l-129 -87v-61h307v61h-189l130 87h59z" />
    <glyph glyph-name="uniFEF5" unicode="&#xfedf;&#xfe82;" horiz-adv-x="1307" arabic-form="isolated" 
d="M1010 89v1316h101v-1405h-902v89h315l-315 985h103l315 -985h383zM69 1175q23 71 64 105t86 34q27 0 52 -10t60 -30q29 -17 49 -25.5t40 -8.5q28 0 45 17t36 61l68 -23q-23 -71 -64 -105t-85 -34q-28 0 -53.5 10.5t-60.5 30.5q-29 16 -48.5 24.5t-38.5 8.5q-27 0 -45 -17
t-36 -61z" />
    <glyph glyph-name="uniFEF6" unicode="&#xfee0;&#xfe82;" horiz-adv-x="1374" arabic-form="final" 
d="M1388 0h-1115v89h245l-322 980h103l323 -980h365v1316h100v-1316h301v-89zM13 1224q23 71 64 105t86 34q27 0 52 -10t60 -30q29 -17 49 -25.5t40 -8.5q28 0 45 17t36 61l68 -23q-23 -71 -64 -105t-85 -34q-28 0 -53.5 10.5t-60.5 30.5q-29 16 -48.5 24.5t-38.5 8.5
q-27 0 -45 -17t-36 -61z" />
    <glyph glyph-name="uniFEF7" unicode="&#xfedf;&#xfe84;" horiz-adv-x="1307" arabic-form="isolated" 
d="M1010 89v1316h101v-1405h-902v89h315l-315 985h103l315 -985h383zM71 1233l134 20q-29 17 -47 53t-18 76q0 75 48 115t143 40h51l-8 -68h-37q-71 0 -101.5 -22t-30.5 -80q0 -47 31.5 -80.5t81.5 -33.5h137v-69h-100q-86 0 -140 -3.5t-144 -16.5v69z" />
    <glyph glyph-name="uniFEF8" unicode="&#xfee0;&#xfe84;" horiz-adv-x="1533" arabic-form="final" 
d="M1548 0h-1115v89h245l-322 980h103l323 -980h365v1316h100v-1316h301v-89zM196 1239l134 20q-29 17 -47 53t-18 76q0 75 48 115t143 40h51l-8 -68h-37q-71 0 -101.5 -22t-30.5 -80q0 -47 31.5 -80.5t81.5 -33.5h137v-69h-100q-86 0 -140 -3.5t-144 -16.5v69z" />
    <glyph glyph-name="uniFEF9" unicode="&#xfedf;&#xfe88;" horiz-adv-x="1307" arabic-form="isolated" 
d="M1010 89v1316h101v-1405h-902v89h315l-315 985h103l315 -985h383zM390 -457l134 21q-29 17 -47.5 52.5t-18.5 75.5q0 75 48.5 115t143.5 40h50l-8 -67h-36q-70 0 -101.5 -22.5t-31.5 -80.5q0 -46 31.5 -79.5t81.5 -33.5h137v-69h-100q-86 0 -139.5 -3.5t-143.5 -16.5v68z
" />
    <glyph glyph-name="uniFEFA" unicode="&#xfee0;&#xfe88;" horiz-adv-x="1374" arabic-form="final" 
d="M1388 0h-1115v89h245l-322 980h103l323 -980h365v1316h100v-1316h301v-89zM399 -457l134 21q-29 17 -47.5 52.5t-18.5 75.5q0 75 48.5 115t143.5 40h50l-8 -67h-36q-70 0 -101.5 -22.5t-31.5 -80.5q0 -46 31.5 -79.5t81.5 -33.5h137v-69h-100q-86 0 -139.5 -3.5
t-143.5 -16.5v68z" />
    <glyph glyph-name="uniFEFB" unicode="&#xfedf;&#xfe8e;" horiz-adv-x="1307" arabic-form="isolated" 
d="M1010 89v1316h101v-1405h-902v89h315l-315 985h103l315 -985h383z" />
    <glyph glyph-name="uniFEFC" unicode="&#xfee0;&#xfe8e;" horiz-adv-x="1374" arabic-form="final" 
d="M1388 0h-1115v89h245l-322 980h103l323 -980h365v1316h100v-1316h301v-89z" />
    <glyph glyph-name="uni06440671" unicode="&#xfedf;&#xfb51;" horiz-adv-x="1307" 
d="M1010 89v1316h101v-1405h-902v89h315l-315 985h103l315 -985h383zM29 1198l89 11q0 51 24 106t75 93t127 38q88 0 125.5 -44t37.5 -134v-111h-268q-82 0 -210 -17v58zM210 1215h240v50q0 66 -22.5 95.5t-83.5 29.5q-50 0 -90 -25t-62.5 -66.5t-24.5 -87.5z" />
    <glyph glyph-name="uni06440671.fina" unicode="&#xfee0;&#xfb51;" horiz-adv-x="1374" 
d="M1388 0h-1115v89h245l-322 980h103l323 -980h365v1316h100v-1316h301v-89zM86 1198l89 11q0 51 24 106t75 93t127 38q88 0 125.5 -44t37.5 -134v-111h-268q-82 0 -210 -17v58zM267 1215h240v50q0 66 -22.5 95.5t-83.5 29.5q-50 0 -90 -25t-62.5 -66.5t-24.5 -87.5z" />
    <glyph glyph-name="uni066E.init" unicode="&#x66e;" horiz-adv-x="601" 
d="M405 0h-419v89h318v798h101v-887z" />
    <glyph glyph-name="uni066E.medi" unicode="&#x66e;" horiz-adv-x="759" 
d="M773 0h-787v89h343v798h101v-798h343v-89z" />
    <glyph glyph-name="uni066E.fina" unicode="&#x66e;" horiz-adv-x="2037" 
d="M1740 89h311v-89h-1406q-171 0 -294 67t-186 179.5t-63 247.5q0 85 36.5 177t107.5 169l68 -59q-54 -60 -84 -132t-30 -152q0 -110 51.5 -203t155.5 -149t254 -56h979v798h100v-798z" />
    <glyph glyph-name="uni066F.fina" unicode="&#x66f;" horiz-adv-x="1895" 
d="M1909 89v-89h-232v-100q0 -197 -127 -283.5t-366 -86.5h-532q-178 0 -305.5 68t-192.5 184.5t-65 259.5q0 105 38 210.5t115 191.5l66 -67q-58 -64 -89.5 -149.5t-31.5 -184.5q0 -119 51.5 -215t156.5 -152.5t259 -56.5h530q193 0 293 64t100 218v99h-254
q-119 0 -218 60.5t-157 165t-58 231.5q0 118 57.5 216.5t156 156t217.5 57.5h356v-798h232zM1577 89v613h1v98h-256q-92 0 -168.5 -46.5t-120.5 -125.5t-44 -173q0 -101 44 -185t119.5 -132.5t167.5 -48.5h257z" />
    <glyph glyph-name="uni06A1.init" unicode="&#x6a1;" horiz-adv-x="1083" 
d="M887 887v-887h-900v89h286q-81 63 -127 159t-46 209q0 118 57.5 216.5t156 156t217.5 57.5h356zM788 800h-256q-92 0 -168.5 -46.5t-120.5 -125.5t-44 -173q0 -101 44 -185t119.5 -132.5t167.5 -48.5h258v711z" />
    <glyph glyph-name="uni06A1.medi" unicode="&#x6a1;" horiz-adv-x="1153" 
d="M887 89h280v-89h-1180v89h286q-81 63 -127 159t-46 209q0 118 57.5 216.5t156 156t217.5 57.5h356v-798zM788 800h-256q-92 0 -168.5 -46.5t-120.5 -125.5t-44 -173q0 -101 44 -185t119.5 -132.5t167.5 -48.5h258v711z" />
    <glyph glyph-name="uni06A1.fina" unicode="&#x6a1;" horiz-adv-x="1837" 
d="M1626 89h225v-89h-1220q-171 0 -293.5 67t-185.5 179.5t-63 247.5q0 86 36 177.5t108 168.5l67 -59q-54 -60 -84 -132t-30 -152q0 -110 51.5 -203t155.5 -149t254 -56h365q-81 63 -127 159t-46 209q0 118 57.5 216.5t156 156t217.5 57.5h356v-798zM1527 800h-256
q-92 0 -168.5 -46.5t-120.5 -125.5t-44 -173q0 -101 44 -185t119.5 -132.5t167.5 -48.5h258v711z" />
    <glyph glyph-name="uni06C2.fina" unicode="&#x6c2;" horiz-adv-x="685" 
d="M567.5 40q-47.5 40 -78.5 139q-23 73 -50 107t-74 34q-45 0 -79.5 -39t-78.5 -139l-38 -85l-79 29l42 99q52 120 106.5 171t127.5 51q65 0 106.5 -41t72.5 -127q27 -69 60 -109.5t76 -40.5q12 0 15.5 -2t3.5 -7v-72q0 -5 -3.5 -6.5t-15.5 -1.5q-66 0 -113.5 40zM160 624
l134 20q-29 17 -47 53t-18 76q0 75 48 115t143 40h51l-8 -68h-37q-71 0 -101.5 -22t-30.5 -80q0 -47 31.5 -80.5t81.5 -33.5h137v-69h-100q-86 0 -140 -3.5t-144 -16.5v69z" />
    <glyph glyph-name="uni06C3.fina" unicode="&#x6c3;" horiz-adv-x="685" 
d="M567.5 40q-47.5 40 -78.5 139q-23 73 -50 107t-74 34q-45 0 -79.5 -39t-78.5 -139l-38 -85l-79 29l42 99q52 120 106.5 171t127.5 51q65 0 106.5 -41t72.5 -127q27 -69 60 -109.5t76 -40.5q12 0 15.5 -2t3.5 -7v-72q0 -5 -3.5 -6.5t-15.5 -1.5q-66 0 -113.5 40z
M423.5 558.5q-21.5 22.5 -21.5 53.5q0 32 21 54.5t55 22.5q33 0 55.5 -22.5t22.5 -54.5q0 -31 -22.5 -53.5t-55.5 -22.5t-54.5 22.5zM200.5 557.5q-21.5 22.5 -21.5 53.5q0 32 21 54.5t55 22.5q33 0 55.5 -22.5t22.5 -54.5q0 -31 -22.5 -53.5t-55.5 -22.5t-54.5 22.5z" />
    <glyph glyph-name="uniFB51" unicode="&#x671;" horiz-adv-x="597" arabic-form="final" 
d="M296 1495v-1406h315v-89h-415v1495h100zM-16 1651l89 11q0 51 24 106t75 93t127 38q88 0 125.5 -44t37.5 -134v-111h-268q-82 0 -210 -17v58zM165 1668h240v50q0 66 -22.5 95.5t-83.5 29.5q-50 0 -90 -25t-62.5 -66.5t-24.5 -87.5z" />
    <glyph glyph-name="uniFB67" unicode="&#x679;" horiz-adv-x="2037" arabic-form="final" 
d="M1740 89h311v-89h-1406q-171 0 -294 67t-186 179.5t-63 247.5q0 85 36.5 177t107.5 169l68 -59q-54 -60 -84 -132t-30 -152q0 -110 51.5 -203t155.5 -149t254 -56h979v798h100v-798zM1167.5 1240.5q27.5 -29.5 27.5 -77.5q0 -151 -205 -151h-203q-4 0 -4 4v55q0 5 4 5h31
l24 26v271h48v-212l-4 -13q60 61 108.5 91.5t90.5 30.5q55 0 82.5 -29.5zM979 1076q159 0 159 86q0 27 -17 42t-48 15q-38 0 -86 -34.5t-113 -108.5h105z" />
    <glyph glyph-name="uniFB68" unicode="&#x679;" horiz-adv-x="601" arabic-form="initial" 
d="M405 0h-419v89h318v798h101v-887zM541.5 1241.5q27.5 -29.5 27.5 -77.5q0 -151 -205 -151h-203q-4 0 -4 4v55q0 5 4 5h31l24 26v271h48v-212l-4 -13q60 61 108.5 91.5t90.5 30.5q55 0 82.5 -29.5zM353 1077q159 0 159 86q0 27 -17 42t-48 15q-38 0 -86 -34.5t-113 -108.5
h105z" />
    <glyph glyph-name="uniFB69" unicode="&#x679;" horiz-adv-x="759" arabic-form="medial" 
d="M773 0h-787v89h343v798h101v-798h343v-89zM571.5 1241.5q27.5 -29.5 27.5 -77.5q0 -151 -205 -151h-203q-4 0 -4 4v55q0 5 4 5h31l24 26v271h48v-212l-4 -13q60 61 108.5 91.5t90.5 30.5q55 0 82.5 -29.5zM383 1077q159 0 159 86q0 27 -17 42t-48 15q-38 0 -86 -34.5
t-113 -108.5h105z" />
    <glyph glyph-name="uniFB6B" unicode="&#x6a4;" horiz-adv-x="1837" arabic-form="final" 
d="M1626 89h225v-89h-1220q-171 0 -293.5 67t-185.5 179.5t-63 247.5q0 86 36 177.5t108 168.5l67 -59q-54 -60 -84 -132t-30 -152q0 -110 51.5 -203t155.5 -149t254 -56h365q-81 63 -127 159t-46 209q0 118 57.5 216.5t156 156t217.5 57.5h356v-798zM1527 800h-256
q-92 0 -168.5 -46.5t-120.5 -125.5t-44 -173q0 -101 44 -185t119.5 -132.5t167.5 -48.5h258v711zM1326.5 1260.5q-21.5 22.5 -21.5 53.5q0 32 21 54.5t55 22.5q33 0 55.5 -22.5t22.5 -54.5q0 -31 -22.5 -53.5t-55.5 -22.5t-54.5 22.5zM1218.5 1077.5q-21.5 22.5 -21.5 53.5
q0 32 21 54.5t55 22.5q33 0 55.5 -22.5t22.5 -54.5q0 -31 -22.5 -53.5t-55.5 -22.5t-54.5 22.5zM1439.5 1077.5q-21.5 22.5 -21.5 53.5q0 32 21 54.5t55 22.5q33 0 55.5 -22.5t22.5 -54.5q0 -31 -22.5 -53.5t-55.5 -22.5t-54.5 22.5z" />
    <glyph glyph-name="uniFB6C" unicode="&#x6a4;" horiz-adv-x="1083" arabic-form="initial" 
d="M887 887v-887h-900v89h286q-81 63 -127 159t-46 209q0 118 57.5 216.5t156 156t217.5 57.5h356zM788 800h-256q-92 0 -168.5 -46.5t-120.5 -125.5t-44 -173q0 -101 44 -185t119.5 -132.5t167.5 -48.5h258v711zM578.5 1199.5q-21.5 22.5 -21.5 53.5q0 32 21 54.5t55 22.5
q33 0 55.5 -22.5t22.5 -54.5q0 -31 -22.5 -53.5t-55.5 -22.5t-54.5 22.5zM470.5 1016.5q-21.5 22.5 -21.5 53.5q0 32 21 54.5t55 22.5q33 0 55.5 -22.5t22.5 -54.5q0 -31 -22.5 -53.5t-55.5 -22.5t-54.5 22.5zM691.5 1016.5q-21.5 22.5 -21.5 53.5q0 32 21 54.5t55 22.5
q33 0 55.5 -22.5t22.5 -54.5q0 -31 -22.5 -53.5t-55.5 -22.5t-54.5 22.5z" />
    <glyph glyph-name="uniFB6D" unicode="&#x6a4;" horiz-adv-x="1153" arabic-form="medial" 
d="M887 89h280v-89h-1180v89h286q-81 63 -127 159t-46 209q0 118 57.5 216.5t156 156t217.5 57.5h356v-798zM788 800h-256q-92 0 -168.5 -46.5t-120.5 -125.5t-44 -173q0 -101 44 -185t119.5 -132.5t167.5 -48.5h258v711zM606.5 1196.5q-21.5 22.5 -21.5 53.5q0 32 21 54.5
t55 22.5q33 0 55.5 -22.5t22.5 -54.5q0 -31 -22.5 -53.5t-55.5 -22.5t-54.5 22.5zM498.5 1013.5q-21.5 22.5 -21.5 53.5q0 32 21 54.5t55 22.5q33 0 55.5 -22.5t22.5 -54.5q0 -31 -22.5 -53.5t-55.5 -22.5t-54.5 22.5zM719.5 1013.5q-21.5 22.5 -21.5 53.5q0 32 21 54.5
t55 22.5q33 0 55.5 -22.5t22.5 -54.5q0 -31 -22.5 -53.5t-55.5 -22.5t-54.5 22.5z" />
    <glyph glyph-name="uniFB7B" unicode="&#x686;" horiz-adv-x="1324" arabic-form="final" 
d="M182 -156q-34 52 -52 113.5t-18 127.5q0 129 62.5 232.5t170 162.5t237.5 59q87 0 165 -28t141 -82q-51 154 -99 240.5t-124.5 132t-201.5 45.5q-85 0 -163.5 -29t-135.5 -79l-54 71q81 68 175 101t182 33q154 0 250 -59t149.5 -156t103.5 -252q46 -142 81 -217
t97.5 -123t165.5 -48h24v-89h-25q-120 0 -195.5 53t-136.5 154q-74 126 -170 186t-225 60q-104 0 -190 -46.5t-136 -130.5t-50 -191q0 -103 52 -191zM456.5 105q-19.5 20 -19.5 48q0 29 19.5 49.5t49.5 20.5t50 -20.5t20 -49.5q0 -28 -20 -48t-50 -20t-49.5 20zM654.5 105
q-19.5 20 -19.5 48q0 29 19 49.5t50 20.5q29 0 49 -20.5t20 -49.5q0 -28 -20 -48t-50 -20q-29 0 -48.5 20zM555.5 -62q-19.5 20 -19.5 49q0 28 19.5 48.5t49.5 20.5t50 -20.5t20 -48.5q0 -29 -20 -49t-50 -20t-49.5 20z" />
    <glyph glyph-name="uniFB7C" unicode="&#x686;" horiz-adv-x="1455" arabic-form="initial" 
d="M1365 89v-89h-1379v89h1092q-59 52 -97 132.5t-85 220.5q-44 142 -91 224.5t-127 127.5t-211 45q-87 0 -165 -29.5t-139 -81.5l-53 65q79 68 174.5 101.5t186.5 33.5q160 0 257.5 -56.5t151.5 -152t103 -252.5q42 -140 81.5 -217t108.5 -119t185 -42h7zM444.5 -379.5
q-21.5 22.5 -21.5 53.5q0 32 21 54.5t55 22.5q33 0 55.5 -22.5t22.5 -54.5q0 -31 -22.5 -53.5t-55.5 -22.5t-54.5 22.5zM335.5 -207.5q-21.5 22.5 -21.5 53.5q0 32 21 54.5t55 22.5q33 0 55.5 -22.5t22.5 -54.5q0 -31 -22.5 -53.5t-55.5 -22.5t-54.5 22.5zM556.5 -207.5
q-21.5 22.5 -21.5 53.5q0 32 21 54.5t55 22.5q33 0 55.5 -22.5t22.5 -54.5q0 -31 -22.5 -53.5t-55.5 -22.5t-54.5 22.5z" />
    <glyph glyph-name="uniFB7D" unicode="&#x686;" horiz-adv-x="1432" arabic-form="medial" 
d="M1445 89v-89h-1459v89h1181q-60 52 -100 134.5t-84 216.5q-44 141 -91.5 224t-127.5 128t-210 45q-87 0 -165 -29.5t-140 -81.5l-51 65q78 68 173 101.5t186 33.5q160 0 257.5 -56t151.5 -152t103 -253q43 -140 82 -216.5t107.5 -118t185.5 -41.5h1zM492.5 -379.5
q-21.5 22.5 -21.5 53.5q0 32 21 54.5t55 22.5q33 0 55.5 -22.5t22.5 -54.5q0 -31 -22.5 -53.5t-55.5 -22.5t-54.5 22.5zM383.5 -207.5q-21.5 22.5 -21.5 53.5q0 32 21 54.5t55 22.5q33 0 55.5 -22.5t22.5 -54.5q0 -31 -22.5 -53.5t-55.5 -22.5t-54.5 22.5zM604.5 -207.5
q-21.5 22.5 -21.5 53.5q0 32 21 54.5t55 22.5q33 0 55.5 -22.5t22.5 -54.5q0 -31 -22.5 -53.5t-55.5 -22.5t-54.5 22.5z" />
    <glyph glyph-name="uniFB89" unicode="&#x688;" horiz-adv-x="1407" arabic-form="final" 
d="M1421 89v-89h-1319v89h933q-18 188 -104 351t-221.5 277.5t-296.5 163.5l43 85q177 -54 325.5 -181t242 -307.5t111.5 -388.5h286zM664.5 1300.5q27.5 -29.5 27.5 -77.5q0 -151 -205 -151h-203q-4 0 -4 4v55q0 5 4 5h31l24 26v271h48v-212l-4 -13q60 61 108.5 91.5
t90.5 30.5q55 0 82.5 -29.5zM476 1136q159 0 159 86q0 27 -17 42t-48 15q-38 0 -86 -34.5t-113 -108.5h105z" />
    <glyph glyph-name="uniFB8B" unicode="&#x698;" horiz-adv-x="538" arabic-form="final" 
d="M552 89v-89h-258v-30q0 -161 -67.5 -251t-203.5 -90q-52 0 -119 27l16 87q47 -22 93 -22q95 0 138.5 62.5t43.5 184.5v915h99v-794h258zM195.5 1190.5q-21.5 22.5 -21.5 53.5q0 32 21 54.5t55 22.5q33 0 55.5 -22.5t22.5 -54.5q0 -31 -22.5 -53.5t-55.5 -22.5t-54.5 22.5
zM87.5 1007.5q-21.5 22.5 -21.5 53.5q0 32 21 54.5t55 22.5q33 0 55.5 -22.5t22.5 -54.5q0 -31 -22.5 -53.5t-55.5 -22.5t-54.5 22.5zM308.5 1007.5q-21.5 22.5 -21.5 53.5q0 32 21 54.5t55 22.5q33 0 55.5 -22.5t22.5 -54.5q0 -31 -22.5 -53.5t-55.5 -22.5t-54.5 22.5z" />
    <glyph glyph-name="uniFB8D" unicode="&#x691;" horiz-adv-x="538" arabic-form="final" 
d="M552 89v-89h-258v-30q0 -161 -67.5 -251t-203.5 -90q-52 0 -119 27l16 87q47 -22 93 -22q95 0 138.5 62.5t43.5 184.5v915h99v-794h258zM436.5 1238.5q27.5 -29.5 27.5 -77.5q0 -151 -205 -151h-203q-4 0 -4 4v55q0 5 4 5h31l24 26v271h48v-212l-4 -13q60 61 108.5 91.5
t90.5 30.5q55 0 82.5 -29.5zM248 1074q159 0 159 86q0 27 -17 42t-48 15q-38 0 -86 -34.5t-113 -108.5h105z" />
    <glyph glyph-name="uniFB8F" unicode="&#x6a9;" horiz-adv-x="2038" arabic-form="final" 
d="M1746 89h306v-89h-1421q-171 0 -293.5 67t-185.5 179.5t-63 247.5q0 86 36 177.5t108 168.5l67 -59q-54 -60 -84 -132t-30 -152q0 -110 51.5 -203t155.5 -149t254 -56h999v209q0 154 -80.5 238t-248.5 84h-512v88q12 185 115 331.5t278.5 230t397.5 84.5l11 -93
q-195 -3 -350 -72.5t-249.5 -194t-113.5 -286.5h422q141 0 237.5 -50t144.5 -141.5t48 -217.5v-210z" />
    <glyph glyph-name="uniFB90" unicode="&#x6a9;" horiz-adv-x="1213" arabic-form="initial" 
d="M586 708q141 0 238 -50t145 -141.5t48 -217.5v-299h-1031v89h930v209q0 154 -80.5 238t-248.5 84h-511v88q11 185 114 331.5t279 230t397 84.5l11 -93q-195 -3 -349.5 -72.5t-249 -194t-113.5 -286.5h421z" />
    <glyph glyph-name="uniFB91" unicode="&#x6a9;" horiz-adv-x="1309" arabic-form="medial" 
d="M1017 89h306v-89h-1337v89h930v209q0 154 -80.5 238t-248.5 84h-511v88q11 185 114 331.5t279 230t397 84.5l11 -93q-195 -3 -349.5 -72.5t-249 -194t-113.5 -286.5h421q141 0 238 -50t145 -141.5t48 -217.5v-210z" />
    <glyph glyph-name="uniFB93" unicode="&#x6af;" horiz-adv-x="2038" arabic-form="final" 
d="M1746 89h306v-89h-1421q-171 0 -293.5 67t-185.5 179.5t-63 247.5q0 86 36 177.5t108 168.5l67 -59q-54 -60 -84 -132t-30 -152q0 -110 51.5 -203t155.5 -149t254 -56h999v209q0 154 -80.5 238t-248.5 84h-512v88q12 185 115 331.5t278.5 230t397.5 84.5l11 -93
q-195 -3 -350 -72.5t-249.5 -194t-113.5 -286.5h422q141 0 237.5 -50t144.5 -141.5t48 -217.5v-210zM1177 1361q-127 -50 -227.5 -136.5t-161 -200.5t-69.5 -242l-51 7q10 133 74 255t170.5 216.5t240.5 149.5z" />
    <glyph glyph-name="uniFB94" unicode="&#x6af;" horiz-adv-x="1213" arabic-form="initial" 
d="M586 708q141 0 238 -50t145 -141.5t48 -217.5v-299h-1031v89h930v209q0 154 -80.5 238t-248.5 84h-511v88q11 185 114 331.5t279 230t397 84.5l11 -93q-195 -3 -349.5 -72.5t-249 -194t-113.5 -286.5h421zM448 1361q-127 -50 -227.5 -136.5t-161 -200.5t-69.5 -242l-51 7
q10 133 74 255t170.5 216.5t240.5 149.5z" />
    <glyph glyph-name="uniFB95" unicode="&#x6af;" horiz-adv-x="1309" arabic-form="medial" 
d="M1017 89h306v-89h-1337v89h930v209q0 154 -80.5 238t-248.5 84h-511v88q11 185 114 331.5t279 230t397 84.5l11 -93q-195 -3 -349.5 -72.5t-249 -194t-113.5 -286.5h421q141 0 238 -50t145 -141.5t48 -217.5v-210zM448 1361q-127 -50 -227.5 -136.5t-161 -200.5
t-69.5 -242l-51 7q10 133 74 255t170.5 216.5t240.5 149.5z" />
    <glyph glyph-name="uniFB9F" unicode="&#x6ba;" horiz-adv-x="1476" arabic-form="final" 
d="M1490 89v-89h-299q-11 -154 -90.5 -266.5t-201 -170.5t-255.5 -58q-158 0 -285 75t-198.5 203.5t-71.5 281.5q0 99 38 202t115 189l67 -67q-58 -64 -89.5 -147t-31.5 -176q0 -127 57.5 -233.5t161.5 -169.5t237 -63q114 0 217.5 53t168 154.5t64.5 240.5v754h99v-713h297
z" />
    <glyph glyph-name="uniFBA7" unicode="&#x6c1;" horiz-adv-x="686" arabic-form="final" 
d="M567.5 40q-47.5 40 -78.5 139q-23 73 -50 107t-74 34q-45 0 -79.5 -39t-78.5 -139l-38 -85l-79 29l42 99q52 120 106.5 171t127.5 51q65 0 106.5 -41t72.5 -127q27 -69 60 -109.5t76 -40.5q12 0 15.5 -2t3.5 -7v-72q0 -5 -3.5 -6.5t-15.5 -1.5q-66 0 -113.5 40z" />
    <glyph glyph-name="uniFBA8" unicode="&#x6c1;" horiz-adv-x="658" arabic-form="initial" 
d="M462 0h-476v89h370v830h106v-919zM124 -409l105 274l76 -5l-82 -269h-99z" />
    <glyph glyph-name="uniFBA9" unicode="&#x6c1;" horiz-adv-x="944" arabic-form="medial" 
d="M389 205q-55 -89 -154 -147t-225 -58h-24v89h25q111 0 194.5 45.5t128 124.5t44.5 177v14h97l7 -537q52 84 149.5 130t230.5 46h96v-89h-97q-114 0 -197 -38.5t-127 -111t-44 -170.5v-15l-96 -1zM718 -464l99 264l70 -3l-77 -261h-92z" />
    <glyph glyph-name="uniFBAB" unicode="&#x6be;" horiz-adv-x="1981" arabic-form="final" 
d="M1690 89h305v-89h-1906v89h500q-90 59 -141.5 155t-51.5 209q0 127 62 228.5t170 159t241 57.5q139 0 246.5 -57t167.5 -159.5t60 -235.5v-357h248v469q0 171 -78.5 304t-220.5 207t-324 74v94q212 0 376 -86t255 -239t91 -347v-476zM1245 89v352q0 109 -46.5 191.5
t-131.5 127.5t-198 45q-106 0 -192 -44t-135.5 -124t-49.5 -186q0 -91 36.5 -167t102.5 -127t152 -68h462z" />
    <glyph glyph-name="uniFBAC" unicode="&#x6be;" horiz-adv-x="1784" arabic-form="initial" 
d="M866 1237q211 0 375.5 -86t255.5 -239t91 -347v-565h-1602v89h500q-90 59 -141.5 155t-51.5 209q0 127 62 228.5t170.5 159t241.5 57.5q138 0 246 -57t168 -159.5t60 -235.5v-357h247v469q0 171 -78.5 304t-220 207t-323.5 74v94zM1142 89v352q0 109 -46.5 191.5
t-131.5 127.5t-198 45q-106 0 -192 -44t-135.5 -124t-49.5 -186q0 -91 36.5 -167t102.5 -127t152 -68h462z" />
    <glyph glyph-name="uniFBAD" unicode="&#x6be;" horiz-adv-x="1879" arabic-form="medial" 
d="M1588 89h305v-89h-1907v89h500q-90 59 -141.5 155t-51.5 209q0 127 62 228.5t170.5 159t241.5 57.5q138 0 246 -57t168 -159.5t60 -235.5v-357h247v469q0 171 -78.5 304t-220 207t-323.5 74v94q211 0 375.5 -86t255.5 -239t91 -347v-476zM1142 89v352q0 109 -46.5 191.5
t-131.5 127.5t-198 45q-106 0 -192 -44t-135.5 -124t-49.5 -186q0 -91 36.5 -167t102.5 -127t152 -68h462z" />
    <glyph glyph-name="uniFBAF" unicode="&#x6d2;" horiz-adv-x="1091" arabic-form="final" 
d="M1105 89v-89h-778q-40 0 -73.5 -18t-53 -48.5t-19.5 -66.5t20.5 -65.5t55.5 -46.5t76 -17h442l-12 -96h-429q-70 0 -126 31t-87.5 83t-31.5 113q0 63 32 113t86.5 78.5t120.5 28.5h777z" />
    <glyph glyph-name="uniFBB1" unicode="&#x6d3;" horiz-adv-x="1091" arabic-form="final" 
d="M1105 89v-89h-778q-40 0 -73.5 -18t-53 -48.5t-19.5 -66.5t20.5 -65.5t55.5 -46.5t76 -17h442l-12 -96h-429q-70 0 -126 31t-87.5 83t-31.5 113q0 63 32 113t86.5 78.5t120.5 28.5h777zM169 308l134 20q-29 17 -47 53t-18 76q0 75 48 115t143 40h51l-8 -68h-37
q-71 0 -101.5 -22t-30.5 -80q0 -47 31.5 -80.5t81.5 -33.5h137v-69h-100q-86 0 -140 -3.5t-144 -16.5v69z" />
    <glyph glyph-name="uniFBFD" unicode="&#x6cc;" horiz-adv-x="2021" arabic-form="final" 
d="M659 -377q-160 0 -290.5 70.5t-205 192.5t-74.5 268q0 99 37.5 201.5t114.5 188.5l66 -67q-58 -65 -90 -147.5t-32 -173.5q0 -116 61.5 -218t170 -164t242.5 -62h465q138 0 206.5 50.5t68.5 133.5q0 58 -33.5 102.5t-83 76.5t-136.5 78q-102 53 -164 95t-105.5 106
t-43.5 152q0 99 39.5 172.5t118 114t192.5 40.5q126 0 199 -49t107 -120.5t69 -192.5q37 -127 73.5 -202t116.5 -127t219 -52h68v-90h-66q-176 0 -275 59.5t-140.5 144t-78.5 220.5q-30 109 -57 171t-84.5 103.5t-156.5 41.5q-120 0 -181.5 -63.5t-61.5 -167.5
q0 -64 35.5 -112t87 -82t141.5 -81q99 -52 158.5 -92t101 -100.5t41.5 -143.5q0 -125 -97.5 -200t-292.5 -75h-450z" />
    <glyph glyph-name="uniFBFE" unicode="&#x6cc;" horiz-adv-x="601" arabic-form="initial" 
d="M405 0h-419v89h318v798h101v-887zM379.5 -323.5q-21.5 22.5 -21.5 53.5q0 32 21 54.5t55 22.5q33 0 55.5 -22.5t22.5 -54.5q0 -31 -22.5 -53.5t-55.5 -22.5t-54.5 22.5zM158.5 -323.5q-21.5 22.5 -21.5 53.5q0 32 21 54.5t55 22.5q33 0 55.5 -22.5t22.5 -54.5
q0 -31 -22.5 -53.5t-55.5 -22.5t-54.5 22.5z" />
    <glyph glyph-name="uniFBFF" unicode="&#x6cc;" horiz-adv-x="759" arabic-form="medial" 
d="M773 0h-787v89h343v798h101v-798h343v-89zM438.5 -323.5q-21.5 22.5 -21.5 53.5q0 32 21 54.5t55 22.5q33 0 55.5 -22.5t22.5 -54.5q0 -31 -22.5 -53.5t-55.5 -22.5t-54.5 22.5zM217.5 -323.5q-21.5 22.5 -21.5 53.5q0 32 21 54.5t55 22.5q33 0 55.5 -22.5t22.5 -54.5
q0 -31 -22.5 -53.5t-55.5 -22.5t-54.5 22.5z" />
    <glyph glyph-name="uniFE82" unicode="&#x622;" horiz-adv-x="597" arabic-form="final" 
d="M296 1495v-1406h315v-89h-415v1495h100zM3 1583q23 71 64 105t86 34q27 0 52 -10t60 -30q29 -17 49 -25.5t40 -8.5q28 0 45 17t36 61l68 -23q-23 -71 -64 -105t-85 -34q-28 0 -53.5 10.5t-60.5 30.5q-29 16 -48.5 24.5t-38.5 8.5q-27 0 -45 -17t-36 -61z" />
    <glyph glyph-name="uniFE84" unicode="&#x623;" horiz-adv-x="641" arabic-form="final" 
d="M340 1495v-1406h315v-89h-415v1495h100zM80 1673l134 20q-29 17 -47 53t-18 76q0 75 48 115t143 40h51l-8 -68h-37q-71 0 -101.5 -22t-30.5 -80q0 -47 31.5 -80.5t81.5 -33.5h137v-69h-100q-86 0 -140 -3.5t-144 -16.5v69z" />
    <glyph glyph-name="uniFE86" unicode="&#x624;" horiz-adv-x="1122" arabic-form="final" 
d="M850 89h286v-89h-286v-96q0 -206 -100.5 -308.5t-285.5 -102.5q-147 0 -294 71l40 87q131 -63 255 -63q141 0 213.5 78.5t72.5 242.5v91h-255q-119 0 -218 60t-157 165t-58 232q0 118 57.5 216.5t156 156t217.5 57.5h356v-798zM751 89v711h-256q-92 0 -168.5 -46.5
t-121 -125.5t-44.5 -173q0 -101 44 -185t120 -132.5t168 -48.5h258zM400 1093l134 20q-29 17 -47 53t-18 76q0 75 48 115t143 40h51l-8 -68h-37q-71 0 -101.5 -22t-30.5 -80q0 -47 31.5 -80.5t81.5 -33.5h137v-69h-100q-86 0 -140 -3.5t-144 -16.5v69z" />
    <glyph glyph-name="uniFE88" unicode="&#x625;" horiz-adv-x="597" arabic-form="final" 
d="M296 1495v-1406h315v-89h-415v1495h100zM44 -457l134 21q-29 17 -47.5 52.5t-18.5 75.5q0 75 48.5 115t143.5 40h50l-8 -67h-36q-70 0 -101.5 -22.5t-31.5 -80.5q0 -46 31.5 -79.5t81.5 -33.5h137v-69h-100q-86 0 -139.5 -3.5t-143.5 -16.5v68z" />
    <glyph glyph-name="uniFE8A" unicode="&#x626;" horiz-adv-x="2021" arabic-form="final" 
d="M659 -377q-160 0 -290.5 70.5t-205 192.5t-74.5 268q0 99 37.5 201.5t114.5 188.5l66 -67q-58 -65 -90 -147.5t-32 -173.5q0 -116 61.5 -218t170 -164t242.5 -62h465q138 0 206.5 50.5t68.5 133.5q0 58 -33.5 102.5t-83 76.5t-136.5 78q-102 53 -164 95t-105.5 106
t-43.5 152q0 99 39.5 172.5t118 114t192.5 40.5q126 0 199 -49t107 -120.5t69 -192.5q37 -127 73.5 -202t116.5 -127t219 -52h68v-90h-66q-176 0 -275 59.5t-140.5 144t-78.5 220.5q-30 109 -57 171t-84.5 103.5t-156.5 41.5q-120 0 -181.5 -63.5t-61.5 -167.5
q0 -64 35.5 -112t87 -82t141.5 -81q99 -52 158.5 -92t101 -100.5t41.5 -143.5q0 -125 -97.5 -200t-292.5 -75h-450zM301 817l134 20q-29 17 -47 53t-18 76q0 75 48 115t143 40h51l-8 -68h-37q-71 0 -101.5 -22t-30.5 -80q0 -47 31.5 -80.5t81.5 -33.5h137v-69h-100
q-86 0 -140 -3.5t-144 -16.5v69z" />
    <glyph glyph-name="uniFE8B" unicode="&#x626;" horiz-adv-x="601" arabic-form="initial" 
d="M405 0h-419v89h318v798h101v-887zM144 1098l134 20q-29 17 -47 53t-18 76q0 75 48 115t143 40h51l-8 -68h-37q-71 0 -101.5 -22t-30.5 -80q0 -47 31.5 -80.5t81.5 -33.5h137v-69h-100q-86 0 -140 -3.5t-144 -16.5v69z" />
    <glyph glyph-name="uniFE8C" unicode="&#x626;" horiz-adv-x="759" arabic-form="medial" 
d="M773 0h-787v89h343v798h101v-798h343v-89zM174 1098l134 20q-29 17 -47 53t-18 76q0 75 48 115t143 40h51l-8 -68h-37q-71 0 -101.5 -22t-30.5 -80q0 -47 31.5 -80.5t81.5 -33.5h137v-69h-100q-86 0 -140 -3.5t-144 -16.5v69z" />
    <glyph glyph-name="uniFE8E" unicode="&#x627;" horiz-adv-x="597" arabic-form="final" 
d="M296 1495v-1406h315v-89h-415v1495h100z" />
    <glyph glyph-name="uniFE90" unicode="&#x628;" horiz-adv-x="2037" arabic-form="final" 
d="M1740 89h311v-89h-1406q-171 0 -294 67t-186 179.5t-63 247.5q0 85 36.5 177t107.5 169l68 -59q-54 -60 -84 -132t-30 -152q0 -110 51.5 -203t155.5 -149t254 -56h979v798h100v-798zM942.5 -319.5q-21.5 22.5 -21.5 53.5q0 32 21 54.5t55 22.5q33 0 55.5 -22.5
t22.5 -54.5q0 -31 -22.5 -53.5t-55.5 -22.5t-54.5 22.5z" />
    <glyph glyph-name="uniFE91" unicode="&#x628;" horiz-adv-x="601" arabic-form="initial" 
d="M405 0h-419v89h318v798h101v-887zM273.5 -319.5q-21.5 22.5 -21.5 53.5q0 32 21 54.5t55 22.5q33 0 55.5 -22.5t22.5 -54.5q0 -31 -22.5 -53.5t-55.5 -22.5t-54.5 22.5z" />
    <glyph glyph-name="uniFE92" unicode="&#x628;" horiz-adv-x="759" arabic-form="medial" 
d="M773 0h-787v89h343v798h101v-798h343v-89zM324.5 -319.5q-21.5 22.5 -21.5 53.5q0 32 21 54.5t55 22.5q33 0 55.5 -22.5t22.5 -54.5q0 -31 -22.5 -53.5t-55.5 -22.5t-54.5 22.5z" />
    <glyph glyph-name="uniFE94" unicode="&#x629;" horiz-adv-x="1134" arabic-form="final" 
d="M818 89h330v-89h-660q-110 0 -201.5 55t-144.5 150.5t-53 210.5q0 107 53 196t144.5 140t202.5 51h229v125h100v-839zM718 89v628h-232q-83 0 -152.5 -40t-109.5 -109.5t-40 -152.5q0 -91 40 -165.5t108.5 -117.5t151.5 -43h234zM657.5 1073.5q-21.5 22.5 -21.5 53.5
q0 32 21 54.5t55 22.5q33 0 55.5 -22.5t22.5 -54.5q0 -31 -22.5 -53.5t-55.5 -22.5t-54.5 22.5zM434.5 1072.5q-21.5 22.5 -21.5 53.5q0 32 21 54.5t55 22.5q33 0 55.5 -22.5t22.5 -54.5q0 -31 -22.5 -53.5t-55.5 -22.5t-54.5 22.5z" />
    <glyph glyph-name="uniFE96" unicode="&#x62a;" horiz-adv-x="2037" arabic-form="final" 
d="M1740 89h311v-89h-1406q-171 0 -294 67t-186 179.5t-63 247.5q0 85 36.5 177t107.5 169l68 -59q-54 -60 -84 -132t-30 -152q0 -110 51.5 -203t155.5 -149t254 -56h979v798h100v-798zM1033.5 1031.5q-21.5 22.5 -21.5 53.5q0 32 21 54.5t55 22.5q33 0 55.5 -22.5
t22.5 -54.5q0 -31 -22.5 -53.5t-55.5 -22.5t-54.5 22.5zM810.5 1030.5q-21.5 22.5 -21.5 53.5q0 32 21 54.5t55 22.5q33 0 55.5 -22.5t22.5 -54.5q0 -31 -22.5 -53.5t-55.5 -22.5t-54.5 22.5z" />
    <glyph glyph-name="uniFE97" unicode="&#x62a;" horiz-adv-x="601" arabic-form="initial" 
d="M405 0h-419v89h318v798h101v-887zM406.5 1032.5q-21.5 22.5 -21.5 53.5q0 32 21 54.5t55 22.5q33 0 55.5 -22.5t22.5 -54.5q0 -31 -22.5 -53.5t-55.5 -22.5t-54.5 22.5zM183.5 1031.5q-21.5 22.5 -21.5 53.5q0 32 21 54.5t55 22.5q33 0 55.5 -22.5t22.5 -54.5
q0 -31 -22.5 -53.5t-55.5 -22.5t-54.5 22.5z" />
    <glyph glyph-name="uniFE98" unicode="&#x62a;" horiz-adv-x="759" arabic-form="medial" 
d="M773 0h-787v89h343v798h101v-798h343v-89zM437.5 1032.5q-21.5 22.5 -21.5 53.5q0 32 21 54.5t55 22.5q33 0 55.5 -22.5t22.5 -54.5q0 -31 -22.5 -53.5t-55.5 -22.5t-54.5 22.5zM214.5 1031.5q-21.5 22.5 -21.5 53.5q0 32 21 54.5t55 22.5q33 0 55.5 -22.5t22.5 -54.5
q0 -31 -22.5 -53.5t-55.5 -22.5t-54.5 22.5z" />
    <glyph glyph-name="uniFE9A" unicode="&#x62b;" horiz-adv-x="2037" arabic-form="final" 
d="M1740 89h311v-89h-1406q-171 0 -294 67t-186 179.5t-63 247.5q0 85 36.5 177t107.5 169l68 -59q-54 -60 -84 -132t-30 -152q0 -110 51.5 -203t155.5 -149t254 -56h979v798h100v-798zM926.5 1192.5q-21.5 22.5 -21.5 53.5q0 32 21 54.5t55 22.5q33 0 55.5 -22.5
t22.5 -54.5q0 -31 -22.5 -53.5t-55.5 -22.5t-54.5 22.5zM818.5 1009.5q-21.5 22.5 -21.5 53.5q0 32 21 54.5t55 22.5q33 0 55.5 -22.5t22.5 -54.5q0 -31 -22.5 -53.5t-55.5 -22.5t-54.5 22.5zM1039.5 1009.5q-21.5 22.5 -21.5 53.5q0 32 21 54.5t55 22.5q33 0 55.5 -22.5
t22.5 -54.5q0 -31 -22.5 -53.5t-55.5 -22.5t-54.5 22.5z" />
    <glyph glyph-name="uniFE9B" unicode="&#x62b;" horiz-adv-x="601" arabic-form="initial" 
d="M405 0h-419v89h318v798h101v-887zM300.5 1194.5q-21.5 22.5 -21.5 53.5q0 32 21 54.5t55 22.5q33 0 55.5 -22.5t22.5 -54.5q0 -31 -22.5 -53.5t-55.5 -22.5t-54.5 22.5zM192.5 1011.5q-21.5 22.5 -21.5 53.5q0 32 21 54.5t55 22.5q33 0 55.5 -22.5t22.5 -54.5
q0 -31 -22.5 -53.5t-55.5 -22.5t-54.5 22.5zM413.5 1011.5q-21.5 22.5 -21.5 53.5q0 32 21 54.5t55 22.5q33 0 55.5 -22.5t22.5 -54.5q0 -31 -22.5 -53.5t-55.5 -22.5t-54.5 22.5z" />
    <glyph glyph-name="uniFE9C" unicode="&#x62b;" horiz-adv-x="759" arabic-form="medial" 
d="M773 0h-787v89h343v798h101v-798h343v-89zM330.5 1194.5q-21.5 22.5 -21.5 53.5q0 32 21 54.5t55 22.5q33 0 55.5 -22.5t22.5 -54.5q0 -31 -22.5 -53.5t-55.5 -22.5t-54.5 22.5zM222.5 1011.5q-21.5 22.5 -21.5 53.5q0 32 21 54.5t55 22.5q33 0 55.5 -22.5t22.5 -54.5
q0 -31 -22.5 -53.5t-55.5 -22.5t-54.5 22.5zM443.5 1011.5q-21.5 22.5 -21.5 53.5q0 32 21 54.5t55 22.5q33 0 55.5 -22.5t22.5 -54.5q0 -31 -22.5 -53.5t-55.5 -22.5t-54.5 22.5z" />
    <glyph glyph-name="uniFE9E" unicode="&#x62c;" horiz-adv-x="1428" arabic-form="final" 
d="M1441 2h-3v-3h-659q-151 0 -248 -47.5t-141.5 -127t-44.5 -177.5q0 -136 102 -245l-63 -59q-64 69 -98.5 150t-34.5 155q0 123 53.5 222.5t168 159t290.5 59.5h403q-60 52 -100 134t-85 217q-43 141 -90.5 224t-128 128t-210.5 45q-87 0 -165 -29.5t-139 -81.5l-52 65
q78 68 173 101.5t187 33.5q160 0 257.5 -56t151.5 -152t103 -253q42 -140 81 -216.5t107.5 -118t185.5 -41.5zM632.5 -390.5q-21.5 22.5 -21.5 53.5q0 32 21 54.5t55 22.5q33 0 55.5 -22.5t22.5 -54.5q0 -31 -22.5 -53.5t-55.5 -22.5t-54.5 22.5z" />
    <glyph glyph-name="uniFE9F" unicode="&#x62c;" horiz-adv-x="1475" arabic-form="initial" 
d="M1365 89v-89h-1379v89h1092q-59 52 -97 132.5t-85 220.5q-44 142 -91 224.5t-127 127.5t-211 45q-87 0 -165 -29.5t-139 -81.5l-53 65q79 68 174.5 101.5t186.5 33.5q160 0 257.5 -56.5t151.5 -152t103 -252.5q42 -140 81.5 -217t108.5 -119t185 -42h7zM451.5 -319.5
q-21.5 22.5 -21.5 53.5q0 32 21 54.5t55 22.5q33 0 55.5 -22.5t22.5 -54.5q0 -31 -22.5 -53.5t-55.5 -22.5t-54.5 22.5z" />
    <glyph glyph-name="uniFEA0" unicode="&#x62c;" horiz-adv-x="1352" arabic-form="medial" 
d="M1365 89v-89h-1379v89h1092q-59 52 -97 132.5t-85 220.5q-44 142 -91 224.5t-127 127.5t-211 45q-87 0 -165 -29.5t-139 -81.5l-53 65q79 68 174.5 101.5t186.5 33.5q160 0 257.5 -56.5t151.5 -152t103 -252.5q42 -140 81.5 -217t108.5 -119t185 -42h7zM500.5 -319.5
q-21.5 22.5 -21.5 53.5q0 32 21 54.5t55 22.5q33 0 55.5 -22.5t22.5 -54.5q0 -31 -22.5 -53.5t-55.5 -22.5t-54.5 22.5z" />
    <glyph glyph-name="uniFEA2" unicode="&#x62d;" horiz-adv-x="1428" arabic-form="final" 
d="M1441 2h-3v-3h-659q-151 0 -248 -47.5t-141.5 -127t-44.5 -177.5q0 -136 102 -245l-63 -59q-64 69 -98.5 150t-34.5 155q0 123 53.5 222.5t168 159t290.5 59.5h403q-60 52 -100 134t-85 217q-43 141 -90.5 224t-128 128t-210.5 45q-87 0 -165 -29.5t-139 -81.5l-52 65
q78 68 173 101.5t187 33.5q160 0 257.5 -56t151.5 -152t103 -253q42 -140 81 -216.5t107.5 -118t185.5 -41.5z" />
    <glyph glyph-name="uniFEA3" unicode="&#x62d;" horiz-adv-x="1455" arabic-form="initial" 
d="M1365 89v-89h-1379v89h1092q-59 52 -97 132.5t-85 220.5q-44 142 -91 224.5t-127 127.5t-211 45q-87 0 -165 -29.5t-139 -81.5l-53 65q79 68 174.5 101.5t186.5 33.5q160 0 257.5 -56.5t151.5 -152t103 -252.5q42 -140 81.5 -217t108.5 -119t185 -42h7z" />
    <glyph glyph-name="uniFEA4" unicode="&#x62d;" horiz-adv-x="1432" arabic-form="medial" 
d="M1445 89v-89h-1459v89h1181q-60 52 -100 134.5t-84 216.5q-44 141 -91.5 224t-127.5 128t-210 45q-87 0 -165 -29.5t-140 -81.5l-51 65q78 68 173 101.5t186 33.5q160 0 257.5 -56t151.5 -152t103 -253q43 -140 82 -216.5t107.5 -118t185.5 -41.5h1z" />
    <glyph glyph-name="uniFEA6" unicode="&#x62e;" horiz-adv-x="1428" arabic-form="final" 
d="M1441 2h-3v-3h-659q-151 0 -248 -47.5t-141.5 -127t-44.5 -177.5q0 -136 102 -245l-63 -59q-64 69 -98.5 150t-34.5 155q0 123 53.5 222.5t168 159t290.5 59.5h403q-60 52 -100 134t-85 217q-43 141 -90.5 224t-128 128t-210.5 45q-87 0 -165 -29.5t-139 -81.5l-52 65
q78 68 173 101.5t187 33.5q160 0 257.5 -56t151.5 -152t103 -253q42 -140 81 -216.5t107.5 -118t185.5 -41.5zM538.5 1066.5q-21.5 22.5 -21.5 53.5q0 32 21 54.5t55 22.5q33 0 55.5 -22.5t22.5 -54.5q0 -31 -22.5 -53.5t-55.5 -22.5t-54.5 22.5z" />
    <glyph glyph-name="uniFEA7" unicode="&#x62e;" horiz-adv-x="1455" arabic-form="initial" 
d="M1365 89v-89h-1379v89h1092q-59 52 -97 132.5t-85 220.5q-44 142 -91 224.5t-127 127.5t-211 45q-87 0 -165 -29.5t-139 -81.5l-53 65q79 68 174.5 101.5t186.5 33.5q160 0 257.5 -56.5t151.5 -152t103 -252.5q42 -140 81.5 -217t108.5 -119t185 -42h7zM433.5 1057.5
q-21.5 22.5 -21.5 53.5q0 32 21 54.5t55 22.5q33 0 55.5 -22.5t22.5 -54.5q0 -31 -22.5 -53.5t-55.5 -22.5t-54.5 22.5z" />
    <glyph glyph-name="uniFEA8" unicode="&#x62e;" horiz-adv-x="1432" arabic-form="medial" 
d="M1445 89v-89h-1459v89h1181q-60 52 -100 134.5t-84 216.5q-44 141 -91.5 224t-127.5 128t-210 45q-87 0 -165 -29.5t-140 -81.5l-51 65q78 68 173 101.5t186 33.5q160 0 257.5 -56t151.5 -152t103 -253q43 -140 82 -216.5t107.5 -118t185.5 -41.5h1zM511.5 1076.5
q-21.5 22.5 -21.5 53.5q0 32 21 54.5t55 22.5q33 0 55.5 -22.5t22.5 -54.5q0 -31 -22.5 -53.5t-55.5 -22.5t-54.5 22.5z" />
    <glyph glyph-name="uniFEAA" unicode="&#x62f;" horiz-adv-x="1407" arabic-form="final" 
d="M1421 89v-89h-1319v89h933q-18 188 -104 351t-221.5 277.5t-296.5 163.5l43 85q177 -54 325.5 -181t242 -307.5t111.5 -388.5h286z" />
    <glyph glyph-name="uniFEAC" unicode="&#x630;" horiz-adv-x="1407" arabic-form="final" 
d="M1421 89v-89h-1319v89h933q-18 188 -104 351t-221.5 277.5t-296.5 163.5l43 85q177 -54 325.5 -181t242 -307.5t111.5 -388.5h286zM428.5 1097.5q-21.5 22.5 -21.5 53.5q0 32 21 54.5t55 22.5q33 0 55.5 -22.5t22.5 -54.5q0 -31 -22.5 -53.5t-55.5 -22.5t-54.5 22.5z" />
    <glyph glyph-name="uniFEAE" unicode="&#x631;" horiz-adv-x="538" arabic-form="final" 
d="M552 89v-89h-258v-30q0 -161 -67.5 -251t-203.5 -90q-52 0 -119 27l16 87q47 -22 93 -22q95 0 138.5 62.5t43.5 184.5v915h99v-794h258z" />
    <glyph glyph-name="uniFEB0" unicode="&#x632;" horiz-adv-x="538" arabic-form="final" 
d="M552 89v-89h-258v-30q0 -161 -67.5 -251t-203.5 -90q-52 0 -119 27l16 87q47 -22 93 -22q95 0 138.5 62.5t43.5 184.5v915h99v-794h258zM199.5 1035.5q-21.5 22.5 -21.5 53.5q0 32 21 54.5t55 22.5q33 0 55.5 -22.5t22.5 -54.5q0 -31 -22.5 -53.5t-55.5 -22.5t-54.5 22.5
z" />
    <glyph glyph-name="uniFEB2" unicode="&#x633;" horiz-adv-x="2672" arabic-form="final" 
d="M2396 89h290v-89h-1495q-11 -154 -90.5 -266.5t-201 -170.5t-255.5 -58q-158 0 -285 75t-198.5 203.5t-71.5 281.5q0 99 38 202t115 189l67 -67q-58 -64 -89.5 -147t-31.5 -176q0 -127 57.5 -233.5t161.5 -169.5t237 -63q114 0 217.5 53t168 154.5t64.5 240.5v754h99
v-713h494v673h100v-673h509v798h100v-798z" />
    <glyph glyph-name="uniFEB3" unicode="&#x633;" horiz-adv-x="1966" arabic-form="initial" 
d="M1671 89v798h99v-887h-1784v89h466v714h100v-714h509v673h100v-673h510z" />
    <glyph glyph-name="uniFEB4" unicode="&#x633;" horiz-adv-x="2062" arabic-form="medial" 
d="M1770 887v-798h306v-89h-2090v89h466v714h100v-714h509v673h100v-673h510v798h99z" />
    <glyph glyph-name="uniFEB6" unicode="&#x634;" horiz-adv-x="2672" arabic-form="final" 
d="M2396 89h290v-89h-1495q-11 -154 -90.5 -266.5t-201 -170.5t-255.5 -58q-158 0 -285 75t-198.5 203.5t-71.5 281.5q0 99 38 202t115 189l67 -67q-58 -64 -89.5 -147t-31.5 -176q0 -127 57.5 -233.5t161.5 -169.5t237 -63q114 0 217.5 53t168 154.5t64.5 240.5v754h99
v-713h494v673h100v-673h509v798h100v-798zM1686.5 1128.5q-21.5 22.5 -21.5 53.5q0 32 21 54.5t55 22.5q33 0 55.5 -22.5t22.5 -54.5q0 -31 -22.5 -53.5t-55.5 -22.5t-54.5 22.5zM1578.5 945.5q-21.5 22.5 -21.5 53.5q0 32 21 54.5t55 22.5q33 0 55.5 -22.5t22.5 -54.5
q0 -31 -22.5 -53.5t-55.5 -22.5t-54.5 22.5zM1799.5 945.5q-21.5 22.5 -21.5 53.5q0 32 21 54.5t55 22.5q33 0 55.5 -22.5t22.5 -54.5q0 -31 -22.5 -53.5t-55.5 -22.5t-54.5 22.5z" />
    <glyph glyph-name="uniFEB7" unicode="&#x634;" horiz-adv-x="1966" arabic-form="initial" 
d="M1671 89v798h99v-887h-1784v89h466v714h100v-714h509v673h100v-673h510zM1054.5 1108.5q-21.5 22.5 -21.5 53.5q0 32 21 54.5t55 22.5q33 0 55.5 -22.5t22.5 -54.5q0 -31 -22.5 -53.5t-55.5 -22.5t-54.5 22.5zM946.5 925.5q-21.5 22.5 -21.5 53.5q0 32 21 54.5t55 22.5
q33 0 55.5 -22.5t22.5 -54.5q0 -31 -22.5 -53.5t-55.5 -22.5t-54.5 22.5zM1167.5 925.5q-21.5 22.5 -21.5 53.5q0 32 21 54.5t55 22.5q33 0 55.5 -22.5t22.5 -54.5q0 -31 -22.5 -53.5t-55.5 -22.5t-54.5 22.5z" />
    <glyph glyph-name="uniFEB8" unicode="&#x634;" horiz-adv-x="2062" arabic-form="medial" 
d="M1770 887v-798h306v-89h-2090v89h466v714h100v-714h509v673h100v-673h510v798h99zM1065.5 1107.5q-21.5 22.5 -21.5 53.5q0 32 21 54.5t55 22.5q33 0 55.5 -22.5t22.5 -54.5q0 -31 -22.5 -53.5t-55.5 -22.5t-54.5 22.5zM957.5 924.5q-21.5 22.5 -21.5 53.5q0 32 21 54.5
t55 22.5q33 0 55.5 -22.5t22.5 -54.5q0 -31 -22.5 -53.5t-55.5 -22.5t-54.5 22.5zM1178.5 924.5q-21.5 22.5 -21.5 53.5q0 32 21 54.5t55 22.5q33 0 55.5 -22.5t22.5 -54.5q0 -31 -22.5 -53.5t-55.5 -22.5t-54.5 22.5z" />
    <glyph glyph-name="uniFEBA" unicode="&#x635;" horiz-adv-x="2734" arabic-form="final" 
d="M2451 89h297v-89h-1543q-11 -154 -91 -266.5t-201.5 -170.5t-255.5 -58q-158 0 -285 75t-198.5 203.5t-71.5 281.5q0 99 38.5 202t115.5 189l67 -67q-58 -64 -89.5 -147t-31.5 -176q0 -127 57.5 -233.5t161 -169.5t236.5 -63q109 0 208.5 48t165 140.5t75.5 219.5h-3
q2 10 4 17v23v754h100v-501q86 166 216.5 292.5t277 195.5t279.5 69q232 0 351.5 -126.5t119.5 -368.5v-274zM2347 89v275q0 197 -94.5 300t-277.5 103q-137 0 -289.5 -85t-280 -240t-190.5 -353h1132z" />
    <glyph glyph-name="uniFEBB" unicode="&#x635;" horiz-adv-x="1831" arabic-form="initial" 
d="M1514.5 731.5q119.5 -126.5 119.5 -368.5v-363h-1648v89h311v722h101v-495q87 162 216.5 285.5t274 190t275.5 66.5q231 0 350.5 -126.5zM1530 364q0 197 -94.5 300t-277.5 103q-136 0 -289 -85t-280.5 -240t-190.5 -353h1132v275z" />
    <glyph glyph-name="uniFEBC" unicode="&#x635;" horiz-adv-x="1870" arabic-form="medial" 
d="M1634 89h250v-89h-1898v89h311v722h101v-495q87 162 216.5 285.5t274 190t275.5 66.5q231 0 350.5 -126.5t119.5 -368.5v-274zM1530 364q0 197 -94.5 300t-277.5 103q-136 0 -289 -85t-280.5 -240t-190.5 -353h1132v275z" />
    <glyph glyph-name="uniFEBE" unicode="&#x636;" horiz-adv-x="2734" arabic-form="final" 
d="M2451 89h297v-89h-1543q-11 -154 -91 -266.5t-201.5 -170.5t-255.5 -58q-158 0 -285 75t-198.5 203.5t-71.5 281.5q0 99 38.5 202t115.5 189l67 -67q-58 -64 -89.5 -147t-31.5 -176q0 -127 57.5 -233.5t161 -169.5t236.5 -63q109 0 208.5 48t165 140.5t75.5 219.5h-3
q2 10 4 17v23v754h100v-501q86 166 216.5 292.5t277 195.5t279.5 69q232 0 351.5 -126.5t119.5 -368.5v-274zM2347 89v275q0 197 -94.5 300t-277.5 103q-137 0 -289.5 -85t-280 -240t-190.5 -353h1132zM1875.5 1056.5q-21.5 22.5 -21.5 53.5q0 32 21 54.5t55 22.5
q33 0 55.5 -22.5t22.5 -54.5q0 -31 -22.5 -53.5t-55.5 -22.5t-54.5 22.5z" />
    <glyph glyph-name="uniFEBF" unicode="&#x636;" horiz-adv-x="1831" arabic-form="initial" 
d="M1514.5 731.5q119.5 -126.5 119.5 -368.5v-363h-1648v89h311v722h101v-495q87 162 216.5 285.5t274 190t275.5 66.5q231 0 350.5 -126.5zM1530 364q0 197 -94.5 300t-277.5 103q-136 0 -289 -85t-280.5 -240t-190.5 -353h1132v275zM1180.5 1004.5q-21.5 22.5 -21.5 53.5
q0 32 21 54.5t55 22.5q33 0 55.5 -22.5t22.5 -54.5q0 -31 -22.5 -53.5t-55.5 -22.5t-54.5 22.5z" />
    <glyph glyph-name="uniFEC0" unicode="&#x636;" horiz-adv-x="1870" arabic-form="medial" 
d="M1634 89h250v-89h-1898v89h311v722h101v-495q87 162 216.5 285.5t274 190t275.5 66.5q231 0 350.5 -126.5t119.5 -368.5v-274zM1530 364q0 197 -94.5 300t-277.5 103q-136 0 -289 -85t-280.5 -240t-190.5 -353h1132v275zM1103.5 1114.5q-21.5 22.5 -21.5 53.5
q0 32 21 54.5t55 22.5q33 0 55.5 -22.5t22.5 -54.5q0 -31 -22.5 -53.5t-55.5 -22.5t-54.5 22.5z" />
    <glyph glyph-name="uniFEC2" unicode="&#x637;" horiz-adv-x="1954" arabic-form="final" 
d="M1727 89h241v-89h-1879v89h301v1406h100v-1179q87 162 216.5 285.5t274 190t275.5 66.5q231 0 351 -127t120 -368v-274zM1623 364q0 197 -95 300t-278 103q-136 0 -289 -85t-280 -240t-190 -353h1132v275z" />
    <glyph glyph-name="uniFEC3" unicode="&#x637;" horiz-adv-x="1820" arabic-form="initial" 
d="M1504 731q120 -127 120 -368v-363h-1638v89h301v1406h100v-1179q87 162 216.5 285.5t274 190t275.5 66.5q231 0 351 -127zM1520 364q0 197 -95 300t-278 103q-136 0 -289 -85t-280 -240t-190 -353h1132v275z" />
    <glyph glyph-name="uniFEC4" unicode="&#x637;" horiz-adv-x="1852" arabic-form="medial" 
d="M1624 89h242v-89h-1880v89h301v1406h101v-1178q87 162 216.5 285t273.5 189.5t275 66.5q232 0 351.5 -126.5t119.5 -368.5v-274zM1520 364q0 197 -95 300t-278 103q-136 0 -289 -85t-280 -240t-190 -353h1132v275z" />
    <glyph glyph-name="uniFEC6" unicode="&#x638;" horiz-adv-x="1954" arabic-form="final" 
d="M1727 89h241v-89h-1879v89h301v1406h100v-1179q87 162 216.5 285.5t274 190t275.5 66.5q231 0 351 -127t120 -368v-274zM1623 364q0 197 -95 300t-278 103q-136 0 -289 -85t-280 -240t-190 -353h1132v275zM1217.5 1005.5q-21.5 22.5 -21.5 53.5q0 32 21 54.5t55 22.5
q33 0 55.5 -22.5t22.5 -54.5q0 -31 -22.5 -53.5t-55.5 -22.5t-54.5 22.5z" />
    <glyph glyph-name="uniFEC7" unicode="&#x638;" horiz-adv-x="1820" arabic-form="initial" 
d="M1504 731q120 -127 120 -368v-363h-1638v89h301v1406h100v-1179q87 162 216.5 285.5t274 190t275.5 66.5q231 0 351 -127zM1520 364q0 197 -95 300t-278 103q-136 0 -289 -85t-280 -240t-190 -353h1132v275zM1050.5 1005.5q-21.5 22.5 -21.5 53.5q0 32 21 54.5t55 22.5
q33 0 55.5 -22.5t22.5 -54.5q0 -31 -22.5 -53.5t-55.5 -22.5t-54.5 22.5z" />
    <glyph glyph-name="uniFEC8" unicode="&#x638;" horiz-adv-x="1852" arabic-form="medial" 
d="M1624 89h241v-89h-1879v89h301v1406h100v-1179q87 162 216.5 285.5t274 190t275.5 66.5q231 0 351 -127t120 -368v-274zM1520 364q0 197 -95 300t-278 103q-136 0 -289 -85t-280 -240t-190 -353h1132v275zM1115.5 1005.5q-21.5 22.5 -21.5 53.5q0 32 21 54.5t55 22.5
q33 0 55.5 -22.5t22.5 -54.5q0 -31 -22.5 -53.5t-55.5 -22.5t-54.5 22.5z" />
    <glyph glyph-name="uniFECA" unicode="&#x639;" horiz-adv-x="1220" arabic-form="final" 
d="M1234 90v-90h-51q-154 0 -315 82t-298 215q-133 -62 -210 -108.5t-124.5 -109t-47.5 -147.5q0 -58 32 -110.5t99 -85.5t166 -33q103 0 189 27.5t144 68.5l60 -69q-78 -52 -182 -84.5t-217 -32.5q-123 0 -211.5 47t-133.5 120.5t-45 152.5q0 99 46.5 172t136 131.5
t237.5 125.5q-86 98 -143.5 201.5t-75.5 197.5q61 82 157 126.5t205 44.5q108 0 202.5 -44.5t154.5 -126.5q-25 -110 -107.5 -219t-244.5 -201q119 -113 254 -182t269 -69h54zM499 818q-75 -32 -115 -78q24 -75 79.5 -163.5t131.5 -172.5q98 53 166.5 116t105 120.5
t46.5 100.5q-36 47 -110 78t-151 31q-78 0 -153 -32z" />
    <glyph glyph-name="uniFECB" unicode="&#x639;" horiz-adv-x="1329" arabic-form="initial" 
d="M-14 0v89h516q-64 27 -119.5 86.5t-88.5 137.5t-33 158q0 128 54.5 228.5t157.5 157.5t243 57q83 0 169 -30.5t157 -91.5l-62 -70q-52 47 -119 72.5t-144 25.5q-112 0 -194 -45t-125.5 -126t-43.5 -188q0 -90 51 -176.5t136.5 -141t183.5 -54.5h515v-89h-1254z" />
    <glyph glyph-name="uniFECC" unicode="&#x639;" horiz-adv-x="1044" arabic-form="medial" 
d="M1058 89v-89h-98q-108 0 -220.5 39t-217.5 110q-104 -71 -217 -110t-221 -39h-98v89h98q91 0 184 29.5t181 83.5q-136 109 -226.5 250t-109.5 285q70 80 182.5 130.5t226.5 50.5q113 0 226.5 -50.5t183.5 -130.5q-19 -143 -109.5 -284.5t-226.5 -250.5q88 -54 181 -83.5
t184 -29.5h97zM315 467.5q84 -122.5 208 -215.5q123 92 206.5 215t104.5 248q-29 28 -80 55t-112 44t-119 17q-84 0 -174 -35.5t-138 -80.5q20 -125 104 -247.5z" />
    <glyph glyph-name="uniFECE" unicode="&#x63a;" horiz-adv-x="1220" arabic-form="final" 
d="M1234 90v-90h-51q-154 0 -315 82t-298 215q-133 -62 -210 -108.5t-124.5 -109t-47.5 -147.5q0 -58 32 -110.5t99 -85.5t166 -33q103 0 189 27.5t144 68.5l60 -69q-78 -52 -182 -84.5t-217 -32.5q-123 0 -211.5 47t-133.5 120.5t-45 152.5q0 99 46.5 172t136 131.5
t237.5 125.5q-86 98 -143.5 201.5t-75.5 197.5q61 82 157 126.5t205 44.5q108 0 202.5 -44.5t154.5 -126.5q-25 -110 -107.5 -219t-244.5 -201q119 -113 254 -182t269 -69h54zM499 818q-75 -32 -115 -78q24 -75 79.5 -163.5t131.5 -172.5q98 53 166.5 116t105 120.5
t46.5 100.5q-36 47 -110 78t-151 31q-78 0 -153 -32zM605.5 1096.5q-21.5 22.5 -21.5 53.5q0 32 21 54.5t55 22.5q33 0 55.5 -22.5t22.5 -54.5q0 -31 -22.5 -53.5t-55.5 -22.5t-54.5 22.5z" />
    <glyph glyph-name="uniFECF" unicode="&#x63a;" horiz-adv-x="1329" arabic-form="initial" 
d="M-14 0v89h516q-64 27 -119.5 86.5t-88.5 137.5t-33 158q0 128 54.5 228.5t157.5 157.5t243 57q83 0 169 -30.5t157 -91.5l-62 -70q-52 47 -119 72.5t-144 25.5q-112 0 -194 -45t-125.5 -126t-43.5 -188q0 -90 51 -176.5t136.5 -141t183.5 -54.5h515v-89h-1254z
M665.5 1039.5q-21.5 22.5 -21.5 53.5q0 32 21 54.5t55 22.5q33 0 55.5 -22.5t22.5 -54.5q0 -31 -22.5 -53.5t-55.5 -22.5t-54.5 22.5z" />
    <glyph glyph-name="uniFED0" unicode="&#x63a;" horiz-adv-x="1044" arabic-form="medial" 
d="M1058 89v-89h-98q-108 0 -220.5 39t-217.5 110q-104 -71 -217 -110t-221 -39h-98v89h98q91 0 184 29.5t181 83.5q-136 109 -226.5 250t-109.5 285q70 80 182.5 130.5t226.5 50.5q113 0 226.5 -50.5t183.5 -130.5q-19 -143 -109.5 -284.5t-226.5 -250.5q88 -54 181 -83.5
t184 -29.5h97zM315 467.5q84 -122.5 208 -215.5q123 92 206.5 215t104.5 248q-29 28 -80 55t-112 44t-119 17q-84 0 -174 -35.5t-138 -80.5q20 -125 104 -247.5zM476.5 1089.5q-21.5 22.5 -21.5 53.5q0 32 21 54.5t55 22.5q33 0 55.5 -22.5t22.5 -54.5q0 -31 -22.5 -53.5
t-55.5 -22.5t-54.5 22.5z" />
    <glyph glyph-name="uniFED2" unicode="&#x641;" horiz-adv-x="1837" arabic-form="final" 
d="M1626 89h225v-89h-1220q-171 0 -293.5 67t-185.5 179.5t-63 247.5q0 86 36 177.5t108 168.5l67 -59q-54 -60 -84 -132t-30 -152q0 -110 51.5 -203t155.5 -149t254 -56h365q-81 63 -127 159t-46 209q0 118 57.5 216.5t156 156t217.5 57.5h356v-798zM1527 800h-256
q-92 0 -168.5 -46.5t-120.5 -125.5t-44 -173q0 -101 44 -185t119.5 -132.5t167.5 -48.5h258v711zM1330.5 1105.5q-21.5 22.5 -21.5 53.5q0 32 21 54.5t55 22.5q33 0 55.5 -22.5t22.5 -54.5q0 -31 -22.5 -53.5t-55.5 -22.5t-54.5 22.5z" />
    <glyph glyph-name="uniFED3" unicode="&#x641;" horiz-adv-x="1083" arabic-form="initial" 
d="M887 887v-887h-900v89h286q-81 63 -127 159t-46 209q0 118 57.5 216.5t156 156t217.5 57.5h356zM788 800h-256q-92 0 -168.5 -46.5t-120.5 -125.5t-44 -173q0 -101 44 -185t119.5 -132.5t167.5 -48.5h258v711zM583.5 1044.5q-21.5 22.5 -21.5 53.5q0 32 21 54.5t55 22.5
q33 0 55.5 -22.5t22.5 -54.5q0 -31 -22.5 -53.5t-55.5 -22.5t-54.5 22.5z" />
    <glyph glyph-name="uniFED4" unicode="&#x641;" horiz-adv-x="1153" arabic-form="medial" 
d="M887 89h280v-89h-1180v89h286q-81 63 -127 159t-46 209q0 118 57.5 216.5t156 156t217.5 57.5h356v-798zM788 800h-256q-92 0 -168.5 -46.5t-120.5 -125.5t-44 -173q0 -101 44 -185t119.5 -132.5t167.5 -48.5h258v711zM611.5 1041.5q-21.5 22.5 -21.5 53.5q0 32 21 54.5
t55 22.5q33 0 55.5 -22.5t22.5 -54.5q0 -31 -22.5 -53.5t-55.5 -22.5t-54.5 22.5z" />
    <glyph glyph-name="uniFED6" unicode="&#x642;" horiz-adv-x="1895" arabic-form="final" 
d="M1909 89v-89h-232v-100q0 -197 -127 -283.5t-366 -86.5h-532q-178 0 -305.5 68t-192.5 184.5t-65 259.5q0 105 38 210.5t115 191.5l66 -67q-58 -64 -89.5 -149.5t-31.5 -184.5q0 -119 51.5 -215t156.5 -152.5t259 -56.5h530q193 0 293 64t100 218v99h-254
q-119 0 -218 60.5t-157 165t-58 231.5q0 118 57.5 216.5t156 156t217.5 57.5h356v-798h232zM1577 89v613h1v98h-256q-92 0 -168.5 -46.5t-120.5 -125.5t-44 -173q0 -101 44 -185t119.5 -132.5t167.5 -48.5h257zM1515.5 1101.5q-21.5 22.5 -21.5 53.5q0 32 21 54.5t55 22.5
q33 0 55.5 -22.5t22.5 -54.5q0 -31 -22.5 -53.5t-55.5 -22.5t-54.5 22.5zM1292.5 1100.5q-21.5 22.5 -21.5 53.5q0 32 21 54.5t55 22.5q33 0 55.5 -22.5t22.5 -54.5q0 -31 -22.5 -53.5t-55.5 -22.5t-54.5 22.5z" />
    <glyph glyph-name="uniFED7" unicode="&#x642;" horiz-adv-x="1083" arabic-form="initial" 
d="M887 887v-887h-900v89h286q-81 63 -127 159t-46 209q0 118 57.5 216.5t156 156t217.5 57.5h356zM788 800h-256q-92 0 -168.5 -46.5t-120.5 -125.5t-44 -173q0 -101 44 -185t119.5 -132.5t167.5 -48.5h258v711zM685.5 1037.5q-21.5 22.5 -21.5 53.5q0 32 21 54.5t55 22.5
q33 0 55.5 -22.5t22.5 -54.5q0 -31 -22.5 -53.5t-55.5 -22.5t-54.5 22.5zM462.5 1036.5q-21.5 22.5 -21.5 53.5q0 32 21 54.5t55 22.5q33 0 55.5 -22.5t22.5 -54.5q0 -31 -22.5 -53.5t-55.5 -22.5t-54.5 22.5z" />
    <glyph glyph-name="uniFED8" unicode="&#x642;" horiz-adv-x="1153" arabic-form="medial" 
d="M887 89h280v-89h-1180v89h286q-81 63 -127 159t-46 209q0 118 57.5 216.5t156 156t217.5 57.5h356v-798zM788 800h-256q-92 0 -168.5 -46.5t-120.5 -125.5t-44 -173q0 -101 44 -185t119.5 -132.5t167.5 -48.5h258v711zM713.5 1035.5q-21.5 22.5 -21.5 53.5q0 32 21 54.5
t55 22.5q33 0 55.5 -22.5t22.5 -54.5q0 -31 -22.5 -53.5t-55.5 -22.5t-54.5 22.5zM490.5 1034.5q-21.5 22.5 -21.5 53.5q0 32 21 54.5t55 22.5q33 0 55.5 -22.5t22.5 -54.5q0 -31 -22.5 -53.5t-55.5 -22.5t-54.5 22.5z" />
    <glyph glyph-name="uniFEDA" unicode="&#x643;" horiz-adv-x="1995" arabic-form="final" 
d="M1715 90h294v-89h-1271q-171 0 -293.5 66.5t-185.5 179t-63 248.5q0 86 36 177.5t108 167.5l67 -59q-54 -59 -84 -131t-30 -153q0 -110 51.5 -202.5t155.5 -148.5t254 -56h860v1405h101v-1405zM1193 826h-77q-102 0 -156.5 -3.5t-149.5 -16.5v68l134 21
q-29 17 -47.5 52.5t-18.5 75.5q0 75 48.5 115t143.5 40h50l-8 -67h-36q-71 0 -102 -22t-31 -80q0 -47 31.5 -80.5t81.5 -33.5h137v-69z" />
    <glyph glyph-name="uniFEDB" unicode="&#x643;" horiz-adv-x="1213" arabic-form="initial" 
d="M586 708q141 0 238 -50t145 -141.5t48 -217.5v-299h-1031v89h930v209q0 154 -80.5 238t-248.5 84h-511v88q11 185 114 331.5t279 230t397 84.5l11 -93q-195 -3 -349.5 -72.5t-249 -194t-113.5 -286.5h421z" />
    <glyph glyph-name="uniFEDC" unicode="&#x643;" horiz-adv-x="1309" arabic-form="medial" 
d="M1017 89h306v-89h-1337v89h930v209q0 154 -80.5 238t-248.5 84h-511v88q11 185 114 331.5t279 230t397 84.5l11 -93q-195 -3 -349.5 -72.5t-249 -194t-113.5 -286.5h421q141 0 238 -50t145 -141.5t48 -217.5v-210z" />
    <glyph glyph-name="uniFEDE" unicode="&#x644;" horiz-adv-x="1477" arabic-form="final" 
d="M1491 89v-89h-300q-11 -154 -90.5 -266.5t-201 -170.5t-255.5 -58q-158 0 -285 75t-198.5 203.5t-71.5 281.5q0 99 38 202t115 189l67 -67q-58 -64 -89.5 -147t-31.5 -176q0 -127 57.5 -233.5t161.5 -169.5t237 -63q114 0 217.5 53t168 154.5t64.5 240.5v1357h99v-1316
h298z" />
    <glyph glyph-name="uniFEDF" unicode="&#x644;" horiz-adv-x="584" arabic-form="initial" 
d="M388 0h-402v89h301v1406h101v-1495z" />
    <glyph glyph-name="uniFEE0" unicode="&#x644;" horiz-adv-x="676" arabic-form="medial" 
d="M690 0h-704v89h301v1406h101v-1406h302v-89z" />
    <glyph glyph-name="uniFEE2" unicode="&#x645;" horiz-adv-x="1433" arabic-form="final" 
d="M1447 89v-89h-17q-131 0 -217 58.5t-121 151.5q-62 -97 -168 -153.5t-235 -56.5h-324q-94 0 -136 -53.5t-42 -157.5v-327h-98v327q0 300 270 300h64q-91 57 -144.5 153t-53.5 214q0 126 62.5 227t169 158t233.5 57q130 0 238.5 -57t171.5 -158.5t63 -227.5
q0 -60 -16 -122h16v-11q0 -66 32.5 -119t94.5 -83.5t146 -30.5h11zM693 89q104 0 189.5 47.5t135.5 131.5t50 189q0 103 -49.5 184t-135.5 125.5t-192 44.5q-103 0 -188 -45t-134.5 -126.5t-49.5 -185.5q0 -92 36 -169t100 -128.5t145 -67.5h93z" />
    <glyph glyph-name="uniFEE3" unicode="&#x645;" horiz-adv-x="1168" arabic-form="initial" 
d="M845 851q109 -58 172 -160t63 -230q0 -129 -62 -234t-171 -166t-244 -61h-617v89h343q-93 57 -147 154.5t-54 217.5q0 128 63 230t172 160t241 58t241 -58zM606 89q105 0 192 48t137 133.5t50 192.5q0 105 -50 187t-137 127.5t-194 45.5t-194.5 -45t-138 -127t-50.5 -189
q0 -95 38 -174.5t105.5 -132t152.5 -66.5h89z" />
    <glyph glyph-name="uniFEE4" unicode="&#x645;" horiz-adv-x="1350" arabic-form="medial" 
d="M1364 89v-89h-17q-132 0 -218 59t-120 152q-64 -98 -170 -154.5t-236 -56.5h-617v89h343q-93 57 -147 154.5t-54 217.5q0 128 63 230t172 160t241 58t241 -58t172 -160t63 -230q0 -66 -17 -128h17v-11q0 -66 32.5 -119t94 -83.5t145.5 -30.5h12zM606 89q105 0 192 48
t137 133.5t50 192.5q0 105 -50 187t-137 127.5t-194 45.5t-194.5 -45t-138 -127t-50.5 -189q0 -95 38 -174.5t105.5 -132t152.5 -66.5h89z" />
    <glyph glyph-name="uniFEE6" unicode="&#x646;" horiz-adv-x="1476" arabic-form="final" 
d="M1490 89v-89h-299q-11 -154 -90.5 -266.5t-201 -170.5t-255.5 -58q-158 0 -285 75t-198.5 203.5t-71.5 281.5q0 99 38 202t115 189l67 -67q-58 -64 -89.5 -147t-31.5 -176q0 -127 57.5 -233.5t161.5 -169.5t237 -63q114 0 217.5 53t168 154.5t64.5 240.5v754h99v-713h297
zM622.5 881.5q-21.5 22.5 -21.5 53.5q0 32 21 54.5t55 22.5q33 0 55.5 -22.5t22.5 -54.5q0 -31 -22.5 -53.5t-55.5 -22.5t-54.5 22.5z" />
    <glyph glyph-name="uniFEE7" unicode="&#x646;" horiz-adv-x="601" arabic-form="initial" 
d="M405 0h-419v89h318v798h101v-887zM304.5 1039.5q-21.5 22.5 -21.5 53.5q0 32 21 54.5t55 22.5q33 0 55.5 -22.5t22.5 -54.5q0 -31 -22.5 -53.5t-55.5 -22.5t-54.5 22.5z" />
    <glyph glyph-name="uniFEE8" unicode="&#x646;" horiz-adv-x="759" arabic-form="medial" 
d="M773 0h-787v89h343v798h101v-798h343v-89zM334.5 1039.5q-21.5 22.5 -21.5 53.5q0 32 21 54.5t55 22.5q33 0 55.5 -22.5t22.5 -54.5q0 -31 -22.5 -53.5t-55.5 -22.5t-54.5 22.5z" />
    <glyph glyph-name="uniFEEA" unicode="&#x647;" horiz-adv-x="1134" arabic-form="final" 
d="M818 89h330v-89h-660q-110 0 -201.5 55t-144.5 150.5t-53 210.5q0 107 53 196t144.5 140t202.5 51h229v125h100v-839zM718 89v628h-232q-83 0 -152.5 -40t-109.5 -109.5t-40 -152.5q0 -91 40 -165.5t108.5 -117.5t151.5 -43h234z" />
    <glyph glyph-name="uniFEEB" unicode="&#x647;" horiz-adv-x="1784" arabic-form="initial" 
d="M866 1237q211 0 375.5 -86t255.5 -239t91 -347v-565h-1602v89h500q-90 59 -141.5 155t-51.5 209q0 127 62 228.5t170.5 159t241.5 57.5q138 0 246 -57t168 -159.5t60 -235.5v-357h247v469q0 171 -78.5 304t-220 207t-323.5 74v94zM1142 89v352q0 109 -46.5 191.5
t-131.5 127.5t-198 45q-106 0 -192 -44t-135.5 -124t-49.5 -186q0 -91 36.5 -167t102.5 -127t152 -68h462z" />
    <glyph glyph-name="uniFEEC" unicode="&#x647;" horiz-adv-x="1879" arabic-form="medial" 
d="M1588 89h305v-89h-1907v89h500q-90 59 -141.5 155t-51.5 209q0 127 62 228.5t170.5 159t241.5 57.5q138 0 246 -57t168 -159.5t60 -235.5v-357h247v469q0 171 -78.5 304t-220 207t-323.5 74v94q211 0 375.5 -86t255.5 -239t91 -347v-476zM1142 89v352q0 109 -46.5 191.5
t-131.5 127.5t-198 45q-106 0 -192 -44t-135.5 -124t-49.5 -186q0 -91 36.5 -167t102.5 -127t152 -68h462z" />
    <glyph glyph-name="uniFEEE" unicode="&#x648;" horiz-adv-x="1122" arabic-form="final" 
d="M850 89h286v-89h-286v-96q0 -206 -100.5 -308.5t-285.5 -102.5q-147 0 -294 71l40 87q131 -63 255 -63q141 0 213.5 78.5t72.5 242.5v91h-255q-119 0 -218 60t-157 165t-58 232q0 118 57.5 216.5t156 156t217.5 57.5h356v-798zM751 89v711h-256q-92 0 -168.5 -46.5
t-121 -125.5t-44.5 -173q0 -101 44 -185t120 -132.5t168 -48.5h258z" />
    <glyph glyph-name="uniFEF0" unicode="&#x649;" horiz-adv-x="2021" arabic-form="final" 
d="M659 -377q-160 0 -290.5 70.5t-205 192.5t-74.5 268q0 99 37.5 201.5t114.5 188.5l66 -67q-58 -65 -90 -147.5t-32 -173.5q0 -116 61.5 -218t170 -164t242.5 -62h465q138 0 206.5 50.5t68.5 133.5q0 58 -33.5 102.5t-83 76.5t-136.5 78q-102 53 -164 95t-105.5 106
t-43.5 152q0 99 39.5 172.5t118 114t192.5 40.5q126 0 199 -49t107 -120.5t69 -192.5q37 -127 73.5 -202t116.5 -127t219 -52h68v-90h-66q-176 0 -275 59.5t-140.5 144t-78.5 220.5q-30 109 -57 171t-84.5 103.5t-156.5 41.5q-120 0 -181.5 -63.5t-61.5 -167.5
q0 -64 35.5 -112t87 -82t141.5 -81q99 -52 158.5 -92t101 -100.5t41.5 -143.5q0 -125 -97.5 -200t-292.5 -75h-450z" />
    <glyph glyph-name="uniFEF2" unicode="&#x64a;" horiz-adv-x="2021" arabic-form="final" 
d="M659 -377q-160 0 -290.5 70.5t-205 192.5t-74.5 268q0 99 37.5 201.5t114.5 188.5l66 -67q-58 -65 -90 -147.5t-32 -173.5q0 -116 61.5 -218t170 -164t242.5 -62h465q138 0 206.5 50.5t68.5 133.5q0 58 -33.5 102.5t-83 76.5t-136.5 78q-102 53 -164 95t-105.5 106
t-43.5 152q0 99 39.5 172.5t118 114t192.5 40.5q126 0 199 -49t107 -120.5t69 -192.5q37 -127 73.5 -202t116.5 -127t219 -52h68v-90h-66q-176 0 -275 59.5t-140.5 144t-78.5 220.5q-30 109 -57 171t-84.5 103.5t-156.5 41.5q-120 0 -181.5 -63.5t-61.5 -167.5
q0 -64 35.5 -112t87 -82t141.5 -81q99 -52 158.5 -92t101 -100.5t41.5 -143.5q0 -125 -97.5 -200t-292.5 -75h-450zM966.5 -581.5q-21.5 22.5 -21.5 53.5q0 32 21 54.5t55 22.5q33 0 55.5 -22.5t22.5 -54.5q0 -31 -22.5 -53.5t-55.5 -22.5t-54.5 22.5zM745.5 -581.5
q-21.5 22.5 -21.5 53.5q0 32 21 54.5t55 22.5q33 0 55.5 -22.5t22.5 -54.5q0 -31 -22.5 -53.5t-55.5 -22.5t-54.5 22.5z" />
    <glyph glyph-name="uniFEF3" unicode="&#x64a;" horiz-adv-x="601" arabic-form="initial" 
d="M405 0h-419v89h318v798h101v-887zM379.5 -323.5q-21.5 22.5 -21.5 53.5q0 32 21 54.5t55 22.5q33 0 55.5 -22.5t22.5 -54.5q0 -31 -22.5 -53.5t-55.5 -22.5t-54.5 22.5zM158.5 -323.5q-21.5 22.5 -21.5 53.5q0 32 21 54.5t55 22.5q33 0 55.5 -22.5t22.5 -54.5
q0 -31 -22.5 -53.5t-55.5 -22.5t-54.5 22.5z" />
    <glyph glyph-name="uniFEF4" unicode="&#x64a;" horiz-adv-x="759" arabic-form="medial" 
d="M773 0h-787v89h343v798h101v-798h343v-89zM438.5 -323.5q-21.5 22.5 -21.5 53.5q0 32 21 54.5t55 22.5q33 0 55.5 -22.5t22.5 -54.5q0 -31 -22.5 -53.5t-55.5 -22.5t-54.5 22.5zM217.5 -323.5q-21.5 22.5 -21.5 53.5q0 32 21 54.5t55 22.5q33 0 55.5 -22.5t22.5 -54.5
q0 -31 -22.5 -53.5t-55.5 -22.5t-54.5 22.5z" />
    <glyph glyph-name=".notdef" horiz-adv-x="925" 
d="M172 1495h587v-1850h-587v1850zM616 1310v61h-305v-61h120v-68h-122v-61h307v61h-122v68h122zM494 1003v129h-185v-192h307v63h-122zM370 1070h61v-67h-61v67zM616 829v61h-307v-61h122v-68h-122v-61h185v129h122zM616 594v185h-61v-122h-246v-63h307zM616 344v209h-185
v-103h63v42h61v-87h-185v148h-61v-209h307zM616 24v209h-307v-209h307zM370 172h185v-87h-185v87zM616 -79v61h-307v-61h129l-129 -87v-61h307v61h-189l130 87h59z" />
    <glyph glyph-name="uni0000" 
 />
    <glyph glyph-name="uni0000" 
 />
    <glyph glyph-name="nonmarkingreturn" horiz-adv-x="666" 
 />
    <glyph glyph-name="uni0010" horiz-adv-x="1724" 
 />
    <glyph glyph-name="space" unicode=" " horiz-adv-x="498" 
 />
    <glyph glyph-name="exclam" unicode="!" horiz-adv-x="582" 
d="M341 382h-98l-3 1023h104zM229.5 8q-24.5 24 -24.5 59t24.5 59t61.5 24t61.5 -24t24.5 -59t-24.5 -59t-61.5 -24t-61.5 24z" />
    <glyph glyph-name="quotedbl" unicode="&#x22;" horiz-adv-x="535" 
d="M186 1007h-97v398h97v-398zM446 1007h-97v398h97v-398z" />
    <glyph glyph-name="numbersign" unicode="#" horiz-adv-x="1176" 
d="M288 4h-99l69 385h-238l1 85h252l69 376h-254l1 84h266l85 468h96l-83 -468h379l86 468h96l-85 -468h227l-1 -84h-239l-69 -376h238v-85h-252l-69 -385h-98l69 385h-378zM439 850l-68 -376h378l69 376h-379z" />
    <glyph glyph-name="dollar" unicode="$" horiz-adv-x="1151" 
d="M1020.5 173q-60.5 -87 -163.5 -134.5t-230 -54.5v-210h-104v212q-142 12 -268.5 72.5t-209.5 162.5l69 68q83 -100 211.5 -153.5t265.5 -53.5q107 0 194.5 33.5t139 100.5t51.5 162q0 93 -56 149.5t-139 87t-232 68.5q-141 35 -233.5 72.5t-155.5 110t-63 190.5
q0 102 55 181t152 126.5t219 56.5v222h104v-222q115 -8 222.5 -50.5t187.5 -115.5l-63 -73q-76 68 -179.5 105.5t-211.5 37.5q-103 0 -190.5 -32.5t-139.5 -94t-52 -144.5q0 -86 51.5 -138.5t128.5 -81t212 -62.5q160 -43 257.5 -82.5t164 -114t66.5 -195.5
q0 -119 -60.5 -206z" />
    <glyph glyph-name="percent" unicode="%" horiz-adv-x="1802" 
 />
    <glyph glyph-name="ampersand" unicode="&#x26;" horiz-adv-x="1329" 
d="M1276 0h-122l-123 178q-79 -98 -187 -150.5t-237 -52.5q-146 0 -261 63.5t-179.5 176t-64.5 253.5q0 124 50 227.5t138 173t200 94.5l-245 355v87h792v-98h-654l644 -943q74 156 74 377v32l103 1q2 -148 -26.5 -276t-85.5 -229zM808.5 128q94.5 48 161.5 139l-419 608
q-104 -11 -182.5 -62t-121 -137t-42.5 -198q0 -119 53.5 -209.5t143.5 -139.5t197 -49q115 0 209.5 48z" />
    <glyph glyph-name="quotesingle" unicode="'" horiz-adv-x="275" 
d="M186 1007h-97v398h97v-398z" />
    <glyph glyph-name="parenleft" unicode="(" horiz-adv-x="535" 
d="M449 -416q-347 332 -347 971q0 311 83 557.5t264 419.5l66 -62q-148 -135 -229.5 -370t-81.5 -544q0 -306 81.5 -540t229.5 -369z" />
    <glyph glyph-name="parenright" unicode=")" horiz-adv-x="535" 
d="M20 -353q148 135 229.5 369t81.5 540q0 309 -81.5 544t-229.5 370l66 62q181 -173 264 -419.5t83 -557.5q0 -639 -347 -971z" />
    <glyph glyph-name="asterisk" unicode="*" horiz-adv-x="836" 
d="M734 1174v-70l-260 2l133 -223l-61 -36l-126 226l-128 -225l-61 37l133 221l-262 -2v71l261 -3l-131 225l61 35l127 -227l129 226l60 -35l-133 -224z" />
    <glyph glyph-name="plus" unicode="+" horiz-adv-x="1078" 
d="M581 228h-87v398h-392v85h392v392h87v-392h395v-85h-395v-398z" />
    <glyph glyph-name="comma" unicode="," horiz-adv-x="387" 
d="M102 -180q97 89 97 160v5q-35 0 -60.5 23t-25.5 57q0 37 24.5 59.5t60.5 22.5q38 0 62 -22.5t24 -73.5q0 -78 -31 -144t-102 -132z" />
    <glyph glyph-name="hyphen" unicode="-" horiz-adv-x="797" 
d="M695 470h-593v94h593v-94z" />
    <glyph glyph-name="period" unicode="." horiz-adv-x="377" 
d="M126.5 8q-24.5 24 -24.5 59t24.5 59t61.5 24t62 -24t25 -59t-25 -59t-62 -24t-61.5 24z" />
    <glyph glyph-name="slash" unicode="/" horiz-adv-x="829" 
d="M88 -263h-110l726 1774h110z" />
    <glyph glyph-name="zero" unicode="0" horiz-adv-x="2723" 
d="M2684 924v-386h-2508v386h972q5 73 44 133.5t101.5 95.5t136.5 35t136.5 -35t101.5 -95.5t44 -133.5h972zM1600 1094q-76 66 -170 66q-48 0 -92 -17.5t-78 -48.5h340zM1626 742q58 71 58 162q0 96 -64 170l-332 -332h338zM1232 1066q-58 -71 -58 -162q0 -48 17.5 -92
t48.5 -78l334 332h-342zM1958 642.5q38 36.5 38 91.5q0 54 -38 90t-94 36t-93 -36t-37 -90q0 -55 37 -91.5t93 -36.5t94 36.5zM358 784h56v70h-192v-70h58v-172h78v172zM552 612h82l-42 92q28 25 28 64q0 37 -27 61.5t-65 24.5h-100v-242h78v70h16zM646 612h76v242h-76v-242
zM896 650l10 -38h84l-82 242h-90l-82 -242h82l10 38h68zM1004 612h164v66h-86v176h-78v-242zM2164 612h80v242h-78v-128l-74 128h-80v-242h78l-2 118zM2268 612h164v66h-86v176h-78v-242zM2554 612v96l82 146h-90l-32 -72l-30 72h-92l84 -146v-96h78zM1903 774
q15 -16 15 -40q0 -26 -15 -42t-39 -16q-23 0 -38.5 16.5t-15.5 41.5q0 24 15.5 40t38.5 16q24 0 39 -16zM526 788q6 0 11 -6t5 -14q0 -9 -5 -15.5t-11 -6.5h-20v42h20zM844 714l16 58h2l16 -58h-34zM1260 714q74 -64 170 -64q47 0 91 17t79 47h-340zM1142 352q25 -14 52 -14
q22 0 37 12t15 34q0 15 -12 25t-34 19q-18 6 -25 10.5t-7 15.5q0 10 8 16t20 6q10 0 21 -4t19 -10v26q-20 10 -40 10q-23 0 -37.5 -11.5t-14.5 -32.5q0 -19 10.5 -27.5t33.5 -18.5q18 -5 26 -10t8 -14q0 -12 -8 -18t-20 -6q-27 0 -52 18v-26zM1343 361q23 -23 57 -23
q33 0 56.5 23t23.5 57q0 33 -23.5 56.5t-56.5 23.5q-34 0 -57 -23.5t-23 -56.5q0 -34 23 -57zM1638 336v158h-24v-108l-98 110h-12v-156h24v104l98 -108h12zM274 494h-100v-154h24v58h66v22h-66v52h76v22zM294 400q0 -27 17.5 -44.5t44.5 -17.5q28 0 46 17.5t18 44.5v94h-24
v-94q0 -16 -11.5 -28t-28.5 -12t-27.5 11t-10.5 29v94h-24v-94zM474 494h-24v-154h94v22h-70v132zM590 494h-24v-154h96v22h-72v132zM806 340l64 154h-28l-44 -114l-44 114h-28l64 -154h16zM990 494h-100v-154h100v22h-76v46h66v20h-66v44h76v22zM1102 340h28l-30 62
q11 6 17.5 17.5t6.5 24.5q0 21 -14.5 35.5t-35.5 14.5h-58v-154h24v56h36zM1294 494h-24v-154h24v154zM1438.5 376.5q-15.5 -16.5 -38.5 -16.5q-24 0 -40 16.5t-16 41.5q0 24 16 40t40 16q23 0 38.5 -16t15.5 -40q0 -25 -15.5 -41.5zM1092.5 424q-7.5 -8 -18.5 -8h-34v56h34
q11 0 18.5 -8t7.5 -20t-7.5 -20zM2612 366l50 48l-50 48l-16 -14l26 -22h-916v-24h916l-26 -22zM1134 107.5q34 -33.5 84 -33.5q51 0 84.5 33t33.5 83q0 48 -33.5 81t-84.5 33q-50 0 -84 -33t-34 -81q0 -49 34 -82.5zM1754 94q31 -20 76 -20q39 0 63.5 19.5t24.5 54.5
q0 53 -72 70q-5 2 -13.5 4t-11.5 4.5t-3 7.5q0 8 22 8q14 0 32.5 -6t31.5 -16v68q-35 16 -64 16q-41 0 -65.5 -18t-24.5 -50q0 -28 15 -43.5t49 -26.5q7 -2 16 -4.5t13.5 -5.5t4.5 -8q0 -12 -18 -12q-26 0 -76 32v-74zM2044 107.5q34 -33.5 82 -33.5q24 0 52 14l2 70
q-20 -20 -50 -20q-21 0 -35.5 15t-14.5 37q0 21 14.5 35.5t35.5 14.5t44 -14v66q-21 12 -46 12q-50 0 -84 -33t-34 -81q0 -49 34 -82.5zM2220.5 107.5q34.5 -33.5 85.5 -33.5q50 0 84 33.5t34 82.5q0 48 -34 81t-84 33q-51 0 -85.5 -33t-34.5 -81q0 -49 34.5 -82.5zM176 236
h72l-82 -156h190v62h-76l82 156h-186v-62zM534 298h-158v-218h160v60h-90v20h76v60h-76v18h88v60zM544 236h52v-156h70v156h52v62h-174v-62zM776 114h62l8 -34h76l-74 218h-80l-74 -218h72zM1092 298h-158v-218h70v68h74v58h-74v32h88v60zM1560 80v218h-70v-116l-66 116h-72
v-218h70l-2 106l68 -106h72zM1572 236h52v-156h70v156h50v62h-172v-62zM2508 298h-70v-218h70v86l28 -54h50l28 54v-86h68v218h-70l-52 -100zM1252.5 152.5q-13.5 -14.5 -34.5 -14.5t-34.5 14.5t-13.5 37.5q0 21 13.5 35.5t34.5 14.5t34.5 -14.5t13.5 -35.5
q0 -23 -13.5 -37.5zM2340 153q-14 -15 -34 -15q-21 0 -35.5 15t-14.5 37q0 21 14.5 35.5t35.5 14.5q20 0 34 -14.5t14 -35.5q0 -22 -14 -37zM808 224l14 -52h-30l14 52h2zM1938 84q10 -10 26 -10q15 0 24.5 10t9.5 24t-9.5 23t-24.5 9q-16 0 -26 -9t-10 -23t10 -24z" />
    <glyph glyph-name="one" unicode="1" horiz-adv-x="2757" 
d="M2684 924v-386h-2508v386h972q5 73 44 133.5t101.5 95.5t136.5 35t136.5 -35t101.5 -95.5t44 -133.5h972zM1600 1094q-76 66 -170 66q-48 0 -92 -17.5t-78 -48.5h340zM1626 742q58 71 58 162q0 96 -64 170l-332 -332h338zM1232 1066q-58 -71 -58 -162q0 -48 17.5 -92
t48.5 -78l334 332h-342zM1958 642.5q38 36.5 38 91.5q0 54 -38 90t-94 36t-93 -36t-37 -90q0 -55 37 -91.5t93 -36.5t94 36.5zM358 784h56v70h-192v-70h58v-172h78v172zM552 612h82l-42 92q28 25 28 64q0 37 -27 61.5t-65 24.5h-100v-242h78v70h16zM646 612h76v242h-76v-242
zM896 650l10 -38h84l-82 242h-90l-82 -242h82l10 38h68zM1004 612h164v66h-86v176h-78v-242zM2164 612h80v242h-78v-128l-74 128h-80v-242h78l-2 118zM2268 612h164v66h-86v176h-78v-242zM2554 612v96l82 146h-90l-32 -72l-30 72h-92l84 -146v-96h78zM1903 774
q15 -16 15 -40q0 -26 -15 -42t-39 -16q-23 0 -38.5 16.5t-15.5 41.5q0 24 15.5 40t38.5 16q24 0 39 -16zM526 788q6 0 11 -6t5 -14q0 -9 -5 -15.5t-11 -6.5h-20v42h20zM844 714l16 58h2l16 -58h-34zM1260 714q74 -64 170 -64q47 0 91 17t79 47h-340zM1142 352q25 -14 52 -14
q22 0 37 12t15 34q0 15 -12 25t-34 19q-18 6 -25 10.5t-7 15.5q0 10 8 16t20 6q10 0 21 -4t19 -10v26q-20 10 -40 10q-23 0 -37.5 -11.5t-14.5 -32.5q0 -19 10.5 -27.5t33.5 -18.5q18 -5 26 -10t8 -14q0 -12 -8 -18t-20 -6q-27 0 -52 18v-26zM1343 361q23 -23 57 -23
q33 0 56.5 23t23.5 57q0 33 -23.5 56.5t-56.5 23.5q-34 0 -57 -23.5t-23 -56.5q0 -34 23 -57zM1638 336v158h-24v-108l-98 110h-12v-156h24v104l98 -108h12zM274 494h-100v-154h24v58h66v22h-66v52h76v22zM294 400q0 -27 17.5 -44.5t44.5 -17.5q28 0 46 17.5t18 44.5v94h-24
v-94q0 -16 -11.5 -28t-28.5 -12t-27.5 11t-10.5 29v94h-24v-94zM474 494h-24v-154h94v22h-70v132zM590 494h-24v-154h96v22h-72v132zM806 340l64 154h-28l-44 -114l-44 114h-28l64 -154h16zM990 494h-100v-154h100v22h-76v46h66v20h-66v44h76v22zM1102 340h28l-30 62
q11 6 17.5 17.5t6.5 24.5q0 21 -14.5 35.5t-35.5 14.5h-58v-154h24v56h36zM1294 494h-24v-154h24v154zM1438.5 376.5q-15.5 -16.5 -38.5 -16.5q-24 0 -40 16.5t-16 41.5q0 24 16 40t40 16q23 0 38.5 -16t15.5 -40q0 -25 -15.5 -41.5zM1092.5 424q-7.5 -8 -18.5 -8h-34v56h34
q11 0 18.5 -8t7.5 -20t-7.5 -20zM2612 366l50 48l-50 48l-16 -14l26 -22h-916v-24h916l-26 -22zM1134 107.5q34 -33.5 84 -33.5q51 0 84.5 33t33.5 83q0 48 -33.5 81t-84.5 33q-50 0 -84 -33t-34 -81q0 -49 34 -82.5zM1754 94q31 -20 76 -20q39 0 63.5 19.5t24.5 54.5
q0 53 -72 70q-5 2 -13.5 4t-11.5 4.5t-3 7.5q0 8 22 8q14 0 32.5 -6t31.5 -16v68q-35 16 -64 16q-41 0 -65.5 -18t-24.5 -50q0 -28 15 -43.5t49 -26.5q7 -2 16 -4.5t13.5 -5.5t4.5 -8q0 -12 -18 -12q-26 0 -76 32v-74zM2044 107.5q34 -33.5 82 -33.5q24 0 52 14l2 70
q-20 -20 -50 -20q-21 0 -35.5 15t-14.5 37q0 21 14.5 35.5t35.5 14.5t44 -14v66q-21 12 -46 12q-50 0 -84 -33t-34 -81q0 -49 34 -82.5zM2220.5 107.5q34.5 -33.5 85.5 -33.5q50 0 84 33.5t34 82.5q0 48 -34 81t-84 33q-51 0 -85.5 -33t-34.5 -81q0 -49 34.5 -82.5zM176 236
h72l-82 -156h190v62h-76l82 156h-186v-62zM534 298h-158v-218h160v60h-90v20h76v60h-76v18h88v60zM544 236h52v-156h70v156h52v62h-174v-62zM776 114h62l8 -34h76l-74 218h-80l-74 -218h72zM1092 298h-158v-218h70v68h74v58h-74v32h88v60zM1560 80v218h-70v-116l-66 116h-72
v-218h70l-2 106l68 -106h72zM1572 236h52v-156h70v156h50v62h-172v-62zM2508 298h-70v-218h70v86l28 -54h50l28 54v-86h68v218h-70l-52 -100zM1252.5 152.5q-13.5 -14.5 -34.5 -14.5t-34.5 14.5t-13.5 37.5q0 21 13.5 35.5t34.5 14.5t34.5 -14.5t13.5 -35.5
q0 -23 -13.5 -37.5zM2340 153q-14 -15 -34 -15q-21 0 -35.5 15t-14.5 37q0 21 14.5 35.5t35.5 14.5q20 0 34 -14.5t14 -35.5q0 -22 -14 -37zM808 224l14 -52h-30l14 52h2zM1938 84q10 -10 26 -10q15 0 24.5 10t9.5 24t-9.5 23t-24.5 9q-16 0 -26 -9t-10 -23t10 -24z" />
    <glyph glyph-name="two" unicode="2" horiz-adv-x="2553" 
d="M2684 924v-386h-2508v386h972q5 73 44 133.5t101.5 95.5t136.5 35t136.5 -35t101.5 -95.5t44 -133.5h972zM1600 1094q-76 66 -170 66q-48 0 -92 -17.5t-78 -48.5h340zM1626 742q58 71 58 162q0 96 -64 170l-332 -332h338zM1232 1066q-58 -71 -58 -162q0 -48 17.5 -92
t48.5 -78l334 332h-342zM1958 642.5q38 36.5 38 91.5q0 54 -38 90t-94 36t-93 -36t-37 -90q0 -55 37 -91.5t93 -36.5t94 36.5zM358 784h56v70h-192v-70h58v-172h78v172zM552 612h82l-42 92q28 25 28 64q0 37 -27 61.5t-65 24.5h-100v-242h78v70h16zM646 612h76v242h-76v-242
zM896 650l10 -38h84l-82 242h-90l-82 -242h82l10 38h68zM1004 612h164v66h-86v176h-78v-242zM2164 612h80v242h-78v-128l-74 128h-80v-242h78l-2 118zM2268 612h164v66h-86v176h-78v-242zM2554 612v96l82 146h-90l-32 -72l-30 72h-92l84 -146v-96h78zM1903 774
q15 -16 15 -40q0 -26 -15 -42t-39 -16q-23 0 -38.5 16.5t-15.5 41.5q0 24 15.5 40t38.5 16q24 0 39 -16zM526 788q6 0 11 -6t5 -14q0 -9 -5 -15.5t-11 -6.5h-20v42h20zM844 714l16 58h2l16 -58h-34zM1260 714q74 -64 170 -64q47 0 91 17t79 47h-340zM1142 352q25 -14 52 -14
q22 0 37 12t15 34q0 15 -12 25t-34 19q-18 6 -25 10.5t-7 15.5q0 10 8 16t20 6q10 0 21 -4t19 -10v26q-20 10 -40 10q-23 0 -37.5 -11.5t-14.5 -32.5q0 -19 10.5 -27.5t33.5 -18.5q18 -5 26 -10t8 -14q0 -12 -8 -18t-20 -6q-27 0 -52 18v-26zM1343 361q23 -23 57 -23
q33 0 56.5 23t23.5 57q0 33 -23.5 56.5t-56.5 23.5q-34 0 -57 -23.5t-23 -56.5q0 -34 23 -57zM1638 336v158h-24v-108l-98 110h-12v-156h24v104l98 -108h12zM274 494h-100v-154h24v58h66v22h-66v52h76v22zM294 400q0 -27 17.5 -44.5t44.5 -17.5q28 0 46 17.5t18 44.5v94h-24
v-94q0 -16 -11.5 -28t-28.5 -12t-27.5 11t-10.5 29v94h-24v-94zM474 494h-24v-154h94v22h-70v132zM590 494h-24v-154h96v22h-72v132zM806 340l64 154h-28l-44 -114l-44 114h-28l64 -154h16zM990 494h-100v-154h100v22h-76v46h66v20h-66v44h76v22zM1102 340h28l-30 62
q11 6 17.5 17.5t6.5 24.5q0 21 -14.5 35.5t-35.5 14.5h-58v-154h24v56h36zM1294 494h-24v-154h24v154zM1438.5 376.5q-15.5 -16.5 -38.5 -16.5q-24 0 -40 16.5t-16 41.5q0 24 16 40t40 16q23 0 38.5 -16t15.5 -40q0 -25 -15.5 -41.5zM1092.5 424q-7.5 -8 -18.5 -8h-34v56h34
q11 0 18.5 -8t7.5 -20t-7.5 -20zM2612 366l50 48l-50 48l-16 -14l26 -22h-916v-24h916l-26 -22zM1134 107.5q34 -33.5 84 -33.5q51 0 84.5 33t33.5 83q0 48 -33.5 81t-84.5 33q-50 0 -84 -33t-34 -81q0 -49 34 -82.5zM1754 94q31 -20 76 -20q39 0 63.5 19.5t24.5 54.5
q0 53 -72 70q-5 2 -13.5 4t-11.5 4.5t-3 7.5q0 8 22 8q14 0 32.5 -6t31.5 -16v68q-35 16 -64 16q-41 0 -65.5 -18t-24.5 -50q0 -28 15 -43.5t49 -26.5q7 -2 16 -4.5t13.5 -5.5t4.5 -8q0 -12 -18 -12q-26 0 -76 32v-74zM2044 107.5q34 -33.5 82 -33.5q24 0 52 14l2 70
q-20 -20 -50 -20q-21 0 -35.5 15t-14.5 37q0 21 14.5 35.5t35.5 14.5t44 -14v66q-21 12 -46 12q-50 0 -84 -33t-34 -81q0 -49 34 -82.5zM2220.5 107.5q34.5 -33.5 85.5 -33.5q50 0 84 33.5t34 82.5q0 48 -34 81t-84 33q-51 0 -85.5 -33t-34.5 -81q0 -49 34.5 -82.5zM176 236
h72l-82 -156h190v62h-76l82 156h-186v-62zM534 298h-158v-218h160v60h-90v20h76v60h-76v18h88v60zM544 236h52v-156h70v156h52v62h-174v-62zM776 114h62l8 -34h76l-74 218h-80l-74 -218h72zM1092 298h-158v-218h70v68h74v58h-74v32h88v60zM1560 80v218h-70v-116l-66 116h-72
v-218h70l-2 106l68 -106h72zM1572 236h52v-156h70v156h50v62h-172v-62zM2508 298h-70v-218h70v86l28 -54h50l28 54v-86h68v218h-70l-52 -100zM1252.5 152.5q-13.5 -14.5 -34.5 -14.5t-34.5 14.5t-13.5 37.5q0 21 13.5 35.5t34.5 14.5t34.5 -14.5t13.5 -35.5
q0 -23 -13.5 -37.5zM2340 153q-14 -15 -34 -15q-21 0 -35.5 15t-14.5 37q0 21 14.5 35.5t35.5 14.5q20 0 34 -14.5t14 -35.5q0 -22 -14 -37zM808 224l14 -52h-30l14 52h2zM1938 84q10 -10 26 -10q15 0 24.5 10t9.5 24t-9.5 23t-24.5 9q-16 0 -26 -9t-10 -23t10 -24z" />
    <glyph glyph-name="three" unicode="3" horiz-adv-x="2517" 
d="M2684 924v-386h-2508v386h972q5 73 44 133.5t101.5 95.5t136.5 35t136.5 -35t101.5 -95.5t44 -133.5h972zM1600 1094q-76 66 -170 66q-48 0 -92 -17.5t-78 -48.5h340zM1626 742q58 71 58 162q0 96 -64 170l-332 -332h338zM1232 1066q-58 -71 -58 -162q0 -48 17.5 -92
t48.5 -78l334 332h-342zM1958 642.5q38 36.5 38 91.5q0 54 -38 90t-94 36t-93 -36t-37 -90q0 -55 37 -91.5t93 -36.5t94 36.5zM358 784h56v70h-192v-70h58v-172h78v172zM552 612h82l-42 92q28 25 28 64q0 37 -27 61.5t-65 24.5h-100v-242h78v70h16zM646 612h76v242h-76v-242
zM896 650l10 -38h84l-82 242h-90l-82 -242h82l10 38h68zM1004 612h164v66h-86v176h-78v-242zM2164 612h80v242h-78v-128l-74 128h-80v-242h78l-2 118zM2268 612h164v66h-86v176h-78v-242zM2554 612v96l82 146h-90l-32 -72l-30 72h-92l84 -146v-96h78zM1903 774
q15 -16 15 -40q0 -26 -15 -42t-39 -16q-23 0 -38.5 16.5t-15.5 41.5q0 24 15.5 40t38.5 16q24 0 39 -16zM526 788q6 0 11 -6t5 -14q0 -9 -5 -15.5t-11 -6.5h-20v42h20zM844 714l16 58h2l16 -58h-34zM1260 714q74 -64 170 -64q47 0 91 17t79 47h-340zM1142 352q25 -14 52 -14
q22 0 37 12t15 34q0 15 -12 25t-34 19q-18 6 -25 10.5t-7 15.5q0 10 8 16t20 6q10 0 21 -4t19 -10v26q-20 10 -40 10q-23 0 -37.5 -11.5t-14.5 -32.5q0 -19 10.5 -27.5t33.5 -18.5q18 -5 26 -10t8 -14q0 -12 -8 -18t-20 -6q-27 0 -52 18v-26zM1343 361q23 -23 57 -23
q33 0 56.5 23t23.5 57q0 33 -23.5 56.5t-56.5 23.5q-34 0 -57 -23.5t-23 -56.5q0 -34 23 -57zM1638 336v158h-24v-108l-98 110h-12v-156h24v104l98 -108h12zM274 494h-100v-154h24v58h66v22h-66v52h76v22zM294 400q0 -27 17.5 -44.5t44.5 -17.5q28 0 46 17.5t18 44.5v94h-24
v-94q0 -16 -11.5 -28t-28.5 -12t-27.5 11t-10.5 29v94h-24v-94zM474 494h-24v-154h94v22h-70v132zM590 494h-24v-154h96v22h-72v132zM806 340l64 154h-28l-44 -114l-44 114h-28l64 -154h16zM990 494h-100v-154h100v22h-76v46h66v20h-66v44h76v22zM1102 340h28l-30 62
q11 6 17.5 17.5t6.5 24.5q0 21 -14.5 35.5t-35.5 14.5h-58v-154h24v56h36zM1294 494h-24v-154h24v154zM1438.5 376.5q-15.5 -16.5 -38.5 -16.5q-24 0 -40 16.5t-16 41.5q0 24 16 40t40 16q23 0 38.5 -16t15.5 -40q0 -25 -15.5 -41.5zM1092.5 424q-7.5 -8 -18.5 -8h-34v56h34
q11 0 18.5 -8t7.5 -20t-7.5 -20zM2612 366l50 48l-50 48l-16 -14l26 -22h-916v-24h916l-26 -22zM1134 107.5q34 -33.5 84 -33.5q51 0 84.5 33t33.5 83q0 48 -33.5 81t-84.5 33q-50 0 -84 -33t-34 -81q0 -49 34 -82.5zM1754 94q31 -20 76 -20q39 0 63.5 19.5t24.5 54.5
q0 53 -72 70q-5 2 -13.5 4t-11.5 4.5t-3 7.5q0 8 22 8q14 0 32.5 -6t31.5 -16v68q-35 16 -64 16q-41 0 -65.5 -18t-24.5 -50q0 -28 15 -43.5t49 -26.5q7 -2 16 -4.5t13.5 -5.5t4.5 -8q0 -12 -18 -12q-26 0 -76 32v-74zM2044 107.5q34 -33.5 82 -33.5q24 0 52 14l2 70
q-20 -20 -50 -20q-21 0 -35.5 15t-14.5 37q0 21 14.5 35.5t35.5 14.5t44 -14v66q-21 12 -46 12q-50 0 -84 -33t-34 -81q0 -49 34 -82.5zM2220.5 107.5q34.5 -33.5 85.5 -33.5q50 0 84 33.5t34 82.5q0 48 -34 81t-84 33q-51 0 -85.5 -33t-34.5 -81q0 -49 34.5 -82.5zM176 236
h72l-82 -156h190v62h-76l82 156h-186v-62zM534 298h-158v-218h160v60h-90v20h76v60h-76v18h88v60zM544 236h52v-156h70v156h52v62h-174v-62zM776 114h62l8 -34h76l-74 218h-80l-74 -218h72zM1092 298h-158v-218h70v68h74v58h-74v32h88v60zM1560 80v218h-70v-116l-66 116h-72
v-218h70l-2 106l68 -106h72zM1572 236h52v-156h70v156h50v62h-172v-62zM2508 298h-70v-218h70v86l28 -54h50l28 54v-86h68v218h-70l-52 -100zM1252.5 152.5q-13.5 -14.5 -34.5 -14.5t-34.5 14.5t-13.5 37.5q0 21 13.5 35.5t34.5 14.5t34.5 -14.5t13.5 -35.5
q0 -23 -13.5 -37.5zM2340 153q-14 -15 -34 -15q-21 0 -35.5 15t-14.5 37q0 21 14.5 35.5t35.5 14.5q20 0 34 -14.5t14 -35.5q0 -22 -14 -37zM808 224l14 -52h-30l14 52h2zM1938 84q10 -10 26 -10q15 0 24.5 10t9.5 24t-9.5 23t-24.5 9q-16 0 -26 -9t-10 -23t10 -24z" />
    <glyph glyph-name="four" unicode="4" horiz-adv-x="2409" 
d="M2684 924v-386h-2508v386h972q5 73 44 133.5t101.5 95.5t136.5 35t136.5 -35t101.5 -95.5t44 -133.5h972zM1600 1094q-76 66 -170 66q-48 0 -92 -17.5t-78 -48.5h340zM1626 742q58 71 58 162q0 96 -64 170l-332 -332h338zM1232 1066q-58 -71 -58 -162q0 -48 17.5 -92
t48.5 -78l334 332h-342zM1958 642.5q38 36.5 38 91.5q0 54 -38 90t-94 36t-93 -36t-37 -90q0 -55 37 -91.5t93 -36.5t94 36.5zM358 784h56v70h-192v-70h58v-172h78v172zM552 612h82l-42 92q28 25 28 64q0 37 -27 61.5t-65 24.5h-100v-242h78v70h16zM646 612h76v242h-76v-242
zM896 650l10 -38h84l-82 242h-90l-82 -242h82l10 38h68zM1004 612h164v66h-86v176h-78v-242zM2164 612h80v242h-78v-128l-74 128h-80v-242h78l-2 118zM2268 612h164v66h-86v176h-78v-242zM2554 612v96l82 146h-90l-32 -72l-30 72h-92l84 -146v-96h78zM1903 774
q15 -16 15 -40q0 -26 -15 -42t-39 -16q-23 0 -38.5 16.5t-15.5 41.5q0 24 15.5 40t38.5 16q24 0 39 -16zM526 788q6 0 11 -6t5 -14q0 -9 -5 -15.5t-11 -6.5h-20v42h20zM844 714l16 58h2l16 -58h-34zM1260 714q74 -64 170 -64q47 0 91 17t79 47h-340zM1142 352q25 -14 52 -14
q22 0 37 12t15 34q0 15 -12 25t-34 19q-18 6 -25 10.5t-7 15.5q0 10 8 16t20 6q10 0 21 -4t19 -10v26q-20 10 -40 10q-23 0 -37.5 -11.5t-14.5 -32.5q0 -19 10.5 -27.5t33.5 -18.5q18 -5 26 -10t8 -14q0 -12 -8 -18t-20 -6q-27 0 -52 18v-26zM1343 361q23 -23 57 -23
q33 0 56.5 23t23.5 57q0 33 -23.5 56.5t-56.5 23.5q-34 0 -57 -23.5t-23 -56.5q0 -34 23 -57zM1638 336v158h-24v-108l-98 110h-12v-156h24v104l98 -108h12zM274 494h-100v-154h24v58h66v22h-66v52h76v22zM294 400q0 -27 17.5 -44.5t44.5 -17.5q28 0 46 17.5t18 44.5v94h-24
v-94q0 -16 -11.5 -28t-28.5 -12t-27.5 11t-10.5 29v94h-24v-94zM474 494h-24v-154h94v22h-70v132zM590 494h-24v-154h96v22h-72v132zM806 340l64 154h-28l-44 -114l-44 114h-28l64 -154h16zM990 494h-100v-154h100v22h-76v46h66v20h-66v44h76v22zM1102 340h28l-30 62
q11 6 17.5 17.5t6.5 24.5q0 21 -14.5 35.5t-35.5 14.5h-58v-154h24v56h36zM1294 494h-24v-154h24v154zM1438.5 376.5q-15.5 -16.5 -38.5 -16.5q-24 0 -40 16.5t-16 41.5q0 24 16 40t40 16q23 0 38.5 -16t15.5 -40q0 -25 -15.5 -41.5zM1092.5 424q-7.5 -8 -18.5 -8h-34v56h34
q11 0 18.5 -8t7.5 -20t-7.5 -20zM2612 366l50 48l-50 48l-16 -14l26 -22h-916v-24h916l-26 -22zM1134 107.5q34 -33.5 84 -33.5q51 0 84.5 33t33.5 83q0 48 -33.5 81t-84.5 33q-50 0 -84 -33t-34 -81q0 -49 34 -82.5zM1754 94q31 -20 76 -20q39 0 63.5 19.5t24.5 54.5
q0 53 -72 70q-5 2 -13.5 4t-11.5 4.5t-3 7.5q0 8 22 8q14 0 32.5 -6t31.5 -16v68q-35 16 -64 16q-41 0 -65.5 -18t-24.5 -50q0 -28 15 -43.5t49 -26.5q7 -2 16 -4.5t13.5 -5.5t4.5 -8q0 -12 -18 -12q-26 0 -76 32v-74zM2044 107.5q34 -33.5 82 -33.5q24 0 52 14l2 70
q-20 -20 -50 -20q-21 0 -35.5 15t-14.5 37q0 21 14.5 35.5t35.5 14.5t44 -14v66q-21 12 -46 12q-50 0 -84 -33t-34 -81q0 -49 34 -82.5zM2220.5 107.5q34.5 -33.5 85.5 -33.5q50 0 84 33.5t34 82.5q0 48 -34 81t-84 33q-51 0 -85.5 -33t-34.5 -81q0 -49 34.5 -82.5zM176 236
h72l-82 -156h190v62h-76l82 156h-186v-62zM534 298h-158v-218h160v60h-90v20h76v60h-76v18h88v60zM544 236h52v-156h70v156h52v62h-174v-62zM776 114h62l8 -34h76l-74 218h-80l-74 -218h72zM1092 298h-158v-218h70v68h74v58h-74v32h88v60zM1560 80v218h-70v-116l-66 116h-72
v-218h70l-2 106l68 -106h72zM1572 236h52v-156h70v156h50v62h-172v-62zM2508 298h-70v-218h70v86l28 -54h50l28 54v-86h68v218h-70l-52 -100zM1252.5 152.5q-13.5 -14.5 -34.5 -14.5t-34.5 14.5t-13.5 37.5q0 21 13.5 35.5t34.5 14.5t34.5 -14.5t13.5 -35.5
q0 -23 -13.5 -37.5zM2340 153q-14 -15 -34 -15q-21 0 -35.5 15t-14.5 37q0 21 14.5 35.5t35.5 14.5q20 0 34 -14.5t14 -35.5q0 -22 -14 -37zM808 224l14 -52h-30l14 52h2zM1938 84q10 -10 26 -10q15 0 24.5 10t9.5 24t-9.5 23t-24.5 9q-16 0 -26 -9t-10 -23t10 -24z" />
    <glyph glyph-name="five" unicode="5" horiz-adv-x="2504" 
d="M2684 924v-386h-2508v386h972q5 73 44 133.5t101.5 95.5t136.5 35t136.5 -35t101.5 -95.5t44 -133.5h972zM1600 1094q-76 66 -170 66q-48 0 -92 -17.5t-78 -48.5h340zM1626 742q58 71 58 162q0 96 -64 170l-332 -332h338zM1232 1066q-58 -71 -58 -162q0 -48 17.5 -92
t48.5 -78l334 332h-342zM1958 642.5q38 36.5 38 91.5q0 54 -38 90t-94 36t-93 -36t-37 -90q0 -55 37 -91.5t93 -36.5t94 36.5zM358 784h56v70h-192v-70h58v-172h78v172zM552 612h82l-42 92q28 25 28 64q0 37 -27 61.5t-65 24.5h-100v-242h78v70h16zM646 612h76v242h-76v-242
zM896 650l10 -38h84l-82 242h-90l-82 -242h82l10 38h68zM1004 612h164v66h-86v176h-78v-242zM2164 612h80v242h-78v-128l-74 128h-80v-242h78l-2 118zM2268 612h164v66h-86v176h-78v-242zM2554 612v96l82 146h-90l-32 -72l-30 72h-92l84 -146v-96h78zM1903 774
q15 -16 15 -40q0 -26 -15 -42t-39 -16q-23 0 -38.5 16.5t-15.5 41.5q0 24 15.5 40t38.5 16q24 0 39 -16zM526 788q6 0 11 -6t5 -14q0 -9 -5 -15.5t-11 -6.5h-20v42h20zM844 714l16 58h2l16 -58h-34zM1260 714q74 -64 170 -64q47 0 91 17t79 47h-340zM1142 352q25 -14 52 -14
q22 0 37 12t15 34q0 15 -12 25t-34 19q-18 6 -25 10.5t-7 15.5q0 10 8 16t20 6q10 0 21 -4t19 -10v26q-20 10 -40 10q-23 0 -37.5 -11.5t-14.5 -32.5q0 -19 10.5 -27.5t33.5 -18.5q18 -5 26 -10t8 -14q0 -12 -8 -18t-20 -6q-27 0 -52 18v-26zM1343 361q23 -23 57 -23
q33 0 56.5 23t23.5 57q0 33 -23.5 56.5t-56.5 23.5q-34 0 -57 -23.5t-23 -56.5q0 -34 23 -57zM1638 336v158h-24v-108l-98 110h-12v-156h24v104l98 -108h12zM274 494h-100v-154h24v58h66v22h-66v52h76v22zM294 400q0 -27 17.5 -44.5t44.5 -17.5q28 0 46 17.5t18 44.5v94h-24
v-94q0 -16 -11.5 -28t-28.5 -12t-27.5 11t-10.5 29v94h-24v-94zM474 494h-24v-154h94v22h-70v132zM590 494h-24v-154h96v22h-72v132zM806 340l64 154h-28l-44 -114l-44 114h-28l64 -154h16zM990 494h-100v-154h100v22h-76v46h66v20h-66v44h76v22zM1102 340h28l-30 62
q11 6 17.5 17.5t6.5 24.5q0 21 -14.5 35.5t-35.5 14.5h-58v-154h24v56h36zM1294 494h-24v-154h24v154zM1438.5 376.5q-15.5 -16.5 -38.5 -16.5q-24 0 -40 16.5t-16 41.5q0 24 16 40t40 16q23 0 38.5 -16t15.5 -40q0 -25 -15.5 -41.5zM1092.5 424q-7.5 -8 -18.5 -8h-34v56h34
q11 0 18.5 -8t7.5 -20t-7.5 -20zM2612 366l50 48l-50 48l-16 -14l26 -22h-916v-24h916l-26 -22zM1134 107.5q34 -33.5 84 -33.5q51 0 84.5 33t33.5 83q0 48 -33.5 81t-84.5 33q-50 0 -84 -33t-34 -81q0 -49 34 -82.5zM1754 94q31 -20 76 -20q39 0 63.5 19.5t24.5 54.5
q0 53 -72 70q-5 2 -13.5 4t-11.5 4.5t-3 7.5q0 8 22 8q14 0 32.5 -6t31.5 -16v68q-35 16 -64 16q-41 0 -65.5 -18t-24.5 -50q0 -28 15 -43.5t49 -26.5q7 -2 16 -4.5t13.5 -5.5t4.5 -8q0 -12 -18 -12q-26 0 -76 32v-74zM2044 107.5q34 -33.5 82 -33.5q24 0 52 14l2 70
q-20 -20 -50 -20q-21 0 -35.5 15t-14.5 37q0 21 14.5 35.5t35.5 14.5t44 -14v66q-21 12 -46 12q-50 0 -84 -33t-34 -81q0 -49 34 -82.5zM2220.5 107.5q34.5 -33.5 85.5 -33.5q50 0 84 33.5t34 82.5q0 48 -34 81t-84 33q-51 0 -85.5 -33t-34.5 -81q0 -49 34.5 -82.5zM176 236
h72l-82 -156h190v62h-76l82 156h-186v-62zM534 298h-158v-218h160v60h-90v20h76v60h-76v18h88v60zM544 236h52v-156h70v156h52v62h-174v-62zM776 114h62l8 -34h76l-74 218h-80l-74 -218h72zM1092 298h-158v-218h70v68h74v58h-74v32h88v60zM1560 80v218h-70v-116l-66 116h-72
v-218h70l-2 106l68 -106h72zM1572 236h52v-156h70v156h50v62h-172v-62zM2508 298h-70v-218h70v86l28 -54h50l28 54v-86h68v218h-70l-52 -100zM1252.5 152.5q-13.5 -14.5 -34.5 -14.5t-34.5 14.5t-13.5 37.5q0 21 13.5 35.5t34.5 14.5t34.5 -14.5t13.5 -35.5
q0 -23 -13.5 -37.5zM2340 153q-14 -15 -34 -15q-21 0 -35.5 15t-14.5 37q0 21 14.5 35.5t35.5 14.5q20 0 34 -14.5t14 -35.5q0 -22 -14 -37zM808 224l14 -52h-30l14 52h2zM1938 84q10 -10 26 -10q15 0 24.5 10t9.5 24t-9.5 23t-24.5 9q-16 0 -26 -9t-10 -23t10 -24z" />
    <glyph glyph-name="six" unicode="6" horiz-adv-x="2603" 
d="M2684 924v-386h-2508v386h972q5 73 44 133.5t101.5 95.5t136.5 35t136.5 -35t101.5 -95.5t44 -133.5h972zM1600 1094q-76 66 -170 66q-48 0 -92 -17.5t-78 -48.5h340zM1626 742q58 71 58 162q0 96 -64 170l-332 -332h338zM1232 1066q-58 -71 -58 -162q0 -48 17.5 -92
t48.5 -78l334 332h-342zM1958 642.5q38 36.5 38 91.5q0 54 -38 90t-94 36t-93 -36t-37 -90q0 -55 37 -91.5t93 -36.5t94 36.5zM358 784h56v70h-192v-70h58v-172h78v172zM552 612h82l-42 92q28 25 28 64q0 37 -27 61.5t-65 24.5h-100v-242h78v70h16zM646 612h76v242h-76v-242
zM896 650l10 -38h84l-82 242h-90l-82 -242h82l10 38h68zM1004 612h164v66h-86v176h-78v-242zM2164 612h80v242h-78v-128l-74 128h-80v-242h78l-2 118zM2268 612h164v66h-86v176h-78v-242zM2554 612v96l82 146h-90l-32 -72l-30 72h-92l84 -146v-96h78zM1903 774
q15 -16 15 -40q0 -26 -15 -42t-39 -16q-23 0 -38.5 16.5t-15.5 41.5q0 24 15.5 40t38.5 16q24 0 39 -16zM526 788q6 0 11 -6t5 -14q0 -9 -5 -15.5t-11 -6.5h-20v42h20zM844 714l16 58h2l16 -58h-34zM1260 714q74 -64 170 -64q47 0 91 17t79 47h-340zM1142 352q25 -14 52 -14
q22 0 37 12t15 34q0 15 -12 25t-34 19q-18 6 -25 10.5t-7 15.5q0 10 8 16t20 6q10 0 21 -4t19 -10v26q-20 10 -40 10q-23 0 -37.5 -11.5t-14.5 -32.5q0 -19 10.5 -27.5t33.5 -18.5q18 -5 26 -10t8 -14q0 -12 -8 -18t-20 -6q-27 0 -52 18v-26zM1343 361q23 -23 57 -23
q33 0 56.5 23t23.5 57q0 33 -23.5 56.5t-56.5 23.5q-34 0 -57 -23.5t-23 -56.5q0 -34 23 -57zM1638 336v158h-24v-108l-98 110h-12v-156h24v104l98 -108h12zM274 494h-100v-154h24v58h66v22h-66v52h76v22zM294 400q0 -27 17.5 -44.5t44.5 -17.5q28 0 46 17.5t18 44.5v94h-24
v-94q0 -16 -11.5 -28t-28.5 -12t-27.5 11t-10.5 29v94h-24v-94zM474 494h-24v-154h94v22h-70v132zM590 494h-24v-154h96v22h-72v132zM806 340l64 154h-28l-44 -114l-44 114h-28l64 -154h16zM990 494h-100v-154h100v22h-76v46h66v20h-66v44h76v22zM1102 340h28l-30 62
q11 6 17.5 17.5t6.5 24.5q0 21 -14.5 35.5t-35.5 14.5h-58v-154h24v56h36zM1294 494h-24v-154h24v154zM1438.5 376.5q-15.5 -16.5 -38.5 -16.5q-24 0 -40 16.5t-16 41.5q0 24 16 40t40 16q23 0 38.5 -16t15.5 -40q0 -25 -15.5 -41.5zM1092.5 424q-7.5 -8 -18.5 -8h-34v56h34
q11 0 18.5 -8t7.5 -20t-7.5 -20zM2612 366l50 48l-50 48l-16 -14l26 -22h-916v-24h916l-26 -22zM1134 107.5q34 -33.5 84 -33.5q51 0 84.5 33t33.5 83q0 48 -33.5 81t-84.5 33q-50 0 -84 -33t-34 -81q0 -49 34 -82.5zM1754 94q31 -20 76 -20q39 0 63.5 19.5t24.5 54.5
q0 53 -72 70q-5 2 -13.5 4t-11.5 4.5t-3 7.5q0 8 22 8q14 0 32.5 -6t31.5 -16v68q-35 16 -64 16q-41 0 -65.5 -18t-24.5 -50q0 -28 15 -43.5t49 -26.5q7 -2 16 -4.5t13.5 -5.5t4.5 -8q0 -12 -18 -12q-26 0 -76 32v-74zM2044 107.5q34 -33.5 82 -33.5q24 0 52 14l2 70
q-20 -20 -50 -20q-21 0 -35.5 15t-14.5 37q0 21 14.5 35.5t35.5 14.5t44 -14v66q-21 12 -46 12q-50 0 -84 -33t-34 -81q0 -49 34 -82.5zM2220.5 107.5q34.5 -33.5 85.5 -33.5q50 0 84 33.5t34 82.5q0 48 -34 81t-84 33q-51 0 -85.5 -33t-34.5 -81q0 -49 34.5 -82.5zM176 236
h72l-82 -156h190v62h-76l82 156h-186v-62zM534 298h-158v-218h160v60h-90v20h76v60h-76v18h88v60zM544 236h52v-156h70v156h52v62h-174v-62zM776 114h62l8 -34h76l-74 218h-80l-74 -218h72zM1092 298h-158v-218h70v68h74v58h-74v32h88v60zM1560 80v218h-70v-116l-66 116h-72
v-218h70l-2 106l68 -106h72zM1572 236h52v-156h70v156h50v62h-172v-62zM2508 298h-70v-218h70v86l28 -54h50l28 54v-86h68v218h-70l-52 -100zM1252.5 152.5q-13.5 -14.5 -34.5 -14.5t-34.5 14.5t-13.5 37.5q0 21 13.5 35.5t34.5 14.5t34.5 -14.5t13.5 -35.5
q0 -23 -13.5 -37.5zM2340 153q-14 -15 -34 -15q-21 0 -35.5 15t-14.5 37q0 21 14.5 35.5t35.5 14.5q20 0 34 -14.5t14 -35.5q0 -22 -14 -37zM808 224l14 -52h-30l14 52h2zM1938 84q10 -10 26 -10q15 0 24.5 10t9.5 24t-9.5 23t-24.5 9q-16 0 -26 -9t-10 -23t10 -24z" />
    <glyph glyph-name="seven" unicode="7" horiz-adv-x="2411" 
d="M2684 924v-386h-2508v386h972q5 73 44 133.5t101.5 95.5t136.5 35t136.5 -35t101.5 -95.5t44 -133.5h972zM1600 1094q-76 66 -170 66q-48 0 -92 -17.5t-78 -48.5h340zM1626 742q58 71 58 162q0 96 -64 170l-332 -332h338zM1232 1066q-58 -71 -58 -162q0 -48 17.5 -92
t48.5 -78l334 332h-342zM1958 642.5q38 36.5 38 91.5q0 54 -38 90t-94 36t-93 -36t-37 -90q0 -55 37 -91.5t93 -36.5t94 36.5zM358 784h56v70h-192v-70h58v-172h78v172zM552 612h82l-42 92q28 25 28 64q0 37 -27 61.5t-65 24.5h-100v-242h78v70h16zM646 612h76v242h-76v-242
zM896 650l10 -38h84l-82 242h-90l-82 -242h82l10 38h68zM1004 612h164v66h-86v176h-78v-242zM2164 612h80v242h-78v-128l-74 128h-80v-242h78l-2 118zM2268 612h164v66h-86v176h-78v-242zM2554 612v96l82 146h-90l-32 -72l-30 72h-92l84 -146v-96h78zM1903 774
q15 -16 15 -40q0 -26 -15 -42t-39 -16q-23 0 -38.5 16.5t-15.5 41.5q0 24 15.5 40t38.5 16q24 0 39 -16zM526 788q6 0 11 -6t5 -14q0 -9 -5 -15.5t-11 -6.5h-20v42h20zM844 714l16 58h2l16 -58h-34zM1260 714q74 -64 170 -64q47 0 91 17t79 47h-340zM1142 352q25 -14 52 -14
q22 0 37 12t15 34q0 15 -12 25t-34 19q-18 6 -25 10.5t-7 15.5q0 10 8 16t20 6q10 0 21 -4t19 -10v26q-20 10 -40 10q-23 0 -37.5 -11.5t-14.5 -32.5q0 -19 10.5 -27.5t33.5 -18.5q18 -5 26 -10t8 -14q0 -12 -8 -18t-20 -6q-27 0 -52 18v-26zM1343 361q23 -23 57 -23
q33 0 56.5 23t23.5 57q0 33 -23.5 56.5t-56.5 23.5q-34 0 -57 -23.5t-23 -56.5q0 -34 23 -57zM1638 336v158h-24v-108l-98 110h-12v-156h24v104l98 -108h12zM274 494h-100v-154h24v58h66v22h-66v52h76v22zM294 400q0 -27 17.5 -44.5t44.5 -17.5q28 0 46 17.5t18 44.5v94h-24
v-94q0 -16 -11.5 -28t-28.5 -12t-27.5 11t-10.5 29v94h-24v-94zM474 494h-24v-154h94v22h-70v132zM590 494h-24v-154h96v22h-72v132zM806 340l64 154h-28l-44 -114l-44 114h-28l64 -154h16zM990 494h-100v-154h100v22h-76v46h66v20h-66v44h76v22zM1102 340h28l-30 62
q11 6 17.5 17.5t6.5 24.5q0 21 -14.5 35.5t-35.5 14.5h-58v-154h24v56h36zM1294 494h-24v-154h24v154zM1438.5 376.5q-15.5 -16.5 -38.5 -16.5q-24 0 -40 16.5t-16 41.5q0 24 16 40t40 16q23 0 38.5 -16t15.5 -40q0 -25 -15.5 -41.5zM1092.5 424q-7.5 -8 -18.5 -8h-34v56h34
q11 0 18.5 -8t7.5 -20t-7.5 -20zM2612 366l50 48l-50 48l-16 -14l26 -22h-916v-24h916l-26 -22zM1134 107.5q34 -33.5 84 -33.5q51 0 84.5 33t33.5 83q0 48 -33.5 81t-84.5 33q-50 0 -84 -33t-34 -81q0 -49 34 -82.5zM1754 94q31 -20 76 -20q39 0 63.5 19.5t24.5 54.5
q0 53 -72 70q-5 2 -13.5 4t-11.5 4.5t-3 7.5q0 8 22 8q14 0 32.5 -6t31.5 -16v68q-35 16 -64 16q-41 0 -65.5 -18t-24.5 -50q0 -28 15 -43.5t49 -26.5q7 -2 16 -4.5t13.5 -5.5t4.5 -8q0 -12 -18 -12q-26 0 -76 32v-74zM2044 107.5q34 -33.5 82 -33.5q24 0 52 14l2 70
q-20 -20 -50 -20q-21 0 -35.5 15t-14.5 37q0 21 14.5 35.5t35.5 14.5t44 -14v66q-21 12 -46 12q-50 0 -84 -33t-34 -81q0 -49 34 -82.5zM2220.5 107.5q34.5 -33.5 85.5 -33.5q50 0 84 33.5t34 82.5q0 48 -34 81t-84 33q-51 0 -85.5 -33t-34.5 -81q0 -49 34.5 -82.5zM176 236
h72l-82 -156h190v62h-76l82 156h-186v-62zM534 298h-158v-218h160v60h-90v20h76v60h-76v18h88v60zM544 236h52v-156h70v156h52v62h-174v-62zM776 114h62l8 -34h76l-74 218h-80l-74 -218h72zM1092 298h-158v-218h70v68h74v58h-74v32h88v60zM1560 80v218h-70v-116l-66 116h-72
v-218h70l-2 106l68 -106h72zM1572 236h52v-156h70v156h50v62h-172v-62zM2508 298h-70v-218h70v86l28 -54h50l28 54v-86h68v218h-70l-52 -100zM1252.5 152.5q-13.5 -14.5 -34.5 -14.5t-34.5 14.5t-13.5 37.5q0 21 13.5 35.5t34.5 14.5t34.5 -14.5t13.5 -35.5
q0 -23 -13.5 -37.5zM2340 153q-14 -15 -34 -15q-21 0 -35.5 15t-14.5 37q0 21 14.5 35.5t35.5 14.5q20 0 34 -14.5t14 -35.5q0 -22 -14 -37zM808 224l14 -52h-30l14 52h2zM1938 84q10 -10 26 -10q15 0 24.5 10t9.5 24t-9.5 23t-24.5 9q-16 0 -26 -9t-10 -23t10 -24z" />
    <glyph glyph-name="eight" unicode="8" horiz-adv-x="2586" 
d="M2684 924v-386h-2508v386h972q5 73 44 133.5t101.5 95.5t136.5 35t136.5 -35t101.5 -95.5t44 -133.5h972zM1600 1094q-76 66 -170 66q-48 0 -92 -17.5t-78 -48.5h340zM1626 742q58 71 58 162q0 96 -64 170l-332 -332h338zM1232 1066q-58 -71 -58 -162q0 -48 17.5 -92
t48.5 -78l334 332h-342zM1958 642.5q38 36.5 38 91.5q0 54 -38 90t-94 36t-93 -36t-37 -90q0 -55 37 -91.5t93 -36.5t94 36.5zM358 784h56v70h-192v-70h58v-172h78v172zM552 612h82l-42 92q28 25 28 64q0 37 -27 61.5t-65 24.5h-100v-242h78v70h16zM646 612h76v242h-76v-242
zM896 650l10 -38h84l-82 242h-90l-82 -242h82l10 38h68zM1004 612h164v66h-86v176h-78v-242zM2164 612h80v242h-78v-128l-74 128h-80v-242h78l-2 118zM2268 612h164v66h-86v176h-78v-242zM2554 612v96l82 146h-90l-32 -72l-30 72h-92l84 -146v-96h78zM1903 774
q15 -16 15 -40q0 -26 -15 -42t-39 -16q-23 0 -38.5 16.5t-15.5 41.5q0 24 15.5 40t38.5 16q24 0 39 -16zM526 788q6 0 11 -6t5 -14q0 -9 -5 -15.5t-11 -6.5h-20v42h20zM844 714l16 58h2l16 -58h-34zM1260 714q74 -64 170 -64q47 0 91 17t79 47h-340zM1142 352q25 -14 52 -14
q22 0 37 12t15 34q0 15 -12 25t-34 19q-18 6 -25 10.5t-7 15.5q0 10 8 16t20 6q10 0 21 -4t19 -10v26q-20 10 -40 10q-23 0 -37.5 -11.5t-14.5 -32.5q0 -19 10.5 -27.5t33.5 -18.5q18 -5 26 -10t8 -14q0 -12 -8 -18t-20 -6q-27 0 -52 18v-26zM1343 361q23 -23 57 -23
q33 0 56.5 23t23.5 57q0 33 -23.5 56.5t-56.5 23.5q-34 0 -57 -23.5t-23 -56.5q0 -34 23 -57zM1638 336v158h-24v-108l-98 110h-12v-156h24v104l98 -108h12zM274 494h-100v-154h24v58h66v22h-66v52h76v22zM294 400q0 -27 17.5 -44.5t44.5 -17.5q28 0 46 17.5t18 44.5v94h-24
v-94q0 -16 -11.5 -28t-28.5 -12t-27.5 11t-10.5 29v94h-24v-94zM474 494h-24v-154h94v22h-70v132zM590 494h-24v-154h96v22h-72v132zM806 340l64 154h-28l-44 -114l-44 114h-28l64 -154h16zM990 494h-100v-154h100v22h-76v46h66v20h-66v44h76v22zM1102 340h28l-30 62
q11 6 17.5 17.5t6.5 24.5q0 21 -14.5 35.5t-35.5 14.5h-58v-154h24v56h36zM1294 494h-24v-154h24v154zM1438.5 376.5q-15.5 -16.5 -38.5 -16.5q-24 0 -40 16.5t-16 41.5q0 24 16 40t40 16q23 0 38.5 -16t15.5 -40q0 -25 -15.5 -41.5zM1092.5 424q-7.5 -8 -18.5 -8h-34v56h34
q11 0 18.5 -8t7.5 -20t-7.5 -20zM2612 366l50 48l-50 48l-16 -14l26 -22h-916v-24h916l-26 -22zM1134 107.5q34 -33.5 84 -33.5q51 0 84.5 33t33.5 83q0 48 -33.5 81t-84.5 33q-50 0 -84 -33t-34 -81q0 -49 34 -82.5zM1754 94q31 -20 76 -20q39 0 63.5 19.5t24.5 54.5
q0 53 -72 70q-5 2 -13.5 4t-11.5 4.5t-3 7.5q0 8 22 8q14 0 32.5 -6t31.5 -16v68q-35 16 -64 16q-41 0 -65.5 -18t-24.5 -50q0 -28 15 -43.5t49 -26.5q7 -2 16 -4.5t13.5 -5.5t4.5 -8q0 -12 -18 -12q-26 0 -76 32v-74zM2044 107.5q34 -33.5 82 -33.5q24 0 52 14l2 70
q-20 -20 -50 -20q-21 0 -35.5 15t-14.5 37q0 21 14.5 35.5t35.5 14.5t44 -14v66q-21 12 -46 12q-50 0 -84 -33t-34 -81q0 -49 34 -82.5zM2220.5 107.5q34.5 -33.5 85.5 -33.5q50 0 84 33.5t34 82.5q0 48 -34 81t-84 33q-51 0 -85.5 -33t-34.5 -81q0 -49 34.5 -82.5zM176 236
h72l-82 -156h190v62h-76l82 156h-186v-62zM534 298h-158v-218h160v60h-90v20h76v60h-76v18h88v60zM544 236h52v-156h70v156h52v62h-174v-62zM776 114h62l8 -34h76l-74 218h-80l-74 -218h72zM1092 298h-158v-218h70v68h74v58h-74v32h88v60zM1560 80v218h-70v-116l-66 116h-72
v-218h70l-2 106l68 -106h72zM1572 236h52v-156h70v156h50v62h-172v-62zM2508 298h-70v-218h70v86l28 -54h50l28 54v-86h68v218h-70l-52 -100zM1252.5 152.5q-13.5 -14.5 -34.5 -14.5t-34.5 14.5t-13.5 37.5q0 21 13.5 35.5t34.5 14.5t34.5 -14.5t13.5 -35.5
q0 -23 -13.5 -37.5zM2340 153q-14 -15 -34 -15q-21 0 -35.5 15t-14.5 37q0 21 14.5 35.5t35.5 14.5q20 0 34 -14.5t14 -35.5q0 -22 -14 -37zM808 224l14 -52h-30l14 52h2zM1938 84q10 -10 26 -10q15 0 24.5 10t9.5 24t-9.5 23t-24.5 9q-16 0 -26 -9t-10 -23t10 -24z" />
    <glyph glyph-name="nine" unicode="9" horiz-adv-x="2695" 
d="M2684 924v-386h-2508v386h972q5 73 44 133.5t101.5 95.5t136.5 35t136.5 -35t101.5 -95.5t44 -133.5h972zM1600 1094q-76 66 -170 66q-48 0 -92 -17.5t-78 -48.5h340zM1626 742q58 71 58 162q0 96 -64 170l-332 -332h338zM1232 1066q-58 -71 -58 -162q0 -48 17.5 -92
t48.5 -78l334 332h-342zM1958 642.5q38 36.5 38 91.5q0 54 -38 90t-94 36t-93 -36t-37 -90q0 -55 37 -91.5t93 -36.5t94 36.5zM358 784h56v70h-192v-70h58v-172h78v172zM552 612h82l-42 92q28 25 28 64q0 37 -27 61.5t-65 24.5h-100v-242h78v70h16zM646 612h76v242h-76v-242
zM896 650l10 -38h84l-82 242h-90l-82 -242h82l10 38h68zM1004 612h164v66h-86v176h-78v-242zM2164 612h80v242h-78v-128l-74 128h-80v-242h78l-2 118zM2268 612h164v66h-86v176h-78v-242zM2554 612v96l82 146h-90l-32 -72l-30 72h-92l84 -146v-96h78zM1903 774
q15 -16 15 -40q0 -26 -15 -42t-39 -16q-23 0 -38.5 16.5t-15.5 41.5q0 24 15.5 40t38.5 16q24 0 39 -16zM526 788q6 0 11 -6t5 -14q0 -9 -5 -15.5t-11 -6.5h-20v42h20zM844 714l16 58h2l16 -58h-34zM1260 714q74 -64 170 -64q47 0 91 17t79 47h-340zM1142 352q25 -14 52 -14
q22 0 37 12t15 34q0 15 -12 25t-34 19q-18 6 -25 10.5t-7 15.5q0 10 8 16t20 6q10 0 21 -4t19 -10v26q-20 10 -40 10q-23 0 -37.5 -11.5t-14.5 -32.5q0 -19 10.5 -27.5t33.5 -18.5q18 -5 26 -10t8 -14q0 -12 -8 -18t-20 -6q-27 0 -52 18v-26zM1343 361q23 -23 57 -23
q33 0 56.5 23t23.5 57q0 33 -23.5 56.5t-56.5 23.5q-34 0 -57 -23.5t-23 -56.5q0 -34 23 -57zM1638 336v158h-24v-108l-98 110h-12v-156h24v104l98 -108h12zM274 494h-100v-154h24v58h66v22h-66v52h76v22zM294 400q0 -27 17.5 -44.5t44.5 -17.5q28 0 46 17.5t18 44.5v94h-24
v-94q0 -16 -11.5 -28t-28.5 -12t-27.5 11t-10.5 29v94h-24v-94zM474 494h-24v-154h94v22h-70v132zM590 494h-24v-154h96v22h-72v132zM806 340l64 154h-28l-44 -114l-44 114h-28l64 -154h16zM990 494h-100v-154h100v22h-76v46h66v20h-66v44h76v22zM1102 340h28l-30 62
q11 6 17.5 17.5t6.5 24.5q0 21 -14.5 35.5t-35.5 14.5h-58v-154h24v56h36zM1294 494h-24v-154h24v154zM1438.5 376.5q-15.5 -16.5 -38.5 -16.5q-24 0 -40 16.5t-16 41.5q0 24 16 40t40 16q23 0 38.5 -16t15.5 -40q0 -25 -15.5 -41.5zM1092.5 424q-7.5 -8 -18.5 -8h-34v56h34
q11 0 18.5 -8t7.5 -20t-7.5 -20zM2612 366l50 48l-50 48l-16 -14l26 -22h-916v-24h916l-26 -22zM1134 107.5q34 -33.5 84 -33.5q51 0 84.5 33t33.5 83q0 48 -33.5 81t-84.5 33q-50 0 -84 -33t-34 -81q0 -49 34 -82.5zM1754 94q31 -20 76 -20q39 0 63.5 19.5t24.5 54.5
q0 53 -72 70q-5 2 -13.5 4t-11.5 4.5t-3 7.5q0 8 22 8q14 0 32.5 -6t31.5 -16v68q-35 16 -64 16q-41 0 -65.5 -18t-24.5 -50q0 -28 15 -43.5t49 -26.5q7 -2 16 -4.5t13.5 -5.5t4.5 -8q0 -12 -18 -12q-26 0 -76 32v-74zM2044 107.5q34 -33.5 82 -33.5q24 0 52 14l2 70
q-20 -20 -50 -20q-21 0 -35.5 15t-14.5 37q0 21 14.5 35.5t35.5 14.5t44 -14v66q-21 12 -46 12q-50 0 -84 -33t-34 -81q0 -49 34 -82.5zM2220.5 107.5q34.5 -33.5 85.5 -33.5q50 0 84 33.5t34 82.5q0 48 -34 81t-84 33q-51 0 -85.5 -33t-34.5 -81q0 -49 34.5 -82.5zM176 236
h72l-82 -156h190v62h-76l82 156h-186v-62zM534 298h-158v-218h160v60h-90v20h76v60h-76v18h88v60zM544 236h52v-156h70v156h52v62h-174v-62zM776 114h62l8 -34h76l-74 218h-80l-74 -218h72zM1092 298h-158v-218h70v68h74v58h-74v32h88v60zM1560 80v218h-70v-116l-66 116h-72
v-218h70l-2 106l68 -106h72zM1572 236h52v-156h70v156h50v62h-172v-62zM2508 298h-70v-218h70v86l28 -54h50l28 54v-86h68v218h-70l-52 -100zM1252.5 152.5q-13.5 -14.5 -34.5 -14.5t-34.5 14.5t-13.5 37.5q0 21 13.5 35.5t34.5 14.5t34.5 -14.5t13.5 -35.5
q0 -23 -13.5 -37.5zM2340 153q-14 -15 -34 -15q-21 0 -35.5 15t-14.5 37q0 21 14.5 35.5t35.5 14.5q20 0 34 -14.5t14 -35.5q0 -22 -14 -37zM808 224l14 -52h-30l14 52h2zM1938 84q10 -10 26 -10q15 0 24.5 10t9.5 24t-9.5 23t-24.5 9q-16 0 -26 -9t-10 -23t10 -24z" />
    <glyph glyph-name="colon" unicode=":" horiz-adv-x="377" 
d="M126.5 908q-24.5 24 -24.5 59t24.5 59t61.5 24t62 -24t25 -59t-25 -59t-62 -24t-61.5 24zM126.5 -1q-24.5 24 -24.5 59t24.5 59t61.5 24t62 -24t25 -59t-25 -59t-62 -24t-61.5 24z" />
    <glyph glyph-name="semicolon" unicode=";" horiz-adv-x="389" 
d="M104 -180q97 89 97 160v5q-35 0 -60.5 23t-25.5 57q0 37 24.5 59.5t60.5 22.5q38 0 62 -22.5t24 -73.5q0 -78 -31 -144t-102 -132zM131.5 908q-24.5 24 -24.5 59t24.5 59t61.5 24t62 -24t25 -59t-25 -59t-62 -24t-61.5 24z" />
    <glyph glyph-name="less" unicode="&#x3c;" horiz-adv-x="1027" 
d="M924 353v-117l-822 389v84l822 389v-116l-680 -315z" />
    <glyph glyph-name="equal" unicode="=" horiz-adv-x="1155" 
d="M1052 817h-950v100h950v-100zM1052 430h-950v100h950v-100z" />
    <glyph glyph-name="greater" unicode="&#x3e;" horiz-adv-x="1027" 
d="M924 625l-822 -389v117l681 314l-681 315v116l822 -389v-84z" />
    <glyph glyph-name="question" unicode="?" horiz-adv-x="951" 
d="M412 447q0 100 58 186t157 170q86 73 131 133.5t45 133.5q0 126 -85 193t-231 67q-147 0 -231 -68t-84 -201h-102q0 111 50 194.5t144.5 129.5t224.5 46q125 0 219.5 -45.5t146 -128.5t51.5 -191q0 -74 -34.5 -137t-82.5 -110.5t-125 -111.5q-152 -124 -152 -266v-56
h-100v62zM406.5 8q-24.5 24 -24.5 59t24.5 59t61.5 24t62 -24t25 -59t-25 -59t-62 -24t-61.5 24z" />
    <glyph glyph-name="at" unicode="@" horiz-adv-x="1795" 
d="M1299 1199q182 -104 287.5 -285t105.5 -401q0 -184 -73.5 -292.5t-213.5 -108.5q-90 0 -146.5 54t-75.5 144q-47 -89 -131 -141t-186 -52q-99 0 -184 51.5t-136 141t-51 197.5q0 109 50 198.5t134.5 141t183.5 51.5t181.5 -49.5t131.5 -134.5l17 166h77v-503
q0 -57 20.5 -96t53.5 -58t71 -19q93 0 136.5 79.5t43.5 224.5q0 196 -89 357t-248.5 254t-359.5 93q-196 0 -355.5 -94.5t-251 -254t-91.5 -347.5q0 -197 96 -355.5t255 -248.5t340 -90q120 0 210 24t196 78l42 -80q-113 -60 -215.5 -87t-233.5 -27q-198 0 -380 97.5
t-295 276.5t-113 410q0 203 100.5 385t281.5 293t412 111q221 0 403 -104zM1026.5 248.5q66.5 39.5 105.5 107.5t39 150t-39.5 150.5t-106 108t-143.5 39.5q-78 0 -143.5 -39.5t-104.5 -108t-39 -150.5t39 -150t105 -107.5t144 -39.5q77 0 143.5 39.5z" />
    <glyph glyph-name="A" unicode="A" horiz-adv-x="1284" 
d="M1264 0h-109l-147 368h-732l-147 -368h-109l572 1406h99zM635 1268l-321 -804h655l-322 804l-6 16z" />
    <glyph glyph-name="B" unicode="B" horiz-adv-x="1294" 
d="M205 0v1405h564q113 0 197.5 -46t130 -127t45.5 -183q0 -67 -27 -129t-73.5 -108.5t-104.5 -69.5q77 -15 141 -66t101.5 -127.5t37.5 -165.5q0 -112 -51.5 -199t-140.5 -135.5t-197 -48.5h-623zM765 776q73 0 136.5 36.5t101 98t37.5 134.5q0 74 -33.5 135.5t-95.5 97.5
t-145 36h-459v-538h458zM822 91q82 0 148.5 38.5t104.5 107t38 153.5q0 82 -39 150.5t-110.5 108.5t-163.5 40h-493v-598h515z" />
    <glyph glyph-name="C" unicode="C" horiz-adv-x="1376" 
d="M459.5 74q-165.5 96 -261.5 262t-96 366q0 201 96 367t261.5 262t363.5 96q138 0 258.5 -47t217.5 -131l-60 -77q-87 73 -193 113.5t-223 40.5q-167 0 -308.5 -82.5t-224 -225.5t-82.5 -316t82.5 -315.5t224 -225t308.5 -82.5q224 0 417 160l59 -79q-99 -84 -219.5 -133
t-256.5 -49q-198 0 -363.5 96z" />
    <glyph glyph-name="D" unicode="D" horiz-adv-x="1494" 
d="M205 0v1405h466q198 0 363 -93.5t261 -255t96 -355.5q0 -193 -96 -354t-260 -254t-361 -93h-469zM676 99q168 0 308 80t221 218t81 304q0 167 -82 305.5t-223 218.5t-310 80h-362v-1206h367z" />
    <glyph glyph-name="E" unicode="E" horiz-adv-x="1290" 
d="M1188 0h-983v1405h969v-98h-865v-533h712v-97h-712v-578h879v-99z" />
    <glyph glyph-name="F" unicode="F" horiz-adv-x="1195" 
d="M309 0h-104v1405h926v-96h-822v-591h663v-93h-663v-625z" />
    <glyph glyph-name="G" unicode="G" horiz-adv-x="1417" 
d="M1191 628h100v-491q-98 -76 -221 -118.5t-247 -42.5q-198 0 -363.5 97t-261.5 264t-96 367t96 366.5t261.5 263t363.5 96.5q132 0 254.5 -47t215.5 -131l-63 -78q-84 72 -189 113.5t-218 41.5q-167 0 -308.5 -83t-224.5 -226.5t-83 -315.5q0 -173 83 -317t224.5 -227.5
t308.5 -83.5q91 0 191.5 29.5t176.5 79.5v443z" />
    <glyph glyph-name="H" unicode="H" horiz-adv-x="1548" 
d="M309 0h-104v1405h104v-641h930v641h104v-1405h-104v664h-930v-664z" />
    <glyph glyph-name="I" unicode="I" horiz-adv-x="513" 
d="M309 0h-104v1405h104v-1405z" />
    <glyph glyph-name="J" unicode="J" horiz-adv-x="811" 
d="M156 10q-75 34 -136 92l62 74q48 -46 106.5 -72t111.5 -26q113 0 178 69t65 192v1066h104v-1072q0 -109 -42.5 -189.5t-120.5 -124t-184 -43.5q-69 0 -144 34z" />
    <glyph glyph-name="K" unicode="K" horiz-adv-x="1367" 
d="M1339 0h-128l-601 748l-301 -328v-420h-104v1405h104v-841l772 841h131l-532 -581z" />
    <glyph glyph-name="L" unicode="L" horiz-adv-x="1115" 
d="M1085 0h-880v1405h104v-1305h776v-100z" />
    <glyph glyph-name="M" unicode="M" horiz-adv-x="1765" 
d="M214 0h-105l154 1405h122l498 -1252l498 1252h122l152 -1405h-104l-129 1242l-496 -1242h-86l-495 1242z" />
    <glyph glyph-name="N" unicode="N" horiz-adv-x="1568" 
d="M309 0h-104v1405h100l955 -1232v1232h103v-1405h-98l-956 1234v-1234z" />
    <glyph glyph-name="O" unicode="O" horiz-adv-x="1646" 
d="M459.5 74q-165.5 96 -261.5 262t-96 366q0 201 96 367t261.5 262t363.5 96q199 0 364 -96t261 -262t96 -367q0 -200 -96 -366t-261.5 -262t-363.5 -96t-363.5 96zM1132.5 161.5q141.5 82.5 224 225t82.5 315.5t-82.5 316t-224 225.5t-309.5 82.5q-167 0 -308.5 -82.5
t-224 -225.5t-82.5 -316t82.5 -315.5t224 -225t308.5 -82.5q168 0 309.5 82.5z" />
    <glyph glyph-name="P" unicode="P" horiz-adv-x="1208" 
d="M205 0v1405h475q140 0 245 -54.5t162 -154.5t57 -233q0 -136 -56.5 -237t-161 -156t-246.5 -55h-371v-515h-104zM673 613q111 0 194 42.5t128 121t45 184.5q0 105 -45 183.5t-128 121t-194 42.5h-364v-695h364z" />
    <glyph glyph-name="Q" unicode="Q" horiz-adv-x="1646" 
d="M1456 350q-88 -161 -241.5 -259.5t-340.5 -110.5v-284h-104v284q-186 13 -339 111.5t-241 259t-88 351.5q0 201 96 367t261.5 262t363.5 96q199 0 364 -96t261 -262t96 -367q0 -191 -88 -352zM1132.5 161.5q141.5 82.5 224 225t82.5 315.5t-82.5 316t-224 225.5
t-309.5 82.5q-167 0 -308.5 -82.5t-224 -225.5t-82.5 -316t82.5 -315.5t224 -225t308.5 -82.5q168 0 309.5 82.5z" />
    <glyph glyph-name="R" unicode="R" horiz-adv-x="1281" 
d="M1123.5 705q-71.5 -105 -198.5 -152l255 -553h-116l-239 526q-54 -9 -113 -9h-403v-517h-104v1405h528q139 0 243.5 -54.5t161.5 -155t57 -234.5q0 -151 -71.5 -256zM309 612h416q110 0 192.5 42.5t127 121.5t44.5 184q0 106 -44.5 185t-127 121t-192.5 42h-416v-696z
" />
    <glyph glyph-name="S" unicode="S" horiz-adv-x="1151" 
d="M283.5 44.5q-145.5 61.5 -238.5 176.5l69 68q83 -100 211.5 -153.5t265.5 -53.5q107 0 194.5 33.5t139 100.5t51.5 162q0 93 -56 149.5t-139 87t-232 68.5q-141 35 -233.5 72.5t-155.5 110t-63 190.5q0 109 63.5 192.5t173.5 128.5t245 45q127 0 248 -43.5t210 -124.5
l-63 -73q-76 68 -179.5 105.5t-211.5 37.5q-103 0 -190.5 -32.5t-139.5 -94t-52 -144.5q0 -86 51.5 -138.5t128.5 -81t212 -62.5q160 -43 257.5 -82.5t164 -114t66.5 -195.5q0 -126 -66.5 -215.5t-178.5 -135t-248 -45.5q-159 0 -304.5 61.5z" />
    <glyph glyph-name="T" unicode="T" horiz-adv-x="1145" 
d="M624 0h-104v1306h-478v99h1061v-99h-479v-1306z" />
    <glyph glyph-name="U" unicode="U" horiz-adv-x="1461" 
d="M424 54q-128 79 -194 220t-66 326v806h103v-801q0 -158 53.5 -278t158 -186.5t253.5 -66.5q148 0 252 66.5t157 186t53 278.5v801h103v-806q0 -185 -66 -326t-193.5 -220t-305.5 -79q-180 0 -308 79z" />
    <glyph glyph-name="V" unicode="V" horiz-adv-x="1278" 
d="M688 0h-97l-571 1405h111l509 -1267l1 2l506 1265h111z" />
    <glyph glyph-name="W" unicode="W" horiz-adv-x="1944" 
d="M694 0h-99l-575 1405h112l514 -1265l494 1265h111l-223 -569l279 -696l505 1265h112l-570 -1405h-98l-281 701z" />
    <glyph glyph-name="X" unicode="X" horiz-adv-x="1254" 
d="M151 0h-126l536 729l-495 676h126l433 -594l435 594h127l-495 -676l534 -729h-127l-474 651z" />
    <glyph glyph-name="Y" unicode="Y" horiz-adv-x="1105" 
d="M605 0h-104v614l-481 791h121l412 -690l411 690h121l-480 -790v-615z" />
    <glyph glyph-name="Z" unicode="Z" horiz-adv-x="1272" 
d="M1161 0h-1059v83l931 1226h-915v96h1051v-80l-932 -1229h924v-96z" />
    <glyph glyph-name="bracketleft" unicode="[" horiz-adv-x="604" 
d="M584 -371h-379v1864h379v-86h-277v-1692h277v-86z" />
    <glyph glyph-name="backslash" unicode="\" horiz-adv-x="830" 
d="M125 1511l727 -1774h-111l-725 1774h109z" />
    <glyph glyph-name="bracketright" unicode="]" horiz-adv-x="604" 
d="M399 1493v-1864h-379v86h277v1692h-277v86h379z" />
    <glyph glyph-name="asciicircum" unicode="^" horiz-adv-x="877" 
d="M439 1333l-244 -481l-93 16l322 607h29l321 -607l-92 -16z" />
    <glyph glyph-name="underscore" unicode="_" horiz-adv-x="965" 
d="M970 -245h-975v63h975v-63z" />
    <glyph glyph-name="grave" unicode="`" horiz-adv-x="468" 
d="M366 1222h-89l-175 252h123z" />
    <glyph glyph-name="a" unicode="a" horiz-adv-x="1260" 
d="M995 1027h100v-1027h-98v217l1 14q-63 -116 -170 -185t-242 -69q-137 0 -251 71t-180 193.5t-66 270.5t66 271t180 194.5t251 71.5q133 0 239.5 -67.5t169.5 -182.5v228zM799 130.5q94 57.5 147.5 157.5t53.5 224q0 123 -54 223.5t-147.5 158.5t-207.5 58
q-113 0 -205 -58t-145 -158.5t-53 -223.5q0 -124 53 -224t145 -157.5t205 -57.5q114 0 208 57.5z" />
    <glyph glyph-name="b" unicode="b" horiz-adv-x="1261" 
d="M926 977.5q114 -71.5 180 -194.5t66 -271t-66 -270.5t-180.5 -193.5t-251.5 -71q-135 0 -242.5 69.5t-169.5 186.5l1 -16v-217h-97v1495h100v-696q63 115 169.5 182.5t239.5 67.5q137 0 251 -71.5zM874.5 130.5q92.5 57.5 145.5 157.5t53 224q0 123 -53 223.5
t-145.5 158.5t-205.5 58q-114 0 -207.5 -58t-147.5 -158.5t-54 -223.5q0 -124 54 -224t147.5 -157.5t207.5 -57.5q113 0 205.5 57.5z" />
    <glyph glyph-name="c" unicode="c" horiz-adv-x="1054" 
d="M354 46.5q-122 71.5 -193.5 194.5t-71.5 270q0 148 71.5 271t193.5 195t267 72q112 0 208.5 -40.5t170.5 -114.5l-55 -71q-65 64 -146 98.5t-174 34.5q-118 0 -218.5 -59t-159.5 -161t-59 -225q0 -122 59.5 -223.5t159.5 -160t218 -58.5q94 0 175.5 34t145.5 96l55 -70
q-74 -73 -171.5 -113.5t-207.5 -40.5q-146 0 -268 71.5z" />
    <glyph glyph-name="d" unicode="d" horiz-adv-x="1260" 
d="M1095 1495v-1495h-98v217l1 14q-63 -116 -170 -185t-242 -69q-137 0 -251 71t-180 193.5t-66 270.5t66 271t180 194.5t251 71.5q133 0 239.5 -67.5t169.5 -182.5v696h100zM799 130.5q94 57.5 147.5 157.5t53.5 224q0 123 -54 223.5t-147.5 158.5t-207.5 58
q-113 0 -205 -58t-145 -158.5t-53 -223.5q0 -124 53 -224t145 -157.5t205 -57.5q114 0 208 57.5z" />
    <glyph glyph-name="e" unicode="e" horiz-adv-x="1130" 
d="M818.5 979q107.5 -69 165 -190.5t57.5 -275.5q0 -25 -2 -38h-852q8 -116 64.5 -208.5t148.5 -144.5t202 -52q97 0 179.5 34.5t145.5 97.5l55 -72q-75 -74 -172 -114.5t-213 -40.5q-141 0 -257.5 71t-183.5 194t-67 271q0 149 61.5 271.5t171 194t245.5 71.5
q144 0 251.5 -69zM385 904.5q-83 -49.5 -134.5 -137.5t-62.5 -200h754q-10 115 -57.5 202.5t-128 136t-186.5 48.5q-102 0 -185 -49.5z" />
    <glyph glyph-name="f" unicode="f" horiz-adv-x="583" 
d="M201 0v934h-160v93h160v152q0 166 81 248.5t235 82.5h62v-93h-62q-217 0 -217 -249v-141h270v-93h-270v-934h-99z" />
    <glyph glyph-name="g" unicode="g" horiz-adv-x="1260" 
d="M997 1027h98v-874q0 -148 -52.5 -268t-163 -192t-277.5 -72q-102 0 -201 22.5t-166 56.5l38 85q62 -32 148 -51t174 -19q141 0 231 62t130 162t40 219v45l3 63q-63 -111 -170.5 -177.5t-242.5 -66.5q-138 0 -251.5 67.5t-179.5 185t-66 261.5q0 138 66 256.5t180 188
t251 69.5q134 0 241.5 -68t170.5 -182l-1 11v216zM798.5 173.5q93.5 54.5 147.5 149t54 208.5q0 116 -54 212.5t-147.5 153t-207.5 56.5q-112 0 -204.5 -56t-145.5 -151.5t-53 -208.5q0 -119 53 -214.5t145 -149.5t205 -54q114 0 207.5 54.5z" />
    <glyph glyph-name="h" unicode="h" horiz-adv-x="1175" 
d="M859 999.5q91 -50.5 141 -148t50 -235.5v-616h-100v603q0 169 -85.5 260t-236.5 91q-96 0 -179.5 -47t-133.5 -130t-50 -188v-589h-99v1495h99v-649q34 58 92 104.5t133 73t156 26.5q122 0 213 -50.5z" />
    <glyph glyph-name="i" unicode="i" horiz-adv-x="430" 
d="M160.5 1330q-21.5 21 -21.5 51q0 31 21 52.5t54 21.5t54.5 -21.5t21.5 -52.5q0 -30 -21.5 -51t-54.5 -21q-32 0 -53.5 21zM265 0h-99v1027h99v-1027z" />
    <glyph glyph-name="j" unicode="j" horiz-adv-x="438" 
d="M168.5 1330q-21.5 21 -21.5 51q0 31 21 52.5t54 21.5t54.5 -21.5t21.5 -52.5q0 -30 -21.5 -51t-54.5 -21q-32 0 -53.5 21zM-44 -368v91h18q199 0 199 243v1061h99v-1059q0 -158 -73.5 -247t-215.5 -89h-27z" />
    <glyph glyph-name="k" unicode="k" horiz-adv-x="1058" 
d="M1048 0h-121l-441 543l-221 -215v-328h-99v1495h99v-1043l586 575h132l-428 -417z" />
    <glyph glyph-name="l" unicode="l" horiz-adv-x="431" 
d="M265 0h-99v1495h99v-1495z" />
    <glyph glyph-name="m" unicode="m" horiz-adv-x="1760" 
d="M1457.5 1001.5q84.5 -49.5 131 -141.5t46.5 -218v-642h-99v631q0 97 -34 170t-97.5 113.5t-149.5 40.5q-85 0 -154.5 -44t-110 -123t-40.5 -179v-609h-99v631q0 97 -34 170t-97.5 113.5t-150.5 40.5q-84 0 -153.5 -44t-110 -123t-40.5 -179v-609h-99v1027h95v-148
q52 81 136 126.5t181 45.5q121 0 210 -59t130 -166q47 105 140 165t205 60q110 0 194.5 -49.5z" />
    <glyph glyph-name="n" unicode="n" horiz-adv-x="1175" 
d="M859 999.5q91 -50.5 141 -148t50 -235.5v-616h-100v603q0 169 -85.5 260t-236.5 91q-96 0 -179.5 -47t-133.5 -130t-50 -188v-589h-99v1027h95v-188q33 60 91.5 108t134.5 75.5t159 27.5q122 0 213 -50.5z" />
    <glyph glyph-name="o" unicode="o" horiz-adv-x="1237" 
d="M352.5 46q-121.5 71 -192.5 194t-71 271t71 271.5t192.5 195t266.5 71.5q144 0 265.5 -71.5t192.5 -195t71 -271.5q0 -147 -71 -270t-192.5 -194.5t-266.5 -71.5q-144 0 -265.5 71zM835.5 128q98.5 58 156 159t57.5 224q0 122 -57.5 223.5t-156 160t-215.5 58.5
q-118 0 -217 -58.5t-157 -160t-58 -223.5q0 -123 58 -224t157 -159t217 -58q117 0 215.5 58z" />
    <glyph glyph-name="p" unicode="p" horiz-adv-x="1261" 
d="M926 977.5q114 -71.5 180 -194.5t66 -271t-66 -270.5t-180.5 -193.5t-251.5 -71q-133 0 -239.5 67.5t-169.5 182.5v-582h-99v1382h98v-231q63 116 169.5 184.5t241.5 68.5q137 0 251 -71.5zM874.5 130.5q92.5 57.5 145.5 157.5t53 224q0 123 -53 223.5t-145.5 158.5
t-205.5 58q-114 0 -207.5 -58t-147.5 -158.5t-54 -223.5q0 -124 54 -224t147.5 -157.5t207.5 -57.5q113 0 205.5 57.5z" />
    <glyph glyph-name="q" unicode="q" horiz-adv-x="1260" 
d="M997 1027h98v-1382h-100v581q-63 -114 -169.5 -181.5t-239.5 -67.5q-137 0 -251 71t-180 193.5t-66 270.5t66 271t180 194.5t251 71.5q134 0 241 -69t170 -185v232zM799 130.5q94 57.5 147.5 157.5t53.5 224q0 123 -54 223.5t-147.5 158.5t-207.5 58q-113 0 -205 -58
t-145 -158.5t-53 -223.5q0 -124 53 -224t145 -157.5t205 -57.5q114 0 208 57.5z" />
    <glyph glyph-name="r" unicode="r" horiz-adv-x="795" 
d="M692 1030q59 -18 116 -54l-45 -81q-94 59 -192 59q-78 0 -147.5 -47.5t-112.5 -133t-46 -194.5v-579h-99v1027h95v-193q42 95 127 154.5t190 59.5q55 0 114 -18z" />
    <glyph glyph-name="s" unicode="s" horiz-adv-x="906" 
d="M239 19q-114 44 -186 110l60 74q64 -55 162.5 -94t197.5 -39q79 0 140.5 25.5t96 71t34.5 105.5q0 61 -34 101t-98.5 66.5t-173.5 52.5q-155 37 -243 106.5t-88 184.5q0 74 42 134.5t122 96t189 35.5q100 0 195.5 -31.5t163.5 -89.5l-59 -73q-59 45 -137.5 72t-164.5 27
q-77 0 -133 -22t-85 -60.5t-29 -88.5q0 -49 25.5 -85t84 -65.5t159.5 -54.5q114 -29 191.5 -62t126.5 -91.5t49 -149.5q0 -85 -47.5 -153.5t-132.5 -107.5t-193 -39q-121 0 -235 44z" />
    <glyph glyph-name="t" unicode="t" horiz-adv-x="586" 
d="M307 0h-100v934h-188v93h188v260l100 18v-278h275v-93h-275v-934z" />
    <glyph glyph-name="u" unicode="u" horiz-adv-x="1175" 
d="M910 1027h99v-1027h-95v188q-33 -60 -91.5 -108t-134.5 -75.5t-159 -27.5q-122 0 -213 50.5t-141 148t-50 235.5v616h100v-603q0 -169 85.5 -260t236.5 -91q96 0 179.5 47t133.5 130t50 188v589z" />
    <glyph glyph-name="v" unicode="v" horiz-adv-x="1009" 
d="M554 0h-100l-427 1027h108l370 -911l369 911h108z" />
    <glyph glyph-name="w" unicode="w" horiz-adv-x="1572" 
d="M1066 116l372 911h107l-423 -1027h-96l-239 581l-237 -581h-101l-422 1027h106l366 -911l363 911h107l-137 -336z" />
    <glyph glyph-name="x" unicode="x" horiz-adv-x="992" 
d="M159 0h-118l394 531l-377 496h119l320 -431l317 431h119l-375 -501l394 -526h-119l-338 458z" />
    <glyph glyph-name="y" unicode="y" horiz-adv-x="1010" 
d="M410 -355h-107l150 355l-426 1027h108l369 -908l369 908h110z" />
    <glyph glyph-name="z" unicode="z" horiz-adv-x="941" 
d="M883 0h-803v71l658 865h-639v91h771v-70l-658 -866h671v-91z" />
    <glyph glyph-name="braceleft" unicode="{" horiz-adv-x="557" 
d="M537 -367q-139 0 -210 37.5t-93.5 100.5t-22.5 160v310q0 117 -50 193.5t-141 105.5v75q95 32 143 110t48 193v310q0 95 23 157.5t94 100.5t209 38v-86q-95 -4 -142.5 -24t-65 -64.5t-17.5 -130.5v-320q0 -116 -47 -197t-132 -125q87 -47 133 -127t46 -194v-310
q0 -91 17.5 -137t64.5 -66t143 -23v-87z" />
    <glyph glyph-name="bar" unicode="|" horiz-adv-x="507" 
d="M302 -359h-97v1927h97v-1927z" />
    <glyph glyph-name="braceright" unicode="}" horiz-adv-x="557" 
d="M20 -280q96 3 143 23t64.5 66t17.5 137v310q0 114 46 194t133 127q-85 44 -132 125t-47 197v320q0 86 -17.5 130.5t-65 64.5t-142.5 24v86q138 0 209 -38t94 -100.5t23 -157.5v-310q0 -115 48 -193t143 -110v-75q-91 -29 -141 -105.5t-50 -193.5v-310q0 -97 -22.5 -160
t-93.5 -100.5t-210 -37.5v87z" />
    <glyph glyph-name="asciitilde" unicode="~" horiz-adv-x="1187" 
d="M709.5 545q-51.5 15 -128.5 46q-69 28 -118 42.5t-101 14.5q-64 0 -122 -25t-106 -73l-10 23q-10 24 -22 63q53 53 119.5 82.5t138.5 29.5q62 0 115 -15.5t132 -46.5q66 -28 113.5 -42t97.5 -14q70 0 127 24.5t107 72.5l12 -30q16 -40 20 -54q-52 -53 -120 -83t-145 -30
q-58 0 -109.5 15z" />
    <glyph glyph-name="uni00A0" unicode="&#xa0;" horiz-adv-x="412" 
 />
    <glyph glyph-name="exclamdown" unicode="&#xa1;" horiz-adv-x="582" 
d="M352.5 1027q24.5 -22 24.5 -56q0 -32 -24.5 -54.5t-61.5 -22.5t-61.5 22t-24.5 55t24.5 55.5t61.5 22.5t61.5 -22zM240 -280l3 957h98l3 -957h-104z" />
    <glyph glyph-name="cent" unicode="&#xa2;" horiz-adv-x="1054" 
d="M1001 129q-68 -66 -155.5 -106t-187.5 -47v-224h-99v227q-132 15 -239 89t-169 190.5t-62 252.5q0 137 62 254t169 191t239 89v227h99v-224q101 -7 188 -47t154 -107l-55 -71q-65 64 -146 98.5t-174 34.5q-118 0 -218.5 -59t-159.5 -161t-59 -225q0 -122 59.5 -223.5
t159.5 -160t218 -58.5q94 0 175.5 34t145.5 96z" />
    <glyph glyph-name="sterling" unicode="&#xa3;" horiz-adv-x="1142" 
d="M340 97h772v-97h-872v567h-198v90h198v298q0 141 59.5 250t165.5 169.5t242 60.5q222 0 357 -149l-59 -62q-119 114 -291 114q-109 0 -194 -49t-132.5 -137t-47.5 -202v-293h459v-90h-459v-470z" />
    <glyph glyph-name="currency" unicode="&#xa4;" horiz-adv-x="848" 
d="M322.5 413.5q-50.5 17.5 -90.5 50.5l-76 -75l-51 50l75 75q-70 82 -70 196q0 107 69 191l-74 75l51 50l77 -76q38 34 88 52t102 18q109 0 192 -70l76 76l52 -50l-74 -73q34 -43 52.5 -92t18.5 -97q0 -117 -71 -201l74 -74l-52 -50l-75 74q-41 -33 -90 -50t-101 -17
t-102.5 17.5zM546.5 498.5q55.5 32.5 88 88t32.5 121.5q0 65 -32.5 120.5t-88 88.5t-121.5 33t-121.5 -33t-88 -88.5t-32.5 -120.5q0 -66 32.5 -121.5t88.5 -88t121 -32.5q66 0 121.5 32.5z" />
    <glyph glyph-name="yen" unicode="&#xa5;" horiz-adv-x="1105" 
d="M964 1405h121l-454 -748h281v-69h-307v-146h307v-69h-307v-373h-104v373h-310v69h310v146h-310v69h284l-455 748h121l412 -690z" />
    <glyph glyph-name="brokenbar" unicode="&#xa6;" horiz-adv-x="480" 
d="M290 739h-97v820h97v-820zM290 -348h-97v814h97v-814z" />
    <glyph glyph-name="section" unicode="&#xa7;" horiz-adv-x="912" 
d="M240 -170q-95 34 -163 97l61 70q55 -50 133 -79t160 -29q74 0 136.5 22.5t100 65t37.5 101.5q0 61 -38 99.5t-96 60t-154 45.5q-100 25 -178 56.5t-136 92.5t-58 153q0 110 71.5 181.5t185.5 95.5q-104 37 -162 90.5t-58 148.5q0 83 48 147t132 99.5t189 35.5
q100 0 194.5 -34t164.5 -97l-61 -71q-56 51 -134 80t-158 29q-74 0 -136.5 -22.5t-100 -65.5t-37.5 -102q0 -61 38 -99t94.5 -59t155.5 -46q118 -31 195 -63.5t126.5 -90.5t49.5 -149q0 -111 -71.5 -182.5t-185.5 -93.5q104 -37 162 -91t58 -149q0 -83 -48 -147t-132 -99
t-189 -35q-101 0 -196 34zM604 406q62 24 98.5 71.5t36.5 114.5q0 72 -52 117.5t-125.5 65.5t-141.5 20q-74 0 -136 -24t-99 -71t-37 -113q0 -67 48.5 -113.5t122 -69t148.5 -22.5t137 24z" />
    <glyph glyph-name="dieresis" unicode="&#xa8;" horiz-adv-x="691" 
d="M123.5 1241.5q-21.5 21.5 -21.5 53.5t21.5 52.5t54.5 20.5q32 0 53.5 -21t21.5 -52q0 -32 -21.5 -53.5t-53.5 -21.5q-33 0 -54.5 21.5zM459 1241.5q-21 21.5 -21 53.5q0 31 21 52t53 21q33 0 54.5 -20.5t21.5 -52.5t-21.5 -53.5t-54.5 -21.5q-32 0 -53 21.5z" />
    <glyph glyph-name="copyright" unicode="&#xa9;" horiz-adv-x="1663" 
d="M1192 1332.5q166 -96.5 262.5 -262.5t96.5 -366q0 -199 -96.5 -365t-262.5 -262.5t-365 -96.5t-365.5 96.5t-263 262.5t-96.5 365q0 200 96.5 366t263 262.5t365.5 96.5t365 -96.5zM491 1281q-153 -89 -242 -241.5t-89 -334.5t89 -335t242 -242t336 -89t336 89t242 242
t89 335t-89 334.5t-242 241.5t-336 89t-336 -89zM621 330.5q-98 57.5 -155 156.5t-57 217q0 119 57.5 217.5t155 156t212.5 57.5q93 0 170 -32.5t134 -92.5l-54 -69q-46 49 -108.5 75t-137.5 26q-89 0 -164.5 -45t-120.5 -122.5t-45 -170.5t45 -170.5t120.5 -122.5
t164.5 -45q74 0 136.5 26.5t109.5 74.5l54 -69q-57 -59 -134.5 -92t-168.5 -33q-116 0 -214 57.5z" />
    <glyph glyph-name="ordfeminine" unicode="&#xaa;" horiz-adv-x="1259" 
d="M995 1027h100v-1027h-98v217l1 14q-63 -116 -170 -185t-242 -69q-137 0 -251 71t-180 193.5t-66 270.5t66 271t180 194.5t251 71.5q133 0 239.5 -67.5t169.5 -182.5v228zM799 130.5q94 57.5 147.5 157.5t53.5 224q0 123 -54 223.5t-147.5 158.5t-207.5 58
q-113 0 -205 -58t-145 -158.5t-53 -223.5q0 -124 53 -224t145 -157.5t205 -57.5q114 0 208 57.5z" />
    <glyph glyph-name="guillemotleft" unicode="&#xab;" horiz-adv-x="911" 
d="M472 111l-78 -72l-367 410l367 410l80 -71l-312 -339zM883 111l-78 -72l-367 410l367 410l80 -71l-312 -339z" />
    <glyph glyph-name="logicalnot" unicode="&#xac;" horiz-adv-x="1083" 
d="M980 273h-96v327h-782v84h878v-411z" />
    <glyph glyph-name="uni00AD" unicode="&#xad;" horiz-adv-x="797" 
d="M695 470h-593v94h593v-94z" />
    <glyph glyph-name="registered" unicode="&#xae;" horiz-adv-x="787" 
d="M539 1481.5q67 -39.5 106 -106.5t39 -146q0 -78 -39.5 -144.5t-106 -105.5t-144.5 -39q-79 0 -146 39t-106.5 105.5t-39.5 144.5q0 79 39.5 146t106.5 106.5t146 39.5q78 0 145 -39.5zM521.5 1008.5q58.5 34.5 93 93t34.5 127.5q0 71 -34.5 130t-93 93.5t-127.5 34.5
t-128 -34.5t-93 -93.5t-34 -130q0 -69 34.5 -127.5t93 -93t127.5 -34.5t127.5 34.5zM497 1223q-18 -23 -47 -34l74 -116h-53l-67 108h-3h-66v-108h-46v310h125q45 0 73 -28.5t28 -72.5q0 -36 -18 -59zM335 1220h72q27 0 44 17.5t17 42.5q0 26 -16.5 42.5t-42.5 16.5h-74
v-119z" />
    <glyph glyph-name="macron" unicode="&#xaf;" horiz-adv-x="618" 
d="M515 1224h-413v81h413v-81z" />
    <glyph glyph-name="degree" unicode="&#xb0;" horiz-adv-x="787" 
d="M248 921.5q-67 39.5 -106.5 106t-39.5 144.5q0 79 39.5 146t106.5 106t146 39t145.5 -39t105.5 -106t39 -146q0 -78 -39 -144.5t-105.5 -106t-145.5 -39.5t-146 39.5zM500 989.5q49 28.5 77.5 77t28.5 105.5q0 58 -28.5 107t-77.5 77.5t-106 28.5q-58 0 -106.5 -28.5
t-77 -77.5t-28.5 -107q0 -57 28.5 -105.5t77 -77t106.5 -28.5q57 0 106 28.5z" />
    <glyph glyph-name="plusminus" unicode="&#xb1;" horiz-adv-x="1082" 
d="M581 228h-87v398h-392v85h392v392h87v-392h395v-85h-395v-398zM980 54h-878v92h878v-92z" />
    <glyph glyph-name="acute" unicode="&#xb4;" horiz-adv-x="468" 
d="M366 1474l-175 -252h-89l141 252h123z" />
    <glyph glyph-name="uni00B5" unicode="&#xb5;" horiz-adv-x="1181" 
d="M910 1027h99v-1027h-95v188q-33 -60 -91.5 -108t-134.5 -75.5t-159 -27.5q-175 0 -281 100v-445h-100v611q-23 77 -23 168v616h100v-500h23v-256q33 -97 110 -147.5t189 -50.5q96 0 179.5 47t133.5 130t50 188v589z" />
    <glyph glyph-name="paragraph" unicode="&#xb6;" horiz-adv-x="1175" 
d="M1133 1281h-169v-1485h-97v1485h-215v-1485h-95v904h-176q-91 0 -163 40t-113 115.5t-41 177.5t43.5 177t119 115t170.5 40h736v-84z" />
    <glyph glyph-name="periodcentered" unicode="&#xb7;" horiz-adv-x="377" 
d="M126.5 439q-24.5 24 -24.5 59t24.5 59t61.5 24t62 -24t25 -59t-25 -59t-62 -24t-61.5 24z" />
    <glyph glyph-name="cedilla" unicode="&#xb8;" horiz-adv-x="416" 
d="M241 7q28 -42 50.5 -93.5t22.5 -89.5q0 -58 -45.5 -95t-150.5 -49l-16 66q54 7 81 20t35.5 28.5t8.5 38.5q0 32 -17 74.5t-50 99.5h81z" />
    <glyph glyph-name="ordmasculine" unicode="&#xba;" horiz-adv-x="1237" 
d="M352.5 46q-121.5 71 -192.5 194t-71 271t71 271.5t192.5 195t266.5 71.5q144 0 265.5 -71.5t192.5 -195t71 -271.5q0 -147 -71 -270t-192.5 -194.5t-266.5 -71.5q-144 0 -265.5 71zM835.5 128q98.5 58 156 159t57.5 224q0 122 -57.5 223.5t-156 160t-215.5 58.5
q-118 0 -217 -58.5t-157 -160t-58 -223.5q0 -123 58 -224t157 -159t217 -58q117 0 215.5 58z" />
    <glyph glyph-name="guillemotright" unicode="&#xbb;" horiz-adv-x="951" 
d="M514 449l-368 -410l-78 72l310 338l-312 339l80 71zM924 449l-367 -410l-78 72l310 338l-312 339l80 71z" />
    <glyph glyph-name="questiondown" unicode="&#xbf;" horiz-adv-x="958" 
d="M601.5 1029.5q24.5 -22.5 24.5 -55.5t-24.5 -55.5t-61.5 -22.5t-62 22.5t-25 55.5t25 55.5t62 22.5t61.5 -22.5zM597 618q0 -94 -58.5 -175.5t-157.5 -158.5q-85 -68 -130.5 -125t-45.5 -126q0 -118 85 -180.5t231 -62.5q147 0 231 63.5t84 188.5h103q0 -104 -50 -182.5
t-145 -121.5t-225 -43q-126 0 -220 42.5t-145.5 120t-51.5 179.5q0 70 34.5 129t83 104t124.5 103q153 118 153 250v53h100v-58z" />
    <glyph glyph-name="Agrave" unicode="&#xc0;" horiz-adv-x="1284" 
d="M1264 0h-109l-147 368h-732l-147 -368h-109l572 1406h99zM635 1268l-321 -804h655l-322 804l-6 16zM703 1502h-95l-197 194h133z" />
    <glyph glyph-name="Aacute" unicode="&#xc1;" horiz-adv-x="1284" 
d="M1264 0h-109l-147 368h-732l-147 -368h-109l572 1406h99zM635 1268l-321 -804h655l-322 804l-6 16zM836 1696l-197 -194h-95l159 194h133z" />
    <glyph glyph-name="Acircumflex" unicode="&#xc2;" horiz-adv-x="1284" 
d="M1264 0h-109l-147 368h-732l-147 -368h-109l572 1406h99zM635 1268l-321 -804h655l-322 804l-6 16zM638 1609l-180 -119l-43 65l208 149h32l207 -149l-44 -65z" />
    <glyph glyph-name="Atilde" unicode="&#xc3;" horiz-adv-x="1284" 
d="M1264 0h-109l-147 368h-732l-147 -368h-109l572 1406h99zM635 1268l-321 -804h655l-322 804l-6 16zM394 1523q23 71 64 105t86 34q27 0 52 -10t60 -30q29 -17 49 -25.5t40 -8.5q28 0 45 17t36 61l68 -23q-23 -71 -64 -105t-85 -34q-28 0 -53.5 10.5t-60.5 30.5
q-29 16 -48.5 24.5t-38.5 8.5q-27 0 -45 -17t-36 -61z" />
    <glyph glyph-name="Adieresis" unicode="&#xc4;" horiz-adv-x="1284" 
d="M1264 0h-109l-147 368h-732l-147 -368h-109l572 1406h99zM635 1268l-321 -804h655l-322 804l-6 16zM417.5 1523.5q-21.5 21.5 -21.5 53.5t21.5 52.5t54.5 20.5q32 0 53.5 -21t21.5 -52q0 -32 -21.5 -53.5t-53.5 -21.5q-33 0 -54.5 21.5zM753 1523.5q-21 21.5 -21 53.5
q0 31 21 52t53 21q33 0 54.5 -20.5t21.5 -52.5t-21.5 -53.5t-54.5 -21.5q-32 0 -53 21.5z" />
    <glyph glyph-name="Aring" unicode="&#xc5;" horiz-adv-x="1284" 
d="M1264 0h-109l-147 368h-732l-147 -368h-109l572 1406h99zM635 1268l-321 -804h655l-322 804l-6 16zM547.5 1532q-37.5 36 -37.5 94t37.5 94t97.5 36t97.5 -36t37.5 -94t-37.5 -94t-97.5 -36t-97.5 36zM699.5 1573.5q20.5 20.5 20.5 52.5t-20.5 52.5t-54.5 20.5
t-54.5 -20.5t-20.5 -52.5t20.5 -52.5t54.5 -20.5t54.5 20.5z" />
    <glyph glyph-name="AE" unicode="&#xc6;" horiz-adv-x="2216" 
d="M1235 677v-578h879v-99h-983v369h-703l-282 -369h-126l1088 1405h992v-98h-865v-533h712v-97h-712zM1131 1287l-628 -820h628v820z" />
    <glyph glyph-name="Ccedilla" unicode="&#xc7;" horiz-adv-x="1376" 
d="M1299 160q-92 -78 -201.5 -126t-232.5 -55q30 -49 51 -102t21 -98q0 -125 -201 -152l-18 74q77 10 102.5 32t25.5 56q0 38 -16.5 83t-50.5 107q-188 11 -343 109.5t-244.5 260t-89.5 353.5q0 201 96 367t261.5 262t363.5 96q138 0 258.5 -47t217.5 -131l-60 -77
q-87 73 -193 113.5t-223 40.5q-167 0 -308.5 -82.5t-224 -225.5t-82.5 -316t82.5 -315.5t224 -225t308.5 -82.5q224 0 417 160z" />
    <glyph glyph-name="Egrave" unicode="&#xc8;" horiz-adv-x="1290" 
d="M1188 0h-983v1405h969v-98h-865v-533h712v-97h-712v-578h879v-99zM743 1502h-95l-197 194h133z" />
    <glyph glyph-name="Eacute" unicode="&#xc9;" horiz-adv-x="1290" 
d="M1188 0h-983v1405h969v-98h-865v-533h712v-97h-712v-578h879v-99zM875 1696l-197 -194h-95l159 194h133z" />
    <glyph glyph-name="Ecircumflex" unicode="&#xca;" horiz-adv-x="1290" 
d="M1188 0h-983v1405h969v-98h-865v-533h712v-97h-712v-578h879v-99zM678 1609l-180 -119l-43 65l208 149h32l207 -149l-44 -65z" />
    <glyph glyph-name="Edieresis" unicode="&#xcb;" horiz-adv-x="1290" 
d="M1188 0h-983v1405h969v-98h-865v-533h712v-97h-712v-578h879v-99zM456.5 1523.5q-21.5 21.5 -21.5 53.5t21.5 52.5t54.5 20.5q32 0 53.5 -21t21.5 -52q0 -32 -21.5 -53.5t-53.5 -21.5q-33 0 -54.5 21.5zM792 1523.5q-21 21.5 -21 53.5q0 31 21 52t53 21q33 0 54.5 -20.5
t21.5 -52.5t-21.5 -53.5t-54.5 -21.5q-32 0 -53 21.5z" />
    <glyph glyph-name="Igrave" unicode="&#xcc;" horiz-adv-x="513" 
d="M309 0h-104v1405h104v-1405zM319 1502h-95l-197 194h133z" />
    <glyph glyph-name="Iacute" unicode="&#xcd;" horiz-adv-x="513" 
d="M309 0h-104v1405h104v-1405zM451 1696l-197 -194h-95l159 194h133z" />
    <glyph glyph-name="Icircumflex" unicode="&#xce;" horiz-adv-x="513" 
d="M309 0h-104v1405h104v-1405zM254 1609l-180 -119l-43 65l208 149h32l207 -149l-44 -65z" />
    <glyph glyph-name="Idieresis" unicode="&#xcf;" horiz-adv-x="513" 
d="M309 0h-104v1405h104v-1405zM32.5 1523.5q-21.5 21.5 -21.5 53.5t21.5 52.5t54.5 20.5q32 0 53.5 -21t21.5 -52q0 -32 -21.5 -53.5t-53.5 -21.5q-33 0 -54.5 21.5zM368 1523.5q-21 21.5 -21 53.5q0 31 21 52t53 21q33 0 54.5 -20.5t21.5 -52.5t-21.5 -53.5t-54.5 -21.5
q-32 0 -53 21.5z" />
    <glyph glyph-name="Eth" unicode="&#xd0;" horiz-adv-x="1494" 
d="M671 1405q198 0 363 -93.5t261 -255t96 -355.5q0 -193 -96 -354t-260 -254t-361 -93h-469v660h-170v94h170v651h466zM676 99q168 0 308 80t221 218t81 304q0 167 -82 305.5t-223 218.5t-310 80h-362v-551h318v-94h-318v-561h367z" />
    <glyph glyph-name="Ntilde" unicode="&#xd1;" horiz-adv-x="1568" 
d="M309 0h-104v1405h100l955 -1232v1232h103v-1405h-98l-956 1234v-1234zM521 1523q23 71 64 105t86 34q27 0 52 -10t60 -30q29 -17 49 -25.5t40 -8.5q28 0 45 17t36 61l68 -23q-23 -71 -64 -105t-85 -34q-28 0 -53.5 10.5t-60.5 30.5q-29 16 -48.5 24.5t-38.5 8.5
q-27 0 -45 -17t-36 -61z" />
    <glyph glyph-name="Ograve" unicode="&#xd2;" horiz-adv-x="1646" 
d="M459.5 74q-165.5 96 -261.5 262t-96 366q0 201 96 367t261.5 262t363.5 96q199 0 364 -96t261 -262t96 -367q0 -200 -96 -366t-261.5 -262t-363.5 -96t-363.5 96zM1132.5 161.5q141.5 82.5 224 225t82.5 315.5t-82.5 316t-224 225.5t-309.5 82.5q-167 0 -308.5 -82.5
t-224 -225.5t-82.5 -316t82.5 -315.5t224 -225t308.5 -82.5q168 0 309.5 82.5zM887 1519h-95l-197 194h133z" />
    <glyph glyph-name="Oacute" unicode="&#xd3;" horiz-adv-x="1646" 
d="M459.5 74q-165.5 96 -261.5 262t-96 366q0 201 96 367t261.5 262t363.5 96q199 0 364 -96t261 -262t96 -367q0 -200 -96 -366t-261.5 -262t-363.5 -96t-363.5 96zM1132.5 161.5q141.5 82.5 224 225t82.5 315.5t-82.5 316t-224 225.5t-309.5 82.5q-167 0 -308.5 -82.5
t-224 -225.5t-82.5 -316t82.5 -315.5t224 -225t308.5 -82.5q168 0 309.5 82.5zM1019 1713l-197 -194h-95l159 194h133z" />
    <glyph glyph-name="Ocircumflex" unicode="&#xd4;" horiz-adv-x="1646" 
d="M459.5 74q-165.5 96 -261.5 262t-96 366q0 201 96 367t261.5 262t363.5 96q199 0 364 -96t261 -262t96 -367q0 -200 -96 -366t-261.5 -262t-363.5 -96t-363.5 96zM1132.5 161.5q141.5 82.5 224 225t82.5 315.5t-82.5 316t-224 225.5t-309.5 82.5q-167 0 -308.5 -82.5
t-224 -225.5t-82.5 -316t82.5 -315.5t224 -225t308.5 -82.5q168 0 309.5 82.5zM822 1626l-180 -119l-43 65l208 149h32l207 -149l-44 -65z" />
    <glyph glyph-name="Otilde" unicode="&#xd5;" horiz-adv-x="1646" 
d="M459.5 74q-165.5 96 -261.5 262t-96 366q0 201 96 367t261.5 262t363.5 96q199 0 364 -96t261 -262t96 -367q0 -200 -96 -366t-261.5 -262t-363.5 -96t-363.5 96zM1132.5 161.5q141.5 82.5 224 225t82.5 315.5t-82.5 316t-224 225.5t-309.5 82.5q-167 0 -308.5 -82.5
t-224 -225.5t-82.5 -316t82.5 -315.5t224 -225t308.5 -82.5q168 0 309.5 82.5zM578 1540q23 71 64 105t86 34q27 0 52 -10t60 -30q29 -17 49 -25.5t40 -8.5q28 0 45 17t36 61l68 -23q-23 -71 -64 -105t-85 -34q-28 0 -53.5 10.5t-60.5 30.5q-29 16 -48.5 24.5t-38.5 8.5
q-27 0 -45 -17t-36 -61z" />
    <glyph glyph-name="Odieresis" unicode="&#xd6;" horiz-adv-x="1646" 
d="M459.5 74q-165.5 96 -261.5 262t-96 366q0 201 96 367t261.5 262t363.5 96q199 0 364 -96t261 -262t96 -367q0 -200 -96 -366t-261.5 -262t-363.5 -96t-363.5 96zM1132.5 161.5q141.5 82.5 224 225t82.5 315.5t-82.5 316t-224 225.5t-309.5 82.5q-167 0 -308.5 -82.5
t-224 -225.5t-82.5 -316t82.5 -315.5t224 -225t308.5 -82.5q168 0 309.5 82.5zM600.5 1540.5q-21.5 21.5 -21.5 53.5t21.5 52.5t54.5 20.5q32 0 53.5 -21t21.5 -52q0 -32 -21.5 -53.5t-53.5 -21.5q-33 0 -54.5 21.5zM936 1540.5q-21 21.5 -21 53.5q0 31 21 52t53 21
q33 0 54.5 -20.5t21.5 -52.5t-21.5 -53.5t-54.5 -21.5q-32 0 -53 21.5z" />
    <glyph glyph-name="multiply" unicode="&#xd7;" horiz-adv-x="947" 
d="M476 587l-306 -305l-68 64l306 307l-302 304l67 64l303 -304l301 303l67 -64l-302 -304l302 -302l-66 -65z" />
    <glyph glyph-name="Oslash" unicode="&#xd8;" horiz-adv-x="1646" 
d="M1249 1290q138 -99 216.5 -253t78.5 -335q0 -200 -96 -366t-261.5 -262t-363.5 -96q-184 0 -343 85l-92 -146h-119l125 200q-136 99 -214 252.5t-78 332.5q0 201 96 367t261.5 262t363.5 96q185 0 342 -84l93 148h117zM272.5 420.5q64.5 -129.5 177.5 -215.5l660 1051
q-134 70 -287 70q-167 0 -308.5 -82.5t-224 -225.5t-82.5 -316q0 -152 64.5 -281.5zM1132.5 161.5q141.5 82.5 224 225t82.5 315.5q0 153 -65.5 283.5t-179.5 217.5l-660 -1053q136 -71 289 -71q168 0 309.5 82.5z" />
    <glyph glyph-name="Ugrave" unicode="&#xd9;" horiz-adv-x="1461" 
d="M424 54q-128 79 -194 220t-66 326v806h103v-801q0 -158 53.5 -278t158 -186.5t253.5 -66.5q148 0 252 66.5t157 186t53 278.5v801h103v-806q0 -185 -66 -326t-193.5 -220t-305.5 -79q-180 0 -308 79zM776 1502h-95l-197 194h133z" />
    <glyph glyph-name="Uacute" unicode="&#xda;" horiz-adv-x="1461" 
d="M424 54q-128 79 -194 220t-66 326v806h103v-801q0 -158 53.5 -278t158 -186.5t253.5 -66.5q148 0 252 66.5t157 186t53 278.5v801h103v-806q0 -185 -66 -326t-193.5 -220t-305.5 -79q-180 0 -308 79zM908 1696l-197 -194h-95l159 194h133z" />
    <glyph glyph-name="Ucircumflex" unicode="&#xdb;" horiz-adv-x="1461" 
d="M424 54q-128 79 -194 220t-66 326v806h103v-801q0 -158 53.5 -278t158 -186.5t253.5 -66.5q148 0 252 66.5t157 186t53 278.5v801h103v-806q0 -185 -66 -326t-193.5 -220t-305.5 -79q-180 0 -308 79zM711 1609l-180 -119l-43 65l208 149h32l207 -149l-44 -65z" />
    <glyph glyph-name="Udieresis" unicode="&#xdc;" horiz-adv-x="1461" 
d="M424 54q-128 79 -194 220t-66 326v806h103v-801q0 -158 53.5 -278t158 -186.5t253.5 -66.5q148 0 252 66.5t157 186t53 278.5v801h103v-806q0 -185 -66 -326t-193.5 -220t-305.5 -79q-180 0 -308 79zM489.5 1523.5q-21.5 21.5 -21.5 53.5t21.5 52.5t54.5 20.5
q32 0 53.5 -21t21.5 -52q0 -32 -21.5 -53.5t-53.5 -21.5q-33 0 -54.5 21.5zM825 1523.5q-21 21.5 -21 53.5q0 31 21 52t53 21q33 0 54.5 -20.5t21.5 -52.5t-21.5 -53.5t-54.5 -21.5q-32 0 -53 21.5z" />
    <glyph glyph-name="Yacute" unicode="&#xdd;" horiz-adv-x="1105" 
d="M605 0h-104v614l-481 791h121l412 -690l411 690h121l-480 -790v-615zM750 1696l-197 -194h-95l159 194h133z" />
    <glyph glyph-name="Thorn" unicode="&#xde;" horiz-adv-x="1185" 
d="M627 1150q127 0 231 -56.5t164 -157.5t60 -228q0 -128 -59.5 -228.5t-163 -156.5t-230.5 -56h-320v-267h-104v1405h104v-255h318zM620 366q100 0 182 43.5t129.5 121t47.5 176.5q0 98 -48 176.5t-131 122.5t-183 44h-308v-684h311z" />
    <glyph glyph-name="germandbls" unicode="&#xdf;" horiz-adv-x="1225" 
d="M166 1108q0 115 53.5 207.5t152.5 145.5t230 53t230.5 -51t153.5 -140t54 -198q0 -88 -33.5 -154t-88 -106.5t-117.5 -58.5q92 -18 168 -69t121.5 -132.5t45.5 -186.5q0 -127 -63 -221.5t-173 -145.5t-247 -51h-155v94h157q107 0 194 39t137.5 113t50.5 173
q0 97 -49.5 172t-136 116.5t-192.5 41.5h-33v90h24q64 0 131.5 29t114 91t46.5 155q0 87 -42.5 156.5t-120 109t-177.5 39.5t-176.5 -41.5t-118.5 -113t-42 -160.5v-1104h-99v1108z" />
    <glyph glyph-name="agrave" unicode="&#xe0;" horiz-adv-x="1260" 
d="M995 1027h100v-1027h-98v217l1 14q-63 -116 -170 -185t-242 -69q-137 0 -251 71t-180 193.5t-66 270.5t66 271t180 194.5t251 71.5q133 0 239.5 -67.5t169.5 -182.5v228zM799 130.5q94 57.5 147.5 157.5t53.5 224q0 123 -54 223.5t-147.5 158.5t-207.5 58
q-113 0 -205 -58t-145 -158.5t-53 -223.5q0 -124 53 -224t145 -157.5t205 -57.5q114 0 208 57.5zM734 1216h-89l-175 252h123z" />
    <glyph glyph-name="aacute" unicode="&#xe1;" horiz-adv-x="1260" 
d="M995 1027h100v-1027h-98v217l1 14q-63 -116 -170 -185t-242 -69q-137 0 -251 71t-180 193.5t-66 270.5t66 271t180 194.5t251 71.5q133 0 239.5 -67.5t169.5 -182.5v228zM799 130.5q94 57.5 147.5 157.5t53.5 224q0 123 -54 223.5t-147.5 158.5t-207.5 58
q-113 0 -205 -58t-145 -158.5t-53 -223.5q0 -124 53 -224t145 -157.5t205 -57.5q114 0 208 57.5zM854 1468l-175 -252h-89l141 252h123z" />
    <glyph glyph-name="acircumflex" unicode="&#xe2;" horiz-adv-x="1260" 
d="M995 1027h100v-1027h-98v217l1 14q-63 -116 -170 -185t-242 -69q-137 0 -251 71t-180 193.5t-66 270.5t66 271t180 194.5t251 71.5q133 0 239.5 -67.5t169.5 -182.5v228zM799 130.5q94 57.5 147.5 157.5t53.5 224q0 123 -54 223.5t-147.5 158.5t-207.5 58
q-113 0 -205 -58t-145 -158.5t-53 -223.5q0 -124 53 -224t145 -157.5t205 -57.5q114 0 208 57.5zM620 1351l-189 -146l-52 60l220 181h43l219 -181l-52 -60z" />
    <glyph glyph-name="atilde" unicode="&#xe3;" horiz-adv-x="1260" 
d="M995 1027h100v-1027h-98v217l1 14q-63 -116 -170 -185t-242 -69q-137 0 -251 71t-180 193.5t-66 270.5t66 271t180 194.5t251 71.5q133 0 239.5 -67.5t169.5 -182.5v228zM799 130.5q94 57.5 147.5 157.5t53.5 224q0 123 -54 223.5t-147.5 158.5t-207.5 58
q-113 0 -205 -58t-145 -158.5t-53 -223.5q0 -124 53 -224t145 -157.5t205 -57.5q114 0 208 57.5zM370 1231q23 71 64 105t86 34q27 0 52 -10t60 -30q29 -17 49 -25.5t40 -8.5q28 0 45 17t36 61l68 -23q-23 -71 -64 -105t-85 -34q-28 0 -53.5 10.5t-60.5 30.5
q-29 16 -48.5 24.5t-38.5 8.5q-27 0 -45 -17t-36 -61z" />
    <glyph glyph-name="adieresis" unicode="&#xe4;" horiz-adv-x="1260" 
d="M995 1027h100v-1027h-98v217l1 14q-63 -116 -170 -185t-242 -69q-137 0 -251 71t-180 193.5t-66 270.5t66 271t180 194.5t251 71.5q133 0 239.5 -67.5t169.5 -182.5v228zM799 130.5q94 57.5 147.5 157.5t53.5 224q0 123 -54 223.5t-147.5 158.5t-207.5 58
q-113 0 -205 -58t-145 -158.5t-53 -223.5q0 -124 53 -224t145 -157.5t205 -57.5q114 0 208 57.5zM397.5 1235.5q-21.5 21.5 -21.5 53.5t21.5 52.5t54.5 20.5q32 0 53.5 -21t21.5 -52q0 -32 -21.5 -53.5t-53.5 -21.5q-33 0 -54.5 21.5zM733 1235.5q-21 21.5 -21 53.5
q0 31 21 52t53 21q33 0 54.5 -20.5t21.5 -52.5t-21.5 -53.5t-54.5 -21.5q-32 0 -53 21.5z" />
    <glyph glyph-name="aring" unicode="&#xe5;" horiz-adv-x="1260" 
d="M995 1027h100v-1027h-98v217l1 14q-63 -116 -170 -185t-242 -69q-137 0 -251 71t-180 193.5t-66 270.5t66 271t180 194.5t251 71.5q133 0 239.5 -67.5t169.5 -182.5v228zM799 130.5q94 57.5 147.5 157.5t53.5 224q0 123 -54 223.5t-147.5 158.5t-207.5 58
q-113 0 -205 -58t-145 -158.5t-53 -223.5q0 -124 53 -224t145 -157.5t205 -57.5q114 0 208 57.5zM520 1247q-38 37 -38 96q0 58 38 95t99 37t99 -37t38 -95q0 -59 -38 -96t-99 -37t-99 37zM674 1289q21 21 21 54t-21 53.5t-55 20.5t-55 -20.5t-21 -53.5t21 -54t55 -21t55 21
z" />
    <glyph glyph-name="ae" unicode="&#xe6;" horiz-adv-x="2076" 
d="M1764.5 979q107.5 -69 165 -190.5t57.5 -275.5q0 -25 -2 -38h-852q8 -116 64.5 -208.5t148.5 -144.5t202 -52q97 0 179.5 34.5t145.5 97.5l55 -72q-75 -74 -172 -114.5t-213 -40.5q-137 0 -251 67.5t-182 183.5l1 -226h-98l-1 239q-64 -120 -174.5 -191.5t-244.5 -71.5
q-138 0 -253.5 71t-183 193.5t-67.5 270.5t68.5 271.5t184.5 195t253 71.5q133 0 243.5 -72t173.5 -193l1 243h98l-1 -219q64 111 169 175.5t234 64.5q144 0 251.5 -69zM806.5 127q94.5 58 150.5 159.5t56 224.5q0 122 -56.5 224t-151 161t-203.5 59q-113 0 -208 -59
t-150.5 -160.5t-55.5 -224.5q0 -124 55.5 -225t150.5 -159t208 -58q110 0 204.5 58zM1331 904.5q-83 -49.5 -134.5 -137.5t-62.5 -200h754q-10 115 -57.5 202.5t-128 136t-186.5 48.5q-102 0 -185 -49.5z" />
    <glyph glyph-name="ccedilla" unicode="&#xe7;" horiz-adv-x="1054" 
d="M1001 129q-65 -63 -147.5 -102.5t-176.5 -48.5q24 -40 40.5 -82.5t16.5 -75.5q0 -58 -45.5 -95t-150.5 -49l-16 66q54 7 81 20t35.5 28.5t8.5 38.5q0 53 -52 147q-140 6 -255.5 79t-183 193t-67.5 263q0 148 71.5 271t193.5 195t267 72q112 0 208.5 -40.5t170.5 -114.5
l-55 -71q-65 64 -146 98.5t-174 34.5q-118 0 -218.5 -59t-159.5 -161t-59 -225q0 -122 59.5 -223.5t159.5 -160t218 -58.5q94 0 175.5 34t145.5 96z" />
    <glyph glyph-name="egrave" unicode="&#xe8;" horiz-adv-x="1130" 
d="M818.5 979q107.5 -69 165 -190.5t57.5 -275.5q0 -25 -2 -38h-852q8 -116 64.5 -208.5t148.5 -144.5t202 -52q97 0 179.5 34.5t145.5 97.5l55 -72q-75 -74 -172 -114.5t-213 -40.5q-141 0 -257.5 71t-183.5 194t-67 271q0 149 61.5 271.5t171 194t245.5 71.5
q144 0 251.5 -69zM385 904.5q-83 -49.5 -134.5 -137.5t-62.5 -200h754q-10 115 -57.5 202.5t-128 136t-186.5 48.5q-102 0 -185 -49.5zM679 1218h-89l-175 252h123z" />
    <glyph glyph-name="eacute" unicode="&#xe9;" horiz-adv-x="1130" 
d="M818.5 979q107.5 -69 165 -190.5t57.5 -275.5q0 -25 -2 -38h-852q8 -116 64.5 -208.5t148.5 -144.5t202 -52q97 0 179.5 34.5t145.5 97.5l55 -72q-75 -74 -172 -114.5t-213 -40.5q-141 0 -257.5 71t-183.5 194t-67 271q0 149 61.5 271.5t171 194t245.5 71.5
q144 0 251.5 -69zM385 904.5q-83 -49.5 -134.5 -137.5t-62.5 -200h754q-10 115 -57.5 202.5t-128 136t-186.5 48.5q-102 0 -185 -49.5zM800 1470l-175 -252h-89l141 252h123z" />
    <glyph glyph-name="ecircumflex" unicode="&#xea;" horiz-adv-x="1130" 
d="M818.5 979q107.5 -69 165 -190.5t57.5 -275.5q0 -25 -2 -38h-852q8 -116 64.5 -208.5t148.5 -144.5t202 -52q97 0 179.5 34.5t145.5 97.5l55 -72q-75 -74 -172 -114.5t-213 -40.5q-141 0 -257.5 71t-183.5 194t-67 271q0 149 61.5 271.5t171 194t245.5 71.5
q144 0 251.5 -69zM385 904.5q-83 -49.5 -134.5 -137.5t-62.5 -200h754q-10 115 -57.5 202.5t-128 136t-186.5 48.5q-102 0 -185 -49.5zM565 1353l-189 -146l-52 60l220 181h43l219 -181l-52 -60z" />
    <glyph glyph-name="edieresis" unicode="&#xeb;" horiz-adv-x="1130" 
d="M818.5 979q107.5 -69 165 -190.5t57.5 -275.5q0 -25 -2 -38h-852q8 -116 64.5 -208.5t148.5 -144.5t202 -52q97 0 179.5 34.5t145.5 97.5l55 -72q-75 -74 -172 -114.5t-213 -40.5q-141 0 -257.5 71t-183.5 194t-67 271q0 149 61.5 271.5t171 194t245.5 71.5
q144 0 251.5 -69zM385 904.5q-83 -49.5 -134.5 -137.5t-62.5 -200h754q-10 115 -57.5 202.5t-128 136t-186.5 48.5q-102 0 -185 -49.5zM342.5 1237.5q-21.5 21.5 -21.5 53.5t21.5 52.5t54.5 20.5q32 0 53.5 -21t21.5 -52q0 -32 -21.5 -53.5t-53.5 -21.5q-33 0 -54.5 21.5z
M678 1237.5q-21 21.5 -21 53.5q0 31 21 52t53 21q33 0 54.5 -20.5t21.5 -52.5t-21.5 -53.5t-54.5 -21.5q-32 0 -53 21.5z" />
    <glyph glyph-name="igrave" unicode="&#xec;" horiz-adv-x="430" 
d="M265 0h-99v1027h99v-1027zM327 1218h-89l-175 252h123z" />
    <glyph glyph-name="iacute" unicode="&#xed;" horiz-adv-x="430" 
d="M265 0h-99v1027h99v-1027zM448 1470l-175 -252h-89l141 252h123z" />
    <glyph glyph-name="icircumflex" unicode="&#xee;" horiz-adv-x="430" 
d="M265 0h-99v1027h99v-1027zM214 1353l-189 -146l-52 60l220 181h43l219 -181l-52 -60z" />
    <glyph glyph-name="idieresis" unicode="&#xef;" horiz-adv-x="430" 
d="M265 0h-99v1027h99v-1027zM-8.5 1237.5q-21.5 21.5 -21.5 53.5t21.5 52.5t54.5 20.5q32 0 53.5 -21t21.5 -52q0 -32 -21.5 -53.5t-53.5 -21.5q-33 0 -54.5 21.5zM327 1237.5q-21 21.5 -21 53.5q0 31 21 52t53 21q33 0 54.5 -20.5t21.5 -52.5t-21.5 -53.5t-54.5 -21.5
q-32 0 -53 21.5z" />
    <glyph glyph-name="eth" unicode="&#xf0;" horiz-adv-x="1162" 
d="M799 1313q274 -339 274 -780q0 -164 -62 -291t-172 -197t-249 -70q-137 0 -252 65t-182 177.5t-67 248.5q0 133 65.5 245t178 177t245.5 65q192 0 358 -130q-59 238 -222 440l-165 -98l-36 55l158 93q-61 70 -147 142l81 56q89 -77 151 -149l172 101l34 -54zM788 126.5
q86 56.5 134.5 160.5t48.5 242q0 89 -13 185q-81 66 -169 107.5t-202 41.5q-108 0 -199 -52.5t-144.5 -143.5t-53.5 -201q0 -112 53.5 -202.5t145.5 -142t202 -51.5q111 0 197 56.5z" />
    <glyph glyph-name="ntilde" unicode="&#xf1;" horiz-adv-x="1175" 
d="M859 999.5q91 -50.5 141 -148t50 -235.5v-616h-100v603q0 169 -85.5 260t-236.5 91q-96 0 -179.5 -47t-133.5 -130t-50 -188v-589h-99v1027h95v-188q33 60 91.5 108t134.5 75.5t159 27.5q122 0 213 -50.5zM378 1238q23 71 64 105t86 34q27 0 52 -10t60 -30
q29 -17 49 -25.5t40 -8.5q28 0 45 17t36 61l68 -23q-23 -71 -64 -105t-85 -34q-28 0 -53.5 10.5t-60.5 30.5q-29 16 -48.5 24.5t-38.5 8.5q-27 0 -45 -17t-36 -61z" />
    <glyph glyph-name="ograve" unicode="&#xf2;" horiz-adv-x="1237" 
d="M352.5 46q-121.5 71 -192.5 194t-71 271t71 271.5t192.5 195t266.5 71.5q144 0 265.5 -71.5t192.5 -195t71 -271.5q0 -147 -71 -270t-192.5 -194.5t-266.5 -71.5q-144 0 -265.5 71zM835.5 128q98.5 58 156 159t57.5 224q0 122 -57.5 223.5t-156 160t-215.5 58.5
q-118 0 -217 -58.5t-157 -160t-58 -223.5q0 -123 58 -224t157 -159t217 -58q117 0 215.5 58zM728 1219h-89l-175 252h123z" />
    <glyph glyph-name="oacute" unicode="&#xf3;" horiz-adv-x="1237" 
d="M352.5 46q-121.5 71 -192.5 194t-71 271t71 271.5t192.5 195t266.5 71.5q144 0 265.5 -71.5t192.5 -195t71 -271.5q0 -147 -71 -270t-192.5 -194.5t-266.5 -71.5q-144 0 -265.5 71zM835.5 128q98.5 58 156 159t57.5 224q0 122 -57.5 223.5t-156 160t-215.5 58.5
q-118 0 -217 -58.5t-157 -160t-58 -223.5q0 -123 58 -224t157 -159t217 -58q117 0 215.5 58zM848 1471l-175 -252h-89l141 252h123z" />
    <glyph glyph-name="ocircumflex" unicode="&#xf4;" horiz-adv-x="1237" 
d="M352.5 46q-121.5 71 -192.5 194t-71 271t71 271.5t192.5 195t266.5 71.5q144 0 265.5 -71.5t192.5 -195t71 -271.5q0 -147 -71 -270t-192.5 -194.5t-266.5 -71.5q-144 0 -265.5 71zM835.5 128q98.5 58 156 159t57.5 224q0 122 -57.5 223.5t-156 160t-215.5 58.5
q-118 0 -217 -58.5t-157 -160t-58 -223.5q0 -123 58 -224t157 -159t217 -58q117 0 215.5 58zM614 1354l-189 -146l-52 60l220 181h43l219 -181l-52 -60z" />
    <glyph glyph-name="otilde" unicode="&#xf5;" horiz-adv-x="1237" 
d="M352.5 46q-121.5 71 -192.5 194t-71 271t71 271.5t192.5 195t266.5 71.5q144 0 265.5 -71.5t192.5 -195t71 -271.5q0 -147 -71 -270t-192.5 -194.5t-266.5 -71.5q-144 0 -265.5 71zM835.5 128q98.5 58 156 159t57.5 224q0 122 -57.5 223.5t-156 160t-215.5 58.5
q-118 0 -217 -58.5t-157 -160t-58 -223.5q0 -123 58 -224t157 -159t217 -58q117 0 215.5 58zM364 1234q23 71 64 105t86 34q27 0 52 -10t60 -30q29 -17 49 -25.5t40 -8.5q28 0 45 17t36 61l68 -23q-23 -71 -64 -105t-85 -34q-28 0 -53.5 10.5t-60.5 30.5q-29 16 -48.5 24.5
t-38.5 8.5q-27 0 -45 -17t-36 -61z" />
    <glyph glyph-name="odieresis" unicode="&#xf6;" horiz-adv-x="1237" 
d="M352.5 46q-121.5 71 -192.5 194t-71 271t71 271.5t192.5 195t266.5 71.5q144 0 265.5 -71.5t192.5 -195t71 -271.5q0 -147 -71 -270t-192.5 -194.5t-266.5 -71.5q-144 0 -265.5 71zM835.5 128q98.5 58 156 159t57.5 224q0 122 -57.5 223.5t-156 160t-215.5 58.5
q-118 0 -217 -58.5t-157 -160t-58 -223.5q0 -123 58 -224t157 -159t217 -58q117 0 215.5 58zM391.5 1238.5q-21.5 21.5 -21.5 53.5t21.5 52.5t54.5 20.5q32 0 53.5 -21t21.5 -52q0 -32 -21.5 -53.5t-53.5 -21.5q-33 0 -54.5 21.5zM727 1238.5q-21 21.5 -21 53.5q0 31 21 52
t53 21q33 0 54.5 -20.5t21.5 -52.5t-21.5 -53.5t-54.5 -21.5q-32 0 -53 21.5z" />
    <glyph glyph-name="divide" unicode="&#xf7;" horiz-adv-x="1155" 
d="M521 1015q-23 22 -23 54q0 33 22.5 56.5t57.5 23.5t58 -23.5t23 -56.5q0 -32 -23 -54t-59 -22q-33 0 -56 22zM1053 633h-951v103h951v-103zM520.5 238q-22.5 22 -22.5 54q0 33 22.5 56.5t57.5 23.5t58 -23.5t23 -56.5q0 -32 -23 -54t-59 -22q-34 0 -56.5 22z" />
    <glyph glyph-name="oslash" unicode="&#xf8;" horiz-adv-x="1237" 
d="M988 899q76 -75 118 -175t42 -213q0 -147 -71 -270t-192.5 -194.5t-266.5 -71.5q-84 0 -161.5 25t-143.5 72l-90 -110h-108l133 163q-75 74 -117 173.5t-42 212.5q0 148 71 271.5t192.5 195t266.5 71.5q84 0 161.5 -25t142.5 -71l89 109h109zM220 340.5
q32 -79.5 90 -139.5l552 677q-110 75 -242 75q-118 0 -217 -58.5t-157 -160t-58 -223.5q0 -91 32 -170.5zM835.5 128q98.5 58 156 159t57.5 224q0 91 -32.5 171.5t-90.5 140.5l-552 -676q110 -77 246 -77q117 0 215.5 58z" />
    <glyph glyph-name="ugrave" unicode="&#xf9;" horiz-adv-x="1175" 
d="M910 1027h99v-1027h-95v188q-33 -60 -91.5 -108t-134.5 -75.5t-159 -27.5q-122 0 -213 50.5t-141 148t-50 235.5v616h100v-603q0 -169 85.5 -260t236.5 -91q96 0 179.5 47t133.5 130t50 188v589zM708 1218h-89l-175 252h123z" />
    <glyph glyph-name="uacute" unicode="&#xfa;" horiz-adv-x="1175" 
d="M910 1027h99v-1027h-95v188q-33 -60 -91.5 -108t-134.5 -75.5t-159 -27.5q-122 0 -213 50.5t-141 148t-50 235.5v616h100v-603q0 -169 85.5 -260t236.5 -91q96 0 179.5 47t133.5 130t50 188v589zM829 1470l-175 -252h-89l141 252h123z" />
    <glyph glyph-name="ucircumflex" unicode="&#xfb;" horiz-adv-x="1175" 
d="M910 1027h99v-1027h-95v188q-33 -60 -91.5 -108t-134.5 -75.5t-159 -27.5q-122 0 -213 50.5t-141 148t-50 235.5v616h100v-603q0 -169 85.5 -260t236.5 -91q96 0 179.5 47t133.5 130t50 188v589zM595 1353l-189 -146l-52 60l220 181h43l219 -181l-52 -60z" />
    <glyph glyph-name="udieresis" unicode="&#xfc;" horiz-adv-x="1175" 
d="M910 1027h99v-1027h-95v188q-33 -60 -91.5 -108t-134.5 -75.5t-159 -27.5q-122 0 -213 50.5t-141 148t-50 235.5v616h100v-603q0 -169 85.5 -260t236.5 -91q96 0 179.5 47t133.5 130t50 188v589zM372.5 1237.5q-21.5 21.5 -21.5 53.5t21.5 52.5t54.5 20.5q32 0 53.5 -21
t21.5 -52q0 -32 -21.5 -53.5t-53.5 -21.5q-33 0 -54.5 21.5zM708 1237.5q-21 21.5 -21 53.5q0 31 21 52t53 21q33 0 54.5 -20.5t21.5 -52.5t-21.5 -53.5t-54.5 -21.5q-32 0 -53 21.5z" />
    <glyph glyph-name="yacute" unicode="&#xfd;" horiz-adv-x="1010" 
d="M410 -355h-107l150 355l-426 1027h108l369 -908l369 908h110zM736 1470l-175 -252h-89l141 252h123z" />
    <glyph glyph-name="thorn" unicode="&#xfe;" horiz-adv-x="1261" 
d="M926 977.5q114 -71.5 180 -194.5t66 -271t-66 -270.5t-180.5 -193.5t-251.5 -71q-133 0 -239.5 67.5t-169.5 182.5v-582h-99v1850h99v-697q63 115 169.5 183t240.5 68q137 0 251 -71.5zM874.5 130.5q92.5 57.5 145.5 157.5t53 224q0 123 -53 223.5t-145.5 158.5
t-205.5 58t-206 -57t-147.5 -156t-55.5 -220l1 -45q8 -114 64 -205.5t146 -143.5t198 -52q113 0 205.5 57.5z" />
    <glyph glyph-name="ydieresis" unicode="&#xff;" horiz-adv-x="1010" 
d="M410 -355h-107l150 355l-426 1027h108l369 -908l369 908h110zM279.5 1237.5q-21.5 21.5 -21.5 53.5t21.5 52.5t54.5 20.5q32 0 53.5 -21t21.5 -52q0 -32 -21.5 -53.5t-53.5 -21.5q-33 0 -54.5 21.5zM615 1237.5q-21 21.5 -21 53.5q0 31 21 52t53 21q33 0 54.5 -20.5
t21.5 -52.5t-21.5 -53.5t-54.5 -21.5q-32 0 -53 21.5z" />
    <glyph glyph-name="Amacron" unicode="&#x100;" horiz-adv-x="1284" 
d="M1264 0h-109l-147 368h-732l-147 -368h-109l572 1406h99zM635 1268l-321 -804h655l-322 804l-6 16zM845 1506h-413v81h413v-81z" />
    <glyph glyph-name="amacron" unicode="&#x101;" horiz-adv-x="1260" 
d="M995 1027h100v-1027h-98v217l1 14q-63 -116 -170 -185t-242 -69q-137 0 -251 71t-180 193.5t-66 270.5t66 271t180 194.5t251 71.5q133 0 239.5 -67.5t169.5 -182.5v228zM799 130.5q94 57.5 147.5 157.5t53.5 224q0 123 -54 223.5t-147.5 158.5t-207.5 58
q-113 0 -205 -58t-145 -158.5t-53 -223.5q0 -124 53 -224t145 -157.5t205 -57.5q114 0 208 57.5zM826 1222h-413v81h413v-81z" />
    <glyph glyph-name="Abreve" unicode="&#x102;" horiz-adv-x="1284" 
d="M1264 0h-109l-147 368h-732l-147 -368h-109l572 1406h99zM635 1268l-321 -804h655l-322 804l-6 16zM525.5 1521.5q-47.5 27.5 -72.5 74t-27 102.5h90q-1 -58 28.5 -92.5t95.5 -34.5t95.5 34.5t28.5 92.5h89q-2 -57 -26.5 -103.5t-72 -73.5t-114.5 -27t-114.5 27.5z" />
    <glyph glyph-name="abreve" unicode="&#x103;" horiz-adv-x="1260" 
d="M995 1027h100v-1027h-98v217l1 14q-63 -116 -170 -185t-242 -69q-137 0 -251 71t-180 193.5t-66 270.5t66 271t180 194.5t251 71.5q133 0 239.5 -67.5t169.5 -182.5v228zM799 130.5q94 57.5 147.5 157.5t53.5 224q0 123 -54 223.5t-147.5 158.5t-207.5 58
q-113 0 -205 -58t-145 -158.5t-53 -223.5q0 -124 53 -224t145 -157.5t205 -57.5q114 0 208 57.5zM502.5 1238q-49.5 28 -77 78t-28.5 114h90q-1 -68 33 -105.5t98 -37.5q65 0 99.5 37.5t33.5 105.5h89q-2 -64 -29.5 -114t-77 -78t-115.5 -28t-115.5 28z" />
    <glyph glyph-name="Aogonek" unicode="&#x104;" horiz-adv-x="1284" 
d="M1264 0h-109l-147 368h-732l-147 -368h-109l572 1406h99zM635 1268l-321 -804h655l-322 804l-6 16zM1264 0q-61 -49 -92.5 -98t-31.5 -89q0 -32 21.5 -55t68.5 -23q26 0 58 7l5 -68q-23 -8 -41.5 -10.5t-41.5 -2.5q-79 0 -119.5 38t-40.5 95q0 51 39 106.5t91 99.5h84z
" />
    <glyph glyph-name="aogonek" unicode="&#x105;" horiz-adv-x="1260" 
d="M1124 -311q-23 -8 -41.5 -10.5t-42.5 -2.5q-72 0 -111 36t-39 90q0 51 40 106.5t88 91.5h-21v217l1 14q-63 -116 -170 -185t-242 -69q-137 0 -251 71t-180 193.5t-66 270.5t66 271t180 194.5t251 71.5q133 0 239.5 -67.5t169.5 -182.5v228h100v-1027h-1q-57 -44 -89 -93
t-32 -89q0 -31 21.5 -52.5t66.5 -21.5q23 0 57 6zM799 130.5q94 57.5 147.5 157.5t53.5 224q0 123 -54 223.5t-147.5 158.5t-207.5 58q-113 0 -205 -58t-145 -158.5t-53 -223.5q0 -124 53 -224t145 -157.5t205 -57.5q114 0 208 57.5z" />
    <glyph glyph-name="Cacute" unicode="&#x106;" horiz-adv-x="1376" 
d="M459.5 74q-165.5 96 -261.5 262t-96 366q0 201 96 367t261.5 262t363.5 96q138 0 258.5 -47t217.5 -131l-60 -77q-87 73 -193 113.5t-223 40.5q-167 0 -308.5 -82.5t-224 -225.5t-82.5 -316t82.5 -315.5t224 -225t308.5 -82.5q224 0 417 160l59 -79q-99 -84 -219.5 -133
t-256.5 -49q-198 0 -363.5 96zM1017 1700l-197 -194h-95l159 194h133z" />
    <glyph glyph-name="cacute" unicode="&#x107;" horiz-adv-x="1054" 
d="M354 46.5q-122 71.5 -193.5 194.5t-71.5 270q0 148 71.5 271t193.5 195t267 72q112 0 208.5 -40.5t170.5 -114.5l-55 -71q-65 64 -146 98.5t-174 34.5q-118 0 -218.5 -59t-159.5 -161t-59 -225q0 -122 59.5 -223.5t159.5 -160t218 -58.5q94 0 175.5 34t145.5 96l55 -70
q-74 -73 -171.5 -113.5t-207.5 -40.5q-146 0 -268 71.5zM837 1466l-175 -252h-89l141 252h123z" />
    <glyph glyph-name="Ccircumflex" unicode="&#x108;" horiz-adv-x="1376" 
d="M459.5 74q-165.5 96 -261.5 262t-96 366q0 201 96 367t261.5 262t363.5 96q138 0 258.5 -47t217.5 -131l-60 -77q-87 73 -193 113.5t-223 40.5q-167 0 -308.5 -82.5t-224 -225.5t-82.5 -316t82.5 -315.5t224 -225t308.5 -82.5q224 0 417 160l59 -79q-99 -84 -219.5 -133
t-256.5 -49q-198 0 -363.5 96zM820 1613l-180 -119l-43 65l208 149h32l207 -149l-44 -65z" />
    <glyph glyph-name="ccircumflex" unicode="&#x109;" horiz-adv-x="1054" 
d="M354 46.5q-122 71.5 -193.5 194.5t-71.5 270q0 148 71.5 271t193.5 195t267 72q112 0 208.5 -40.5t170.5 -114.5l-55 -71q-65 64 -146 98.5t-174 34.5q-118 0 -218.5 -59t-159.5 -161t-59 -225q0 -122 59.5 -223.5t159.5 -160t218 -58.5q94 0 175.5 34t145.5 96l55 -70
q-74 -73 -171.5 -113.5t-207.5 -40.5q-146 0 -268 71.5zM603 1349l-189 -146l-52 60l220 181h43l219 -181l-52 -60z" />
    <glyph glyph-name="Cdotaccent" unicode="&#x10a;" horiz-adv-x="1376" 
d="M459.5 74q-165.5 96 -261.5 262t-96 366q0 201 96 367t261.5 262t363.5 96q138 0 258.5 -47t217.5 -131l-60 -77q-87 73 -193 113.5t-223 40.5q-167 0 -308.5 -82.5t-224 -225.5t-82.5 -316t82.5 -315.5t224 -225t308.5 -82.5q224 0 417 160l59 -79q-99 -84 -219.5 -133
t-256.5 -49q-198 0 -363.5 96zM764.5 1526q-22.5 22 -22.5 56q0 33 22.5 54.5t56.5 21.5q33 0 55 -21.5t22 -54.5t-22 -55.5t-55 -22.5q-34 0 -56.5 22z" />
    <glyph glyph-name="cdotaccent" unicode="&#x10b;" horiz-adv-x="1054" 
d="M354 46.5q-122 71.5 -193.5 194.5t-71.5 270q0 148 71.5 271t193.5 195t267 72q112 0 208.5 -40.5t170.5 -114.5l-55 -71q-65 64 -146 98.5t-174 34.5q-118 0 -218.5 -59t-159.5 -161t-59 -225q0 -122 59.5 -223.5t159.5 -160t218 -58.5q94 0 175.5 34t145.5 96l55 -70
q-74 -73 -171.5 -113.5t-207.5 -40.5q-146 0 -268 71.5zM546.5 1231q-22.5 22 -22.5 56q0 33 22.5 54.5t56.5 21.5q33 0 55 -21.5t22 -54.5t-22 -55.5t-55 -22.5q-34 0 -56.5 22z" />
    <glyph glyph-name="Ccaron" unicode="&#x10c;" horiz-adv-x="1376" 
d="M459.5 74q-165.5 96 -261.5 262t-96 366q0 201 96 367t261.5 262t363.5 96q138 0 258.5 -47t217.5 -131l-60 -77q-87 73 -193 113.5t-223 40.5q-167 0 -308.5 -82.5t-224 -225.5t-82.5 -316t82.5 -315.5t224 -225t308.5 -82.5q224 0 417 160l59 -79q-99 -84 -219.5 -133
t-256.5 -49q-198 0 -363.5 96zM599 1656l43 65l180 -119l180 119l44 -65l-207 -149h-32z" />
    <glyph glyph-name="ccaron" unicode="&#x10d;" horiz-adv-x="1054" 
d="M354 46.5q-122 71.5 -193.5 194.5t-71.5 270q0 148 71.5 271t193.5 195t267 72q112 0 208.5 -40.5t170.5 -114.5l-55 -71q-65 64 -146 98.5t-174 34.5q-118 0 -218.5 -59t-159.5 -161t-59 -225q0 -122 59.5 -223.5t159.5 -160t218 -58.5q94 0 175.5 34t145.5 96l55 -70
q-74 -73 -171.5 -113.5t-207.5 -40.5q-146 0 -268 71.5zM362 1382l52 61l189 -146l189 146l52 -61l-219 -181h-43z" />
    <glyph glyph-name="Dcaron" unicode="&#x10e;" horiz-adv-x="1494" 
d="M205 0v1405h466q198 0 363 -93.5t261 -255t96 -355.5q0 -193 -96 -354t-260 -254t-361 -93h-469zM676 99q168 0 308 80t221 218t81 304q0 167 -82 305.5t-223 218.5t-310 80h-362v-1206h367zM373 1652l43 65l180 -119l180 119l44 -65l-207 -149h-32z" />
    <glyph glyph-name="dcaron" unicode="&#x10f;" horiz-adv-x="1319" 
d="M1095 1495v-1495h-98v217l1 14q-63 -116 -170 -185t-242 -69q-137 0 -251 71t-180 193.5t-66 270.5t66 271t180 194.5t251 71.5q133 0 239.5 -67.5t169.5 -182.5v696h100zM799 130.5q94 57.5 147.5 157.5t53.5 224q0 123 -54 223.5t-147.5 158.5t-207.5 58
q-113 0 -205 -58t-145 -158.5t-53 -223.5q0 -124 53 -224t145 -157.5t205 -57.5q114 0 208 57.5zM1310 1174h-79l-5 320h90z" />
    <glyph glyph-name="Dcroat" unicode="&#x110;" horiz-adv-x="1494" 
d="M671 1405q198 0 363 -93.5t261 -255t96 -355.5q0 -193 -96 -354t-260 -254t-361 -93h-469v660h-170v94h170v651h466zM676 99q168 0 308 80t221 218t81 304q0 167 -82 305.5t-223 218.5t-310 80h-362v-551h318v-94h-318v-561h367z" />
    <glyph glyph-name="dcroat" unicode="&#x111;" horiz-adv-x="1260" 
d="M1278 1339v-92h-183v-1247h-98v217l1 14q-63 -116 -170 -185t-242 -69q-137 0 -251 71t-180 193.5t-66 270.5t66 271t180 194.5t251 71.5q133 0 239.5 -67.5t169.5 -182.5v448h-310v92h310v156h100v-156h183zM799 130.5q94 57.5 147.5 157.5t53.5 224q0 123 -54 223.5
t-147.5 158.5t-207.5 58q-113 0 -205 -58t-145 -158.5t-53 -223.5q0 -124 53 -224t145 -157.5t205 -57.5q114 0 208 57.5z" />
    <glyph glyph-name="Emacron" unicode="&#x112;" horiz-adv-x="1290" 
d="M1188 0h-983v1405h969v-98h-865v-533h712v-97h-712v-578h879v-99zM885 1506h-413v81h413v-81z" />
    <glyph glyph-name="emacron" unicode="&#x113;" horiz-adv-x="1130" 
d="M818.5 979q107.5 -69 165 -190.5t57.5 -275.5q0 -25 -2 -38h-852q8 -116 64.5 -208.5t148.5 -144.5t202 -52q97 0 179.5 34.5t145.5 97.5l55 -72q-75 -74 -172 -114.5t-213 -40.5q-141 0 -257.5 71t-183.5 194t-67 271q0 149 61.5 271.5t171 194t245.5 71.5
q144 0 251.5 -69zM385 904.5q-83 -49.5 -134.5 -137.5t-62.5 -200h754q-10 115 -57.5 202.5t-128 136t-186.5 48.5q-102 0 -185 -49.5zM771 1224h-413v81h413v-81z" />
    <glyph glyph-name="Ebreve" unicode="&#x114;" horiz-adv-x="1290" 
d="M1188 0h-983v1405h969v-98h-865v-533h712v-97h-712v-578h879v-99zM565.5 1521.5q-47.5 27.5 -72.5 74t-27 102.5h90q-1 -58 28.5 -92.5t95.5 -34.5t95.5 34.5t28.5 92.5h89q-2 -57 -26.5 -103.5t-72 -73.5t-114.5 -27t-114.5 27.5z" />
    <glyph glyph-name="ebreve" unicode="&#x115;" horiz-adv-x="1130" 
d="M818.5 979q107.5 -69 165 -190.5t57.5 -275.5q0 -25 -2 -38h-852q8 -116 64.5 -208.5t148.5 -144.5t202 -52q97 0 179.5 34.5t145.5 97.5l55 -72q-75 -74 -172 -114.5t-213 -40.5q-141 0 -257.5 71t-183.5 194t-67 271q0 149 61.5 271.5t171 194t245.5 71.5
q144 0 251.5 -69zM385 904.5q-83 -49.5 -134.5 -137.5t-62.5 -200h754q-10 115 -57.5 202.5t-128 136t-186.5 48.5q-102 0 -185 -49.5zM447.5 1240q-49.5 28 -77 78t-28.5 114h90q-1 -68 33 -105.5t98 -37.5q65 0 99.5 37.5t33.5 105.5h89q-2 -64 -29.5 -114t-77 -78
t-115.5 -28t-115.5 28z" />
    <glyph glyph-name="Edotaccent" unicode="&#x116;" horiz-adv-x="1290" 
d="M1188 0h-983v1405h969v-98h-865v-533h712v-97h-712v-578h879v-99zM622.5 1522q-22.5 22 -22.5 56q0 33 22.5 54.5t56.5 21.5q33 0 55 -21.5t22 -54.5t-22 -55.5t-55 -22.5q-34 0 -56.5 22z" />
    <glyph glyph-name="edotaccent" unicode="&#x117;" horiz-adv-x="1130" 
d="M818.5 979q107.5 -69 165 -190.5t57.5 -275.5q0 -25 -2 -38h-852q8 -116 64.5 -208.5t148.5 -144.5t202 -52q97 0 179.5 34.5t145.5 97.5l55 -72q-75 -74 -172 -114.5t-213 -40.5q-141 0 -257.5 71t-183.5 194t-67 271q0 149 61.5 271.5t171 194t245.5 71.5
q144 0 251.5 -69zM385 904.5q-83 -49.5 -134.5 -137.5t-62.5 -200h754q-10 115 -57.5 202.5t-128 136t-186.5 48.5q-102 0 -185 -49.5zM509.5 1235q-22.5 22 -22.5 56q0 33 22.5 54.5t56.5 21.5q33 0 55 -21.5t22 -54.5t-22 -55.5t-55 -22.5q-34 0 -56.5 22z" />
    <glyph glyph-name="Eogonek" unicode="&#x118;" horiz-adv-x="1290" 
d="M1188 0h-983v1405h969v-98h-865v-533h712v-97h-712v-578h879v-99zM1188 0q-61 -49 -92.5 -98t-31.5 -89q0 -32 21.5 -55t68.5 -23q26 0 58 7l5 -68q-23 -8 -41.5 -10.5t-41.5 -2.5q-79 0 -119.5 38t-40.5 95q0 51 39 106.5t91 99.5h84z" />
    <glyph glyph-name="eogonek" unicode="&#x119;" horiz-adv-x="1130" 
d="M187 475q8 -116 64.5 -208.5t148.5 -144.5t202 -52q97 0 179.5 34.5t145.5 97.5l55 -72q-30 -28 -46 -41q-36 -36 -55.5 -73t-19.5 -68t21.5 -52.5t66.5 -21.5q23 0 57 6l6 -61q-23 -8 -41.5 -10.5t-42.5 -2.5q-72 0 -111 36t-39 90q0 38 24 80q-96 -37 -205 -37
q-141 0 -257.5 71t-183.5 194t-67 271q0 149 61.5 271.5t171 194t245.5 71.5q144 0 251.5 -69t165 -190.5t57.5 -275.5q0 -25 -2 -38h-852zM385 904.5q-83 -49.5 -134.5 -137.5t-62.5 -200h754q-10 115 -57.5 202.5t-128 136t-186.5 48.5q-102 0 -185 -49.5z" />
    <glyph glyph-name="Ecaron" unicode="&#x11a;" horiz-adv-x="1290" 
d="M1188 0h-983v1405h969v-98h-865v-533h712v-97h-712v-578h879v-99zM457 1652l43 65l180 -119l180 119l44 -65l-207 -149h-32z" />
    <glyph glyph-name="ecaron" unicode="&#x11b;" horiz-adv-x="1130" 
d="M818.5 979q107.5 -69 165 -190.5t57.5 -275.5q0 -25 -2 -38h-852q8 -116 64.5 -208.5t148.5 -144.5t202 -52q97 0 179.5 34.5t145.5 97.5l55 -72q-75 -74 -172 -114.5t-213 -40.5q-141 0 -257.5 71t-183.5 194t-67 271q0 149 61.5 271.5t171 194t245.5 71.5
q144 0 251.5 -69zM385 904.5q-83 -49.5 -134.5 -137.5t-62.5 -200h754q-10 115 -57.5 202.5t-128 136t-186.5 48.5q-102 0 -185 -49.5zM324 1386l52 61l189 -146l189 146l52 -61l-219 -181h-43z" />
    <glyph glyph-name="Gcircumflex" unicode="&#x11c;" horiz-adv-x="1417" 
d="M1191 628h100v-491q-98 -76 -221 -118.5t-247 -42.5q-198 0 -363.5 97t-261.5 264t-96 367t96 366.5t261.5 263t363.5 96.5q132 0 254.5 -47t215.5 -131l-63 -78q-84 72 -189 113.5t-218 41.5q-167 0 -308.5 -83t-224.5 -226.5t-83 -315.5q0 -173 83 -317t224.5 -227.5
t308.5 -83.5q91 0 191.5 29.5t176.5 79.5v443zM819 1609l-180 -119l-43 65l208 149h32l207 -149l-44 -65z" />
    <glyph glyph-name="gcircumflex" unicode="&#x11d;" horiz-adv-x="1260" 
d="M997 1027h98v-874q0 -148 -52.5 -268t-163 -192t-277.5 -72q-102 0 -201 22.5t-166 56.5l38 85q62 -32 148 -51t174 -19q141 0 231 62t130 162t40 219v45l3 63q-63 -111 -170.5 -177.5t-242.5 -66.5q-138 0 -251.5 67.5t-179.5 185t-66 261.5q0 138 66 256.5t180 188
t251 69.5q134 0 241.5 -68t170.5 -182l-1 11v216zM798.5 173.5q93.5 54.5 147.5 149t54 208.5q0 116 -54 212.5t-147.5 153t-207.5 56.5q-112 0 -204.5 -56t-145.5 -151.5t-53 -208.5q0 -119 53 -214.5t145 -149.5t205 -54q114 0 207.5 54.5zM593 1359l-189 -146l-52 60
l220 181h43l219 -181l-52 -60z" />
    <glyph glyph-name="Gbreve" unicode="&#x11e;" horiz-adv-x="1417" 
d="M1191 628h100v-491q-98 -76 -221 -118.5t-247 -42.5q-198 0 -363.5 97t-261.5 264t-96 367t96 366.5t261.5 263t363.5 96.5q132 0 254.5 -47t215.5 -131l-63 -78q-84 72 -189 113.5t-218 41.5q-167 0 -308.5 -83t-224.5 -226.5t-83 -315.5q0 -173 83 -317t224.5 -227.5
t308.5 -83.5q91 0 191.5 29.5t176.5 79.5v443zM705.5 1521.5q-47.5 27.5 -72.5 74t-27 102.5h90q-1 -58 28.5 -92.5t95.5 -34.5t95.5 34.5t28.5 92.5h89q-2 -57 -26.5 -103.5t-72 -73.5t-114.5 -27t-114.5 27.5z" />
    <glyph glyph-name="gbreve" unicode="&#x11f;" horiz-adv-x="1260" 
d="M997 1027h98v-874q0 -148 -52.5 -268t-163 -192t-277.5 -72q-102 0 -201 22.5t-166 56.5l38 85q62 -32 148 -51t174 -19q141 0 231 62t130 162t40 219v45l3 63q-63 -111 -170.5 -177.5t-242.5 -66.5q-138 0 -251.5 67.5t-179.5 185t-66 261.5q0 138 66 256.5t180 188
t251 69.5q134 0 241.5 -68t170.5 -182l-1 11v216zM798.5 173.5q93.5 54.5 147.5 149t54 208.5q0 116 -54 212.5t-147.5 153t-207.5 56.5q-112 0 -204.5 -56t-145.5 -151.5t-53 -208.5q0 -119 53 -214.5t145 -149.5t205 -54q114 0 207.5 54.5zM475.5 1246q-49.5 28 -77 78
t-28.5 114h90q-1 -68 33 -105.5t98 -37.5q65 0 99.5 37.5t33.5 105.5h89q-2 -64 -29.5 -114t-77 -78t-115.5 -28t-115.5 28z" />
    <glyph glyph-name="Gdotaccent" unicode="&#x120;" horiz-adv-x="1417" 
d="M1191 628h100v-491q-98 -76 -221 -118.5t-247 -42.5q-198 0 -363.5 97t-261.5 264t-96 367t96 366.5t261.5 263t363.5 96.5q132 0 254.5 -47t215.5 -131l-63 -78q-84 72 -189 113.5t-218 41.5q-167 0 -308.5 -83t-224.5 -226.5t-83 -315.5q0 -173 83 -317t224.5 -227.5
t308.5 -83.5q91 0 191.5 29.5t176.5 79.5v443zM763.5 1522q-22.5 22 -22.5 56q0 33 22.5 54.5t56.5 21.5q33 0 55 -21.5t22 -54.5t-22 -55.5t-55 -22.5q-34 0 -56.5 22z" />
    <glyph glyph-name="gdotaccent" unicode="&#x121;" horiz-adv-x="1260" 
d="M997 1027h98v-874q0 -148 -52.5 -268t-163 -192t-277.5 -72q-102 0 -201 22.5t-166 56.5l38 85q62 -32 148 -51t174 -19q141 0 231 62t130 162t40 219v45l3 63q-63 -111 -170.5 -177.5t-242.5 -66.5q-138 0 -251.5 67.5t-179.5 185t-66 261.5q0 138 66 256.5t180 188
t251 69.5q134 0 241.5 -68t170.5 -182l-1 11v216zM798.5 173.5q93.5 54.5 147.5 149t54 208.5q0 116 -54 212.5t-147.5 153t-207.5 56.5q-112 0 -204.5 -56t-145.5 -151.5t-53 -208.5q0 -119 53 -214.5t145 -149.5t205 -54q114 0 207.5 54.5zM537.5 1241q-22.5 22 -22.5 56
q0 33 22.5 54.5t56.5 21.5q33 0 55 -21.5t22 -54.5t-22 -55.5t-55 -22.5q-34 0 -56.5 22z" />
    <glyph glyph-name="uni0122" unicode="&#x122;" horiz-adv-x="1417" 
d="M1191 628h100v-491q-98 -76 -221 -118.5t-247 -42.5q-198 0 -363.5 97t-261.5 264t-96 367t96 366.5t261.5 263t363.5 96.5q132 0 254.5 -47t215.5 -131l-63 -78q-84 72 -189 113.5t-218 41.5q-167 0 -308.5 -83t-224.5 -226.5t-83 -315.5q0 -173 83 -317t224.5 -227.5
t308.5 -83.5q91 0 191.5 29.5t176.5 79.5v443zM781 -374q72 67 72 120v3q-26 0 -45 17.5t-19 42.5q0 28 18.5 44.5t44.5 16.5q29 0 47 -17t18 -55q0 -58 -23.5 -106.5t-76.5 -98.5z" />
    <glyph glyph-name="uni0123" unicode="&#x123;" horiz-adv-x="1260" 
d="M997 1027h98v-874q0 -148 -52.5 -268t-163 -192t-277.5 -72q-102 0 -201 22.5t-166 56.5l38 85q62 -32 148 -51t174 -19q141 0 231 62t130 162t40 219v45l3 63q-63 -111 -170.5 -177.5t-242.5 -66.5q-138 0 -251.5 67.5t-179.5 185t-66 261.5q0 138 66 256.5t180 188
t251 69.5q134 0 241.5 -68t170.5 -182l-1 11v216zM798.5 173.5q93.5 54.5 147.5 149t54 208.5q0 116 -54 212.5t-147.5 153t-207.5 56.5q-112 0 -204.5 -56t-145.5 -151.5t-53 -208.5q0 -119 53 -214.5t145 -149.5t205 -54q114 0 207.5 54.5zM660 1470q-72 -66 -72 -119v-4
q26 0 44.5 -17t18.5 -42q0 -28 -18 -44.5t-44 -16.5q-29 0 -47 16.5t-18 54.5q0 58 23 107t76 99z" />
    <glyph glyph-name="Hcircumflex" unicode="&#x124;" horiz-adv-x="1548" 
d="M309 0h-104v1405h104v-641h930v641h104v-1405h-104v664h-930v-664zM771 1609l-180 -119l-43 65l208 149h32l207 -149l-44 -65z" />
    <glyph glyph-name="hcircumflex" unicode="&#x125;" horiz-adv-x="1175" 
d="M859 999.5q91 -50.5 141 -148t50 -235.5v-616h-100v603q0 169 -85.5 260t-236.5 91q-96 0 -179.5 -47t-133.5 -130t-50 -188v-589h-99v1495h99v-649q34 58 92 104.5t133 73t156 26.5q122 0 213 -50.5zM616 1663l-180 -119l-43 65l208 149h32l207 -149l-44 -65z" />
    <glyph glyph-name="Hbar" unicode="&#x126;" horiz-adv-x="1548" 
d="M1343 1185h112v-87h-112v-1098h-104v664h-930v-664h-104v1098h-109v87h109v220h104v-220h930v220h104v-220zM309 764h930v334h-930v-334z" />
    <glyph glyph-name="hbar" unicode="&#x127;" horiz-adv-x="1175" 
d="M859 999.5q91 -50.5 141 -148t50 -235.5v-616h-100v603q0 169 -85.5 260t-236.5 91q-96 0 -179.5 -47t-133.5 -130t-50 -188v-589h-99v1229h-137v92h137v174h99v-174h357v-92h-357v-383q34 58 92 104.5t133 73t156 26.5q122 0 213 -50.5z" />
    <glyph glyph-name="Itilde" unicode="&#x128;" horiz-adv-x="513" 
d="M309 0h-104v1405h104v-1405zM10 1523q23 71 64 105t86 34q27 0 52 -10t60 -30q29 -17 49 -25.5t40 -8.5q28 0 45 17t36 61l68 -23q-23 -71 -64 -105t-85 -34q-28 0 -53.5 10.5t-60.5 30.5q-29 16 -48.5 24.5t-38.5 8.5q-27 0 -45 -17t-36 -61z" />
    <glyph glyph-name="itilde" unicode="&#x129;" horiz-adv-x="430" 
d="M265 0h-99v1027h99v-1027zM-36 1233q23 71 64 105t86 34q27 0 52 -10t60 -30q29 -17 49 -25.5t40 -8.5q28 0 45 17t36 61l68 -23q-23 -71 -64 -105t-85 -34q-28 0 -53.5 10.5t-60.5 30.5q-29 16 -48.5 24.5t-38.5 8.5q-27 0 -45 -17t-36 -61z" />
    <glyph glyph-name="Imacron" unicode="&#x12a;" horiz-adv-x="513" 
d="M309 0h-104v1405h104v-1405zM461 1506h-413v81h413v-81z" />
    <glyph glyph-name="imacron" unicode="&#x12b;" horiz-adv-x="430" 
d="M265 0h-99v1027h99v-1027zM419 1224h-413v81h413v-81z" />
    <glyph glyph-name="Ibreve" unicode="&#x12c;" horiz-adv-x="513" 
d="M309 0h-104v1405h104v-1405zM141.5 1521.5q-47.5 27.5 -72.5 74t-27 102.5h90q-1 -58 28.5 -92.5t95.5 -34.5t95.5 34.5t28.5 92.5h89q-2 -57 -26.5 -103.5t-72 -73.5t-114.5 -27t-114.5 27.5z" />
    <glyph glyph-name="ibreve" unicode="&#x12d;" horiz-adv-x="430" 
d="M265 0h-99v1027h99v-1027zM96.5 1240q-49.5 28 -77 78t-28.5 114h90q-1 -68 33 -105.5t98 -37.5q65 0 99.5 37.5t33.5 105.5h89q-2 -64 -29.5 -114t-77 -78t-115.5 -28t-115.5 28z" />
    <glyph glyph-name="Iogonek" unicode="&#x12e;" horiz-adv-x="513" 
d="M309 0h-104v1405h104v-1405zM309 0q-61 -49 -92.5 -98t-31.5 -89q0 -32 21.5 -55t68.5 -23q26 0 58 7l5 -68q-23 -8 -41.5 -10.5t-41.5 -2.5q-79 0 -119.5 38t-40.5 95q0 51 39 106.5t91 99.5h84z" />
    <glyph glyph-name="iogonek" unicode="&#x12f;" horiz-adv-x="430" 
d="M160.5 1330q-21.5 21 -21.5 51q0 31 21 52.5t54 21.5t54.5 -21.5t21.5 -52.5q0 -30 -21.5 -51t-54.5 -21q-32 0 -53.5 21zM265 0h-99v1027h99v-1027zM264 0q-57 -44 -89 -93t-32 -89q0 -31 21.5 -52.5t66.5 -21.5q22 0 57 6l6 -61q-23 -8 -41.5 -10.5t-42.5 -2.5
q-72 0 -111 36t-39 90q0 51 40 106.5t88 91.5h76z" />
    <glyph glyph-name="Idotaccent" unicode="&#x130;" horiz-adv-x="513" 
d="M309 0h-104v1405h104v-1405zM198.5 1522q-22.5 22 -22.5 56q0 33 22.5 54.5t56.5 21.5q33 0 55 -21.5t22 -54.5t-22 -55.5t-55 -22.5q-34 0 -56.5 22z" />
    <glyph glyph-name="dotlessi" unicode="&#x131;" horiz-adv-x="430" 
d="M265 0h-99v1027h99v-1027z" />
    <glyph glyph-name="IJ" unicode="&#x132;" horiz-adv-x="1325" 
d="M309 0h-104v1405h104v-1405zM669 10q-75 34 -136 92l62 74q48 -46 106.5 -72t111.5 -26q113 0 178 69t65 192v1066h104v-1072q0 -109 -42.5 -189.5t-120.5 -124t-184 -43.5q-69 0 -144 34z" />
    <glyph glyph-name="ij" unicode="&#x133;" horiz-adv-x="852" 
d="M160.5 1330q-21.5 21 -21.5 51q0 31 21 52.5t54 21.5t54.5 -21.5t21.5 -52.5q0 -30 -21.5 -51t-54.5 -21q-32 0 -53.5 21zM265 0h-99v1027h99v-1027zM583.5 1330q-21.5 21 -21.5 51q0 31 21 52.5t54 21.5t54.5 -21.5t21.5 -52.5q0 -30 -21.5 -51t-54.5 -21
q-32 0 -53.5 21zM371 -368v91h18q199 0 199 243v1061h99v-1059q0 -158 -73.5 -247t-215.5 -89h-27z" />
    <glyph glyph-name="Jcircumflex" unicode="&#x134;" horiz-adv-x="811" 
d="M156 10q-75 34 -136 92l62 74q48 -46 106.5 -72t111.5 -26q113 0 178 69t65 192v1066h104v-1072q0 -109 -42.5 -189.5t-120.5 -124t-184 -43.5q-69 0 -144 34zM590 1609l-180 -119l-43 65l208 149h32l207 -149l-44 -65z" />
    <glyph glyph-name="jcircumflex" unicode="&#x135;" horiz-adv-x="438" 
d="M-44 -368v91h18q199 0 199 243v1061h99v-1059q0 -158 -73.5 -247t-215.5 -89h-27zM222 1353l-189 -146l-52 60l220 181h43l219 -181l-52 -60z" />
    <glyph glyph-name="uni0136" unicode="&#x136;" horiz-adv-x="1367" 
d="M1339 0h-128l-601 748l-301 -328v-420h-104v1405h104v-841l772 841h131l-532 -581zM565 -347q72 67 72 120v3q-26 0 -45 17.5t-19 42.5q0 28 18.5 44.5t44.5 16.5q29 0 47 -17t18 -55q0 -58 -23.5 -106.5t-76.5 -98.5z" />
    <glyph glyph-name="uni0137" unicode="&#x137;" horiz-adv-x="1058" 
d="M1048 0h-121l-441 543l-221 -215v-328h-99v1495h99v-1043l586 575h132l-428 -417zM482 -354q72 67 72 120v3q-26 0 -45 17.5t-19 42.5q0 28 18.5 44.5t44.5 16.5q29 0 47 -17t18 -55q0 -58 -23.5 -106.5t-76.5 -98.5z" />
    <glyph glyph-name="kgreenlandic" unicode="&#x138;" horiz-adv-x="1058" 
d="M1048 0h-121l-441 543l-221 -215v-328h-99v1027h99v-575l586 575h132l-428 -417z" />
    <glyph glyph-name="Lacute" unicode="&#x139;" horiz-adv-x="1115" 
d="M1085 0h-880v1405h104v-1305h776v-100zM459 1696l-197 -194h-95l159 194h133z" />
    <glyph glyph-name="lacute" unicode="&#x13a;" horiz-adv-x="431" 
d="M265 0h-99v1495h99v-1495zM413 1750l-197 -194h-95l159 194h133z" />
    <glyph glyph-name="uni013B" unicode="&#x13b;" horiz-adv-x="1115" 
d="M1085 0h-880v1405h104v-1305h776v-100zM461 -347q72 67 72 120v3q-26 0 -45 17.5t-19 42.5q0 28 18.5 44.5t44.5 16.5q29 0 47 -17t18 -55q0 -58 -23.5 -106.5t-76.5 -98.5z" />
    <glyph glyph-name="uni013C" unicode="&#x13c;" horiz-adv-x="431" 
d="M265 0h-99v1495h99v-1495zM157 -354q72 67 72 120v3q-26 0 -45 17.5t-19 42.5q0 28 18.5 44.5t44.5 16.5q29 0 47 -17t18 -55q0 -58 -23.5 -106.5t-76.5 -98.5z" />
    <glyph glyph-name="Lcaron" unicode="&#x13d;" horiz-adv-x="1115" 
d="M1085 0h-880v1405h104v-1305h776v-100zM993 1085h-79l-5 320h90z" />
    <glyph glyph-name="lcaron" unicode="&#x13e;" horiz-adv-x="444" 
d="M265 0h-99v1495h99v-1495zM463 1175h-79l-5 320h90z" />
    <glyph glyph-name="Ldot" unicode="&#x13f;" horiz-adv-x="1115" 
d="M1085 0h-880v1405h104v-1305h776v-100zM681.5 648q-24.5 24 -24.5 59t24.5 59t61.5 24t62 -24t25 -59t-25 -59t-62 -24t-61.5 24z" />
    <glyph glyph-name="ldot" unicode="&#x140;" horiz-adv-x="531" 
d="M265 0h-99v1495h99v-1495zM413 682.5q-19 19.5 -19 45.5q0 27 19.5 46t46.5 19q28 0 47.5 -19t19.5 -46t-19.5 -46t-48.5 -19q-27 0 -46 19.5z" />
    <glyph glyph-name="Lslash" unicode="&#x141;" horiz-adv-x="1115" 
d="M309 652v-552h776v-100h-880v595l-148 -82l-43 76l191 105v711h104v-653l232 128l42 -77z" />
    <glyph glyph-name="lslash" unicode="&#x142;" horiz-adv-x="431" 
d="M414 905l42 -61l-191 -129v-715h-99v649l-154 -104l-42 60l196 132v758h99v-691z" />
    <glyph glyph-name="Nacute" unicode="&#x143;" horiz-adv-x="1568" 
d="M309 0h-104v1405h100l955 -1232v1232h103v-1405h-98l-956 1234v-1234zM962 1696l-197 -194h-95l159 194h133z" />
    <glyph glyph-name="nacute" unicode="&#x144;" horiz-adv-x="1175" 
d="M859 999.5q91 -50.5 141 -148t50 -235.5v-616h-100v603q0 169 -85.5 260t-236.5 91q-96 0 -179.5 -47t-133.5 -130t-50 -188v-589h-99v1027h95v-188q33 60 91.5 108t134.5 75.5t159 27.5q122 0 213 -50.5zM863 1475l-175 -252h-89l141 252h123z" />
    <glyph glyph-name="uni0145" unicode="&#x145;" horiz-adv-x="1568" 
d="M309 0h-104v1405h100l955 -1232v1232h103v-1405h-98l-956 1234v-1234zM720 -347q72 67 72 120v3q-26 0 -45 17.5t-19 42.5q0 28 18.5 44.5t44.5 16.5q29 0 47 -17t18 -55q0 -58 -23.5 -106.5t-76.5 -98.5z" />
    <glyph glyph-name="uni0146" unicode="&#x146;" horiz-adv-x="1175" 
d="M859 999.5q91 -50.5 141 -148t50 -235.5v-616h-100v603q0 169 -85.5 260t-236.5 91q-96 0 -179.5 -47t-133.5 -130t-50 -188v-589h-99v1027h95v-188q33 60 91.5 108t134.5 75.5t159 27.5q122 0 213 -50.5zM524 -354q72 67 72 120v3q-26 0 -45 17.5t-19 42.5
q0 28 18.5 44.5t44.5 16.5q29 0 47 -17t18 -55q0 -58 -23.5 -106.5t-76.5 -98.5z" />
    <glyph glyph-name="Ncaron" unicode="&#x147;" horiz-adv-x="1568" 
d="M309 0h-104v1405h100l955 -1232v1232h103v-1405h-98l-956 1234v-1234zM544 1652l43 65l180 -119l180 119l44 -65l-207 -149h-32z" />
    <glyph glyph-name="ncaron" unicode="&#x148;" horiz-adv-x="1175" 
d="M859 999.5q91 -50.5 141 -148t50 -235.5v-616h-100v603q0 169 -85.5 260t-236.5 91q-96 0 -179.5 -47t-133.5 -130t-50 -188v-589h-99v1027h95v-188q33 60 91.5 108t134.5 75.5t159 27.5q122 0 213 -50.5zM388 1391l52 61l189 -146l189 146l52 -61l-219 -181h-43z" />
    <glyph glyph-name="Eng" unicode="&#x14a;" horiz-adv-x="1568" 
d="M1363 1405v-1435q0 -161 -70.5 -251t-212.5 -90h-27v92h18q101 0 145 62t44 185v38l-951 1228v-1234h-104v1405h100l955 -1232v1232h103z" />
    <glyph glyph-name="eng" unicode="&#x14b;" horiz-adv-x="1175" 
d="M1050 173h1v-203q0 -160 -69.5 -249.5t-208.5 -89.5h-26v91h17q99 0 142 62t43 184v205h1v430q0 169 -85.5 260t-236.5 91q-96 0 -179.5 -47t-133.5 -130t-50 -188v-589h-99v1027h95v-188q33 60 91.5 108t134.5 75.5t159 27.5q122 0 213 -50.5t141 -148t50 -235.5v-443z
" />
    <glyph glyph-name="Omacron" unicode="&#x14c;" horiz-adv-x="1646" 
d="M459.5 74q-165.5 96 -261.5 262t-96 366q0 201 96 367t261.5 262t363.5 96q199 0 364 -96t261 -262t96 -367q0 -200 -96 -366t-261.5 -262t-363.5 -96t-363.5 96zM1132.5 161.5q141.5 82.5 224 225t82.5 315.5t-82.5 316t-224 225.5t-309.5 82.5q-167 0 -308.5 -82.5
t-224 -225.5t-82.5 -316t82.5 -315.5t224 -225t308.5 -82.5q168 0 309.5 82.5zM1029 1523h-413v81h413v-81z" />
    <glyph glyph-name="omacron" unicode="&#x14d;" horiz-adv-x="1237" 
d="M352.5 46q-121.5 71 -192.5 194t-71 271t71 271.5t192.5 195t266.5 71.5q144 0 265.5 -71.5t192.5 -195t71 -271.5q0 -147 -71 -270t-192.5 -194.5t-266.5 -71.5q-144 0 -265.5 71zM835.5 128q98.5 58 156 159t57.5 224q0 122 -57.5 223.5t-156 160t-215.5 58.5
q-118 0 -217 -58.5t-157 -160t-58 -223.5q0 -123 58 -224t157 -159t217 -58q117 0 215.5 58zM819 1225h-413v81h413v-81z" />
    <glyph glyph-name="Obreve" unicode="&#x14e;" horiz-adv-x="1646" 
d="M459.5 74q-165.5 96 -261.5 262t-96 366q0 201 96 367t261.5 262t363.5 96q199 0 364 -96t261 -262t96 -367q0 -200 -96 -366t-261.5 -262t-363.5 -96t-363.5 96zM1132.5 161.5q141.5 82.5 224 225t82.5 315.5t-82.5 316t-224 225.5t-309.5 82.5q-167 0 -308.5 -82.5
t-224 -225.5t-82.5 -316t82.5 -315.5t224 -225t308.5 -82.5q168 0 309.5 82.5zM709.5 1538.5q-47.5 27.5 -72.5 74t-27 102.5h90q-1 -58 28.5 -92.5t95.5 -34.5t95.5 34.5t28.5 92.5h89q-2 -57 -26.5 -103.5t-72 -73.5t-114.5 -27t-114.5 27.5z" />
    <glyph glyph-name="obreve" unicode="&#x14f;" horiz-adv-x="1237" 
d="M352.5 46q-121.5 71 -192.5 194t-71 271t71 271.5t192.5 195t266.5 71.5q144 0 265.5 -71.5t192.5 -195t71 -271.5q0 -147 -71 -270t-192.5 -194.5t-266.5 -71.5q-144 0 -265.5 71zM835.5 128q98.5 58 156 159t57.5 224q0 122 -57.5 223.5t-156 160t-215.5 58.5
q-118 0 -217 -58.5t-157 -160t-58 -223.5q0 -123 58 -224t157 -159t217 -58q117 0 215.5 58zM496.5 1241q-49.5 28 -77 78t-28.5 114h90q-1 -68 33 -105.5t98 -37.5q65 0 99.5 37.5t33.5 105.5h89q-2 -64 -29.5 -114t-77 -78t-115.5 -28t-115.5 28z" />
    <glyph glyph-name="Ohungarumlaut" unicode="&#x150;" horiz-adv-x="1646" 
d="M459.5 74q-165.5 96 -261.5 262t-96 366q0 201 96 367t261.5 262t363.5 96q199 0 364 -96t261 -262t96 -367q0 -200 -96 -366t-261.5 -262t-363.5 -96t-363.5 96zM1132.5 161.5q141.5 82.5 224 225t82.5 315.5t-82.5 316t-224 225.5t-309.5 82.5q-167 0 -308.5 -82.5
t-224 -225.5t-82.5 -316t82.5 -315.5t224 -225t308.5 -82.5q168 0 309.5 82.5zM920 1714l-191 -194h-92l154 194h129zM1107 1713l-191 -194h-91l153 194h129z" />
    <glyph glyph-name="ohungarumlaut" unicode="&#x151;" horiz-adv-x="1237" 
d="M352.5 46q-121.5 71 -192.5 194t-71 271t71 271.5t192.5 195t266.5 71.5q144 0 265.5 -71.5t192.5 -195t71 -271.5q0 -147 -71 -270t-192.5 -194.5t-266.5 -71.5q-144 0 -265.5 71zM835.5 128q98.5 58 156 159t57.5 224q0 122 -57.5 223.5t-156 160t-215.5 58.5
q-118 0 -217 -58.5t-157 -160t-58 -223.5q0 -123 58 -224t157 -159t217 -58q117 0 215.5 58zM738 1471l-173 -252h-88l140 252h121zM951 1471l-173 -252h-87l139 252h121z" />
    <glyph glyph-name="OE" unicode="&#x152;" horiz-adv-x="2543" 
d="M1561 99h879v-99h-983v352q-61 -112 -157 -196.5t-218.5 -131t-258.5 -46.5q-198 0 -363.5 96t-261.5 262t-96 366q0 201 96 367t261.5 262t363.5 96q136 0 258.5 -46t218.5 -130.5t157 -197.5v352h969v-98h-865v-533h712v-97h-712v-578zM1132.5 161.5
q141.5 82.5 224 225t82.5 315.5t-82.5 316t-224 225.5t-309.5 82.5q-167 0 -308.5 -82.5t-224 -225.5t-82.5 -316t82.5 -315.5t224 -225t308.5 -82.5q168 0 309.5 82.5z" />
    <glyph glyph-name="oe" unicode="&#x153;" horiz-adv-x="2124" 
d="M1812.5 979q107.5 -69 165 -190.5t57.5 -275.5q0 -25 -2 -38h-852q8 -116 64.5 -208.5t148.5 -144.5t202 -52q97 0 179.5 34.5t145.5 97.5l55 -72q-75 -74 -172 -114.5t-213 -40.5q-110 0 -205.5 43.5t-165.5 122t-105 180.5q-38 -102 -112 -180.5t-173.5 -122
t-211.5 -43.5q-144 0 -265.5 71t-192.5 194t-71 271t71 271.5t192.5 195t266.5 71.5q111 0 210 -43.5t172.5 -121.5t111.5 -179q33 101 98 179t155 121t195 43q144 0 251.5 -69zM1379 904.5q-83 -49.5 -134.5 -137.5t-62.5 -200h754q-10 115 -57.5 202.5t-128 136
t-186.5 48.5q-102 0 -185 -49.5zM835.5 128q98.5 58 156 159t57.5 224q0 122 -57.5 223.5t-156 160t-215.5 58.5q-118 0 -217 -58.5t-157 -160t-58 -223.5q0 -123 58 -224t157 -159t217 -58q117 0 215.5 58z" />
    <glyph glyph-name="Racute" unicode="&#x154;" horiz-adv-x="1281" 
d="M1123.5 705q-71.5 -105 -198.5 -152l255 -553h-116l-239 526q-54 -9 -113 -9h-403v-517h-104v1405h528q139 0 243.5 -54.5t161.5 -155t57 -234.5q0 -151 -71.5 -256zM309 612h416q110 0 192.5 42.5t127 121.5t44.5 184q0 106 -44.5 185t-127 121t-192.5 42h-416v-696z
M778 1696l-197 -194h-95l159 194h133z" />
    <glyph glyph-name="racute" unicode="&#x155;" horiz-adv-x="795" 
d="M692 1030q59 -18 116 -54l-45 -81q-94 59 -192 59q-78 0 -147.5 -47.5t-112.5 -133t-46 -194.5v-579h-99v1027h95v-193q42 95 127 154.5t190 59.5q55 0 114 -18zM625 1470l-175 -252h-89l141 252h123z" />
    <glyph glyph-name="uni0156" unicode="&#x156;" horiz-adv-x="1281" 
d="M1123.5 705q-71.5 -105 -198.5 -152l255 -553h-116l-239 526q-54 -9 -113 -9h-403v-517h-104v1405h528q139 0 243.5 -54.5t161.5 -155t57 -234.5q0 -151 -71.5 -256zM309 612h416q110 0 192.5 42.5t127 121.5t44.5 184q0 106 -44.5 185t-127 121t-192.5 42h-416v-696z
M606 -347q72 67 72 120v3q-26 0 -45 17.5t-19 42.5q0 28 18.5 44.5t44.5 16.5q29 0 47 -17t18 -55q0 -58 -23.5 -106.5t-76.5 -98.5z" />
    <glyph glyph-name="uni0157" unicode="&#x157;" horiz-adv-x="795" 
d="M692 1030q59 -18 116 -54l-45 -81q-94 59 -192 59q-78 0 -147.5 -47.5t-112.5 -133t-46 -194.5v-579h-99v1027h95v-193q42 95 127 154.5t190 59.5q55 0 114 -18zM157 -354q72 67 72 120v3q-26 0 -45 17.5t-19 42.5q0 28 18.5 44.5t44.5 16.5q29 0 47 -17t18 -55
q0 -58 -23.5 -106.5t-76.5 -98.5z" />
    <glyph glyph-name="Rcaron" unicode="&#x158;" horiz-adv-x="1281" 
d="M1123.5 705q-71.5 -105 -198.5 -152l255 -553h-116l-239 526q-54 -9 -113 -9h-403v-517h-104v1405h528q139 0 243.5 -54.5t161.5 -155t57 -234.5q0 -151 -71.5 -256zM309 612h416q110 0 192.5 42.5t127 121.5t44.5 184q0 106 -44.5 185t-127 121t-192.5 42h-416v-696z
M361 1652l43 65l180 -119l180 119l44 -65l-207 -149h-32z" />
    <glyph glyph-name="rcaron" unicode="&#x159;" horiz-adv-x="795" 
d="M692 1030q59 -18 116 -54l-45 -81q-94 59 -192 59q-78 0 -147.5 -47.5t-112.5 -133t-46 -194.5v-579h-99v1027h95v-193q42 95 127 154.5t190 59.5q55 0 114 -18zM150 1386l52 61l189 -146l189 146l52 -61l-219 -181h-43z" />
    <glyph glyph-name="Sacute" unicode="&#x15a;" horiz-adv-x="1151" 
d="M283.5 44.5q-145.5 61.5 -238.5 176.5l69 68q83 -100 211.5 -153.5t265.5 -53.5q107 0 194.5 33.5t139 100.5t51.5 162q0 93 -56 149.5t-139 87t-232 68.5q-141 35 -233.5 72.5t-155.5 110t-63 190.5q0 109 63.5 192.5t173.5 128.5t245 45q127 0 248 -43.5t210 -124.5
l-63 -73q-76 68 -179.5 105.5t-211.5 37.5q-103 0 -190.5 -32.5t-139.5 -94t-52 -144.5q0 -86 51.5 -138.5t128.5 -81t212 -62.5q160 -43 257.5 -82.5t164 -114t66.5 -195.5q0 -126 -66.5 -215.5t-178.5 -135t-248 -45.5q-159 0 -304.5 61.5zM766 1696l-197 -194h-95
l159 194h133z" />
    <glyph glyph-name="sacute" unicode="&#x15b;" horiz-adv-x="906" 
d="M239 19q-114 44 -186 110l60 74q64 -55 162.5 -94t197.5 -39q79 0 140.5 25.5t96 71t34.5 105.5q0 61 -34 101t-98.5 66.5t-173.5 52.5q-155 37 -243 106.5t-88 184.5q0 74 42 134.5t122 96t189 35.5q100 0 195.5 -31.5t163.5 -89.5l-59 -73q-59 45 -137.5 72t-164.5 27
q-77 0 -133 -22t-85 -60.5t-29 -88.5q0 -49 25.5 -85t84 -65.5t159.5 -54.5q114 -29 191.5 -62t126.5 -91.5t49 -149.5q0 -85 -47.5 -153.5t-132.5 -107.5t-193 -39q-121 0 -235 44zM682 1470l-175 -252h-89l141 252h123z" />
    <glyph glyph-name="Scircumflex" unicode="&#x15c;" horiz-adv-x="1151" 
d="M283.5 44.5q-145.5 61.5 -238.5 176.5l69 68q83 -100 211.5 -153.5t265.5 -53.5q107 0 194.5 33.5t139 100.5t51.5 162q0 93 -56 149.5t-139 87t-232 68.5q-141 35 -233.5 72.5t-155.5 110t-63 190.5q0 109 63.5 192.5t173.5 128.5t245 45q127 0 248 -43.5t210 -124.5
l-63 -73q-76 68 -179.5 105.5t-211.5 37.5q-103 0 -190.5 -32.5t-139.5 -94t-52 -144.5q0 -86 51.5 -138.5t128.5 -81t212 -62.5q160 -43 257.5 -82.5t164 -114t66.5 -195.5q0 -126 -66.5 -215.5t-178.5 -135t-248 -45.5q-159 0 -304.5 61.5zM569 1609l-180 -119l-43 65
l208 149h32l207 -149l-44 -65z" />
    <glyph glyph-name="scircumflex" unicode="&#x15d;" horiz-adv-x="906" 
d="M239 19q-114 44 -186 110l60 74q64 -55 162.5 -94t197.5 -39q79 0 140.5 25.5t96 71t34.5 105.5q0 61 -34 101t-98.5 66.5t-173.5 52.5q-155 37 -243 106.5t-88 184.5q0 74 42 134.5t122 96t189 35.5q100 0 195.5 -31.5t163.5 -89.5l-59 -73q-59 45 -137.5 72t-164.5 27
q-77 0 -133 -22t-85 -60.5t-29 -88.5q0 -49 25.5 -85t84 -65.5t159.5 -54.5q114 -29 191.5 -62t126.5 -91.5t49 -149.5q0 -85 -47.5 -153.5t-132.5 -107.5t-193 -39q-121 0 -235 44zM448 1353l-189 -146l-52 60l220 181h43l219 -181l-52 -60z" />
    <glyph glyph-name="Scedilla" unicode="&#x15e;" horiz-adv-x="1151" 
d="M1022 174.5q-59 -86.5 -160.5 -134.5t-227.5 -56q27 -45 44.5 -93.5t17.5 -89.5q0 -125 -201 -152l-18 74q77 10 102.5 32t25.5 56q0 36 -14.5 77t-43.5 96q-149 8 -282 69t-220 168l69 68q83 -100 211.5 -153.5t265.5 -53.5q107 0 194.5 33.5t139 100.5t51.5 162
q0 93 -56 149.5t-139 87t-232 68.5q-141 35 -233.5 72.5t-155.5 110t-63 190.5q0 109 63.5 192.5t173.5 128.5t245 45q127 0 248 -43.5t210 -124.5l-63 -73q-76 68 -179.5 105.5t-211.5 37.5q-103 0 -190.5 -32.5t-139.5 -94t-52 -144.5q0 -86 51.5 -138.5t128.5 -81
t212 -62.5q160 -43 257.5 -82.5t164 -114t66.5 -195.5q0 -118 -59 -204.5z" />
    <glyph glyph-name="scedilla" unicode="&#x15f;" horiz-adv-x="906" 
d="M804.5 128.5q-42.5 -65.5 -119.5 -106t-177 -46.5q23 -39 38.5 -80t15.5 -72q0 -58 -45.5 -95t-150.5 -49l-16 66q54 7 81 20t35.5 28.5t8.5 38.5q0 49 -50 144q-109 9 -208 51t-164 101l60 74q64 -55 162.5 -94t197.5 -39q79 0 140.5 25.5t96 71t34.5 105.5
q0 61 -34 101t-98.5 66.5t-173.5 52.5q-155 37 -243 106.5t-88 184.5q0 74 42 134.5t122 96t189 35.5q100 0 195.5 -31.5t163.5 -89.5l-59 -73q-59 45 -137.5 72t-164.5 27q-77 0 -133 -22t-85 -60.5t-29 -88.5q0 -49 25.5 -85t84 -65.5t159.5 -54.5q114 -29 191.5 -62
t126.5 -91.5t49 -149.5q0 -81 -42.5 -146.5z" />
    <glyph glyph-name="Scaron" unicode="&#x160;" horiz-adv-x="1151" 
d="M283.5 44.5q-145.5 61.5 -238.5 176.5l69 68q83 -100 211.5 -153.5t265.5 -53.5q107 0 194.5 33.5t139 100.5t51.5 162q0 93 -56 149.5t-139 87t-232 68.5q-141 35 -233.5 72.5t-155.5 110t-63 190.5q0 109 63.5 192.5t173.5 128.5t245 45q127 0 248 -43.5t210 -124.5
l-63 -73q-76 68 -179.5 105.5t-211.5 37.5q-103 0 -190.5 -32.5t-139.5 -94t-52 -144.5q0 -86 51.5 -138.5t128.5 -81t212 -62.5q160 -43 257.5 -82.5t164 -114t66.5 -195.5q0 -126 -66.5 -215.5t-178.5 -135t-248 -45.5q-159 0 -304.5 61.5zM348 1652l43 65l180 -119
l180 119l44 -65l-207 -149h-32z" />
    <glyph glyph-name="scaron" unicode="&#x161;" horiz-adv-x="906" 
d="M239 19q-114 44 -186 110l60 74q64 -55 162.5 -94t197.5 -39q79 0 140.5 25.5t96 71t34.5 105.5q0 61 -34 101t-98.5 66.5t-173.5 52.5q-155 37 -243 106.5t-88 184.5q0 74 42 134.5t122 96t189 35.5q100 0 195.5 -31.5t163.5 -89.5l-59 -73q-59 45 -137.5 72t-164.5 27
q-77 0 -133 -22t-85 -60.5t-29 -88.5q0 -49 25.5 -85t84 -65.5t159.5 -54.5q114 -29 191.5 -62t126.5 -91.5t49 -149.5q0 -85 -47.5 -153.5t-132.5 -107.5t-193 -39q-121 0 -235 44zM207 1386l52 61l189 -146l189 146l52 -61l-219 -181h-43z" />
    <glyph glyph-name="uni0162" unicode="&#x162;" horiz-adv-x="1145" 
d="M624 1306v-1306h-3q30 -48 51 -101.5t21 -97.5q0 -125 -201 -152l-18 74q77 10 102.5 32t25.5 56q0 38 -16.5 83t-49.5 106h-16v1306h-478v99h1061v-99h-479z" />
    <glyph glyph-name="uni0163" unicode="&#x163;" horiz-adv-x="586" 
d="M582 934h-275v-927h1q28 -42 50.5 -93.5t22.5 -89.5q0 -58 -45.5 -95t-150.5 -49l-16 66q54 7 81 20t35.5 28.5t8.5 38.5q0 56 -63 167h-24v934h-188v93h188v260l100 18v-278h275v-93z" />
    <glyph glyph-name="Tcaron" unicode="&#x164;" horiz-adv-x="1145" 
d="M624 0h-104v1306h-478v99h1061v-99h-479v-1306zM352 1652l43 65l180 -119l180 119l44 -65l-207 -149h-32z" />
    <glyph glyph-name="tcaron" unicode="&#x165;" horiz-adv-x="588" 
d="M307 0h-100v934h-188v93h188v260l100 18v-278h275v-93h-275v-934zM537 1194h-79l-5 320h90z" />
    <glyph glyph-name="Tbar" unicode="&#x166;" horiz-adv-x="1145" 
d="M1103 1405v-99h-479v-553h245v-94h-245v-659h-104v659h-243v94h243v553h-478v99h1061z" />
    <glyph glyph-name="tbar" unicode="&#x167;" horiz-adv-x="586" 
d="M582 1027v-93h-275v-374h210v-91h-210v-469h-100v469h-196v91h196v374h-188v93h188v260l100 18v-278h275z" />
    <glyph glyph-name="Utilde" unicode="&#x168;" horiz-adv-x="1461" 
d="M424 54q-128 79 -194 220t-66 326v806h103v-801q0 -158 53.5 -278t158 -186.5t253.5 -66.5q148 0 252 66.5t157 186t53 278.5v801h103v-806q0 -185 -66 -326t-193.5 -220t-305.5 -79q-180 0 -308 79zM467 1523q23 71 64 105t86 34q27 0 52 -10t60 -30q29 -17 49 -25.5
t40 -8.5q28 0 45 17t36 61l68 -23q-23 -71 -64 -105t-85 -34q-28 0 -53.5 10.5t-60.5 30.5q-29 16 -48.5 24.5t-38.5 8.5q-27 0 -45 -17t-36 -61z" />
    <glyph glyph-name="utilde" unicode="&#x169;" horiz-adv-x="1175" 
d="M910 1027h99v-1027h-95v188q-33 -60 -91.5 -108t-134.5 -75.5t-159 -27.5q-122 0 -213 50.5t-141 148t-50 235.5v616h100v-603q0 -169 85.5 -260t236.5 -91q96 0 179.5 47t133.5 130t50 188v589zM344 1233q23 71 64 105t86 34q27 0 52 -10t60 -30q29 -17 49 -25.5
t40 -8.5q28 0 45 17t36 61l68 -23q-23 -71 -64 -105t-85 -34q-28 0 -53.5 10.5t-60.5 30.5q-29 16 -48.5 24.5t-38.5 8.5q-27 0 -45 -17t-36 -61z" />
    <glyph glyph-name="Umacron" unicode="&#x16a;" horiz-adv-x="1461" 
d="M424 54q-128 79 -194 220t-66 326v806h103v-801q0 -158 53.5 -278t158 -186.5t253.5 -66.5q148 0 252 66.5t157 186t53 278.5v801h103v-806q0 -185 -66 -326t-193.5 -220t-305.5 -79q-180 0 -308 79zM918 1506h-413v81h413v-81z" />
    <glyph glyph-name="umacron" unicode="&#x16b;" horiz-adv-x="1175" 
d="M910 1027h99v-1027h-95v188q-33 -60 -91.5 -108t-134.5 -75.5t-159 -27.5q-122 0 -213 50.5t-141 148t-50 235.5v616h100v-603q0 -169 85.5 -260t236.5 -91q96 0 179.5 47t133.5 130t50 188v589zM800 1224h-413v81h413v-81z" />
    <glyph glyph-name="Ubreve" unicode="&#x16c;" horiz-adv-x="1461" 
d="M424 54q-128 79 -194 220t-66 326v806h103v-801q0 -158 53.5 -278t158 -186.5t253.5 -66.5q148 0 252 66.5t157 186t53 278.5v801h103v-806q0 -185 -66 -326t-193.5 -220t-305.5 -79q-180 0 -308 79zM598.5 1521.5q-47.5 27.5 -72.5 74t-27 102.5h90q-1 -58 28.5 -92.5
t95.5 -34.5t95.5 34.5t28.5 92.5h89q-2 -57 -26.5 -103.5t-72 -73.5t-114.5 -27t-114.5 27.5z" />
    <glyph glyph-name="ubreve" unicode="&#x16d;" horiz-adv-x="1175" 
d="M910 1027h99v-1027h-95v188q-33 -60 -91.5 -108t-134.5 -75.5t-159 -27.5q-122 0 -213 50.5t-141 148t-50 235.5v616h100v-603q0 -169 85.5 -260t236.5 -91q96 0 179.5 47t133.5 130t50 188v589zM476.5 1240q-49.5 28 -77 78t-28.5 114h90q-1 -68 33 -105.5t98 -37.5
q65 0 99.5 37.5t33.5 105.5h89q-2 -64 -29.5 -114t-77 -78t-115.5 -28t-115.5 28z" />
    <glyph glyph-name="Uring" unicode="&#x16e;" horiz-adv-x="1461" 
d="M424 54q-128 79 -194 220t-66 326v806h103v-801q0 -158 53.5 -278t158 -186.5t253.5 -66.5q148 0 252 66.5t157 186t53 278.5v801h103v-806q0 -185 -66 -326t-193.5 -220t-305.5 -79q-180 0 -308 79zM619.5 1532q-37.5 36 -37.5 94t37.5 94t97.5 36t97.5 -36t37.5 -94
t-37.5 -94t-97.5 -36t-97.5 36zM771.5 1573.5q20.5 20.5 20.5 52.5t-20.5 52.5t-54.5 20.5t-54.5 -20.5t-20.5 -52.5t20.5 -52.5t54.5 -20.5t54.5 20.5z" />
    <glyph glyph-name="uring" unicode="&#x16f;" horiz-adv-x="1175" 
d="M910 1027h99v-1027h-95v188q-33 -60 -91.5 -108t-134.5 -75.5t-159 -27.5q-122 0 -213 50.5t-141 148t-50 235.5v616h100v-603q0 -169 85.5 -260t236.5 -91q96 0 179.5 47t133.5 130t50 188v589zM494 1249q-38 37 -38 96q0 58 38 95t99 37t99 -37t38 -95q0 -59 -38 -96
t-99 -37t-99 37zM648 1291q21 21 21 54t-21 53.5t-55 20.5t-55 -20.5t-21 -53.5t21 -54t55 -21t55 21z" />
    <glyph glyph-name="Uhungarumlaut" unicode="&#x170;" horiz-adv-x="1461" 
d="M424 54q-128 79 -194 220t-66 326v806h103v-801q0 -158 53.5 -278t158 -186.5t253.5 -66.5q148 0 252 66.5t157 186t53 278.5v801h103v-806q0 -185 -66 -326t-193.5 -220t-305.5 -79q-180 0 -308 79zM808 1697l-191 -194h-92l154 194h129zM995 1696l-191 -194h-91
l153 194h129z" />
    <glyph glyph-name="uhungarumlaut" unicode="&#x171;" horiz-adv-x="1175" 
d="M910 1027h99v-1027h-95v188q-33 -60 -91.5 -108t-134.5 -75.5t-159 -27.5q-122 0 -213 50.5t-141 148t-50 235.5v616h100v-603q0 -169 85.5 -260t236.5 -91q96 0 179.5 47t133.5 130t50 188v589zM718 1470l-173 -252h-88l140 252h121zM931 1470l-173 -252h-87l139 252
h121z" />
    <glyph glyph-name="Uogonek" unicode="&#x172;" horiz-adv-x="1461" 
d="M1297 600q0 -176 -60 -313t-174 -217q-40 -40 -60 -77.5t-20 -69.5t21.5 -55t68.5 -23q26 0 58 7l5 -68q-23 -8 -41.5 -10.5t-41.5 -2.5q-79 0 -119.5 38t-40.5 95q0 44 34 100q-89 -29 -195 -29q-180 0 -308 79t-194 220t-66 326v806h103v-801q0 -158 53.5 -278
t158 -186.5t253.5 -66.5q148 0 252 66.5t157 186t53 278.5v801h103v-806z" />
    <glyph glyph-name="uogonek" unicode="&#x173;" horiz-adv-x="1175" 
d="M1062 -311q-23 -8 -41.5 -10.5t-42.5 -2.5q-72 0 -111 36t-39 90q0 51 40 106.5t88 91.5h-42v188q-33 -60 -91.5 -108t-134.5 -75.5t-159 -27.5q-122 0 -213 50.5t-141 148t-50 235.5v616h100v-603q0 -169 85.5 -260t236.5 -91q96 0 179.5 47t133.5 130t50 188v589h99
v-1027h23q-57 -44 -89 -93t-32 -89q0 -31 21.5 -52.5t66.5 -21.5q23 0 57 6z" />
    <glyph glyph-name="Wcircumflex" unicode="&#x174;" horiz-adv-x="1944" 
d="M694 0h-99l-575 1405h112l514 -1265l494 1265h111l-223 -569l279 -696l505 1265h112l-570 -1405h-98l-281 701zM975 1610l-180 -119l-43 65l208 149h32l207 -149l-44 -65z" />
    <glyph glyph-name="wcircumflex" unicode="&#x175;" horiz-adv-x="1572" 
d="M1066 116l372 911h107l-423 -1027h-96l-239 581l-237 -581h-101l-422 1027h106l366 -911l363 911h107l-137 -336zM786 1353l-189 -146l-52 60l220 181h43l219 -181l-52 -60z" />
    <glyph glyph-name="Ycircumflex" unicode="&#x176;" horiz-adv-x="1105" 
d="M605 0h-104v614l-481 791h121l412 -690l411 690h121l-480 -790v-615zM553 1609l-180 -119l-43 65l208 149h32l207 -149l-44 -65z" />
    <glyph glyph-name="ycircumflex" unicode="&#x177;" horiz-adv-x="1010" 
d="M410 -355h-107l150 355l-426 1027h108l369 -908l369 908h110zM502 1353l-189 -146l-52 60l220 181h43l219 -181l-52 -60z" />
    <glyph glyph-name="Ydieresis" unicode="&#x178;" horiz-adv-x="1105" 
d="M605 0h-104v614l-481 791h121l412 -690l411 690h121l-480 -790v-615zM331.5 1523.5q-21.5 21.5 -21.5 53.5t21.5 52.5t54.5 20.5q32 0 53.5 -21t21.5 -52q0 -32 -21.5 -53.5t-53.5 -21.5q-33 0 -54.5 21.5zM667 1523.5q-21 21.5 -21 53.5q0 31 21 52t53 21
q33 0 54.5 -20.5t21.5 -52.5t-21.5 -53.5t-54.5 -21.5q-32 0 -53 21.5z" />
    <glyph glyph-name="Zacute" unicode="&#x179;" horiz-adv-x="1272" 
d="M1161 0h-1059v83l931 1226h-915v96h1051v-80l-932 -1229h924v-96zM797 1696l-197 -194h-95l159 194h133z" />
    <glyph glyph-name="zacute" unicode="&#x17a;" horiz-adv-x="941" 
d="M883 0h-803v71l658 865h-639v91h771v-70l-658 -866h671v-91zM715 1470l-175 -252h-89l141 252h123z" />
    <glyph glyph-name="Zdotaccent" unicode="&#x17b;" horiz-adv-x="1272" 
d="M1161 0h-1059v83l931 1226h-915v96h1051v-80l-932 -1229h924v-96zM544.5 1522q-22.5 22 -22.5 56q0 33 22.5 54.5t56.5 21.5q33 0 55 -21.5t22 -54.5t-22 -55.5t-55 -22.5q-34 0 -56.5 22z" />
    <glyph glyph-name="zdotaccent" unicode="&#x17c;" horiz-adv-x="941" 
d="M883 0h-803v71l658 865h-639v91h771v-70l-658 -866h671v-91zM424.5 1235q-22.5 22 -22.5 56q0 33 22.5 54.5t56.5 21.5q33 0 55 -21.5t22 -54.5t-22 -55.5t-55 -22.5q-34 0 -56.5 22z" />
    <glyph glyph-name="Zcaron" unicode="&#x17d;" horiz-adv-x="1272" 
d="M1161 0h-1059v83l931 1226h-915v96h1051v-80l-932 -1229h924v-96zM379 1652l43 65l180 -119l180 119l44 -65l-207 -149h-32z" />
    <glyph glyph-name="zcaron" unicode="&#x17e;" horiz-adv-x="941" 
d="M883 0h-803v71l658 865h-639v91h771v-70l-658 -866h671v-91zM239 1386l52 61l189 -146l189 146l52 -61l-219 -181h-43z" />
    <glyph glyph-name="uni0189" unicode="&#x189;" horiz-adv-x="1494" 
d="M671 1405q198 0 363 -93.5t261 -255t96 -355.5q0 -193 -96 -354t-260 -254t-361 -93h-469v660h-170v94h170v651h466zM676 99q168 0 308 80t221 218t81 304q0 167 -82 305.5t-223 218.5t-310 80h-362v-551h318v-94h-318v-561h367z" />
    <glyph glyph-name="uni0189" unicode="&#x256;" horiz-adv-x="1494" 
d="M671 1405q198 0 363 -93.5t261 -255t96 -355.5q0 -193 -96 -354t-260 -254t-361 -93h-469v660h-170v94h170v651h466zM676 99q168 0 308 80t221 218t81 304q0 167 -82 305.5t-223 218.5t-310 80h-362v-551h318v-94h-318v-561h367z" />
    <glyph glyph-name="uni018F" unicode="&#x18f;" horiz-adv-x="1557" 
d="M1097.5 1333.5q164.5 -96.5 260.5 -262.5t96 -366q0 -201 -89.5 -367t-245 -262.5t-346.5 -96.5q-202 0 -354.5 93.5t-234.5 258.5t-82 373q0 11 2 39h1247q-10 166 -95 300.5t-223 211t-299 76.5q-139 0 -255 -48.5t-205 -137.5l-62 72q103 102 235.5 157.5t289.5 55.5
q196 0 360.5 -96.5zM1055 150.5q129 76.5 207.5 210t88.5 299.5h-1146q9 -171 80 -304t196 -207.5t289 -74.5q156 0 285 76.5z" />
    <glyph glyph-name="florin" unicode="&#x192;" horiz-adv-x="732" 
d="M-151.5 -389q-29.5 8 -39.5 16l38 75q1 0 13 -6t49 -6q97 0 157 59t83 191l167 967h-187l13 82h188l9 59q30 181 115 284t222 103q41 0 73 -8.5t40 -15.5l-39 -73q-20 12 -63 12q-101 0 -162.5 -65.5t-86.5 -207.5l-16 -88h267l-14 -82h-266l-165 -968
q-57 -336 -335 -336q-31 0 -60.5 8z" />
    <glyph glyph-name="uni019D" unicode="&#x19d;" horiz-adv-x="1568" 
d="M1260 1405h103v-1405h-98l-956 1234v-1234h-1v-30q0 -161 -70.5 -251t-212.5 -90h-27v92h18q101 0 145 62t44 185v1437h100l955 -1232v1232z" />
    <glyph glyph-name="Ohorn" unicode="&#x1a0;" horiz-adv-x="1646" 
d="M1373 1176q82 -96 126.5 -217.5t44.5 -256.5q0 -200 -96 -366t-261.5 -262t-363.5 -96t-363.5 96t-261.5 262t-96 366q0 201 96 367t261.5 262t363.5 96q127 0 247 -42q132 1 132 105q0 35 -14 84l98 20q13 -49 13 -94q0 -127 -117 -166q109 -62 191 -158zM1132.5 161.5
q141.5 82.5 224 225t82.5 315.5t-82.5 316t-224 225.5t-309.5 82.5q-167 0 -308.5 -82.5t-224 -225.5t-82.5 -316t82.5 -315.5t224 -225t308.5 -82.5q168 0 309.5 82.5z" />
    <glyph glyph-name="ohorn" unicode="&#x1a1;" horiz-adv-x="1237" 
d="M1094.5 748.5q53.5 -110.5 53.5 -237.5q0 -147 -71 -270t-192.5 -194.5t-266.5 -71.5q-144 0 -265.5 71t-192.5 194t-71 271t71 271.5t192.5 195t266.5 71.5q141 0 260 -69q62 9 90 32.5t28 60.5q0 29 -19 72l93 25q17 -48 17 -86q0 -56 -35 -94.5t-105 -55.5
q93 -75 146.5 -185.5zM835.5 128q98.5 58 156 159t57.5 224q0 122 -57.5 223.5t-156 160t-215.5 58.5q-118 0 -217 -58.5t-157 -160t-58 -223.5q0 -123 58 -224t157 -159t217 -58q117 0 215.5 58z" />
    <glyph glyph-name="Uhorn" unicode="&#x1af;" horiz-adv-x="1511" 
d="M1478 1615q13 -49 13 -94q0 -80 -47.5 -127t-146.5 -54v-740q0 -185 -66 -326t-193.5 -220t-305.5 -79q-180 0 -308 79t-194 220t-66 326v806h103v-801q0 -158 53.5 -278t158 -186.5t253.5 -66.5q148 0 252 66.5t157 186t53 278.5v801h72q128 1 128 105q0 35 -14 84z" />
    <glyph glyph-name="uhorn" unicode="&#x1b0;" horiz-adv-x="1238" 
d="M1219 1214q16 -45 16 -85q0 -68 -50.5 -109t-152.5 -51l-7 57q62 8 90.5 31.5t28.5 60.5q0 32 -18 71zM910 1027h99v-1027h-95v188q-33 -60 -91.5 -108t-134.5 -75.5t-159 -27.5q-122 0 -213 50.5t-141 148t-50 235.5v616h100v-603q0 -169 85.5 -260t236.5 -91
q96 0 179.5 47t133.5 130t50 188v589z" />
    <glyph glyph-name="uni01B5" unicode="&#x1b5;" horiz-adv-x="1272" 
d="M118 1405h1051v-80l-435 -574h210v-94h-282l-425 -561h924v-96h-1059v83l436 574h-218v94h289l424 558h-915v96z" />
    <glyph glyph-name="uni01B6" unicode="&#x1b6;" horiz-adv-x="941" 
d="M501 471l-289 -380h671v-91h-803v71l304 400h-200v88h267l287 377h-639v91h771v-70l-302 -398h209v-88h-276z" />
    <glyph glyph-name="uni01C4" unicode="&#x1c4;" horiz-adv-x="2728" 
d="M205 0v1405h466q198 0 363 -93.5t261 -255t96 -355.5q0 -193 -96 -354t-260 -254t-361 -93h-469zM676 99q168 0 308 80t221 218t81 304q0 167 -82 305.5t-223 218.5t-310 80h-362v-1206h367zM2617 0h-1059v83l931 1226h-915v96h1051v-80l-932 -1229h924v-96zM1835 1652
l43 65l180 -119l180 119l44 -65l-207 -149h-32z" />
    <glyph glyph-name="uni01C5" unicode="&#x1c5;" horiz-adv-x="2435" 
d="M205 0v1405h466q198 0 363 -93.5t261 -255t96 -355.5q0 -193 -96 -354t-260 -254t-361 -93h-469zM676 99q168 0 308 80t221 218t81 304q0 167 -82 305.5t-223 218.5t-310 80h-362v-1206h367zM2377 0h-803v71l658 865h-639v91h771v-70l-658 -866h671v-91zM1733 1386l52 61
l189 -146l189 146l52 -61l-219 -181h-43z" />
    <glyph glyph-name="uni01C6" unicode="&#x1c6;" horiz-adv-x="2201" 
d="M1095 1495v-1495h-98v217l1 14q-63 -116 -170 -185t-242 -69q-137 0 -251 71t-180 193.5t-66 270.5t66 271t180 194.5t251 71.5q133 0 239.5 -67.5t169.5 -182.5v696h100zM799 130.5q94 57.5 147.5 157.5t53.5 224q0 123 -54 223.5t-147.5 158.5t-207.5 58
q-113 0 -205 -58t-145 -158.5t-53 -223.5q0 -124 53 -224t145 -157.5t205 -57.5q114 0 208 57.5zM2143 0h-803v71l658 865h-639v91h771v-70l-658 -866h671v-91zM1499 1386l52 61l189 -146l189 146l52 -61l-219 -181h-43z" />
    <glyph glyph-name="uni01C7" unicode="&#x1c7;" horiz-adv-x="1957" 
d="M1085 0h-880v1405h104v-1305h776v-100zM1302 10q-75 34 -136 92l62 74q48 -46 106.5 -72t111.5 -26q113 0 178 69t65 192v1066h104v-1072q0 -109 -42.5 -189.5t-120.5 -124t-184 -43.5q-69 0 -144 34z" />
    <glyph glyph-name="uni01C8" unicode="&#x1c8;" horiz-adv-x="1553" 
d="M1085 0h-880v1405h104v-1305h776v-100zM1283.5 1330q-21.5 21 -21.5 51q0 31 21 52.5t54 21.5t54.5 -21.5t21.5 -52.5q0 -30 -21.5 -51t-54.5 -21q-32 0 -53.5 21zM1071 -368v91h18q199 0 199 243v1061h99v-1059q0 -158 -73.5 -247t-215.5 -89h-27z" />
    <glyph glyph-name="uni01C9" unicode="&#x1c9;" horiz-adv-x="851" 
d="M265 0h-99v1495h99v-1495zM581.5 1330q-21.5 21 -21.5 51q0 31 21 52.5t54 21.5t54.5 -21.5t21.5 -52.5q0 -30 -21.5 -51t-54.5 -21q-32 0 -53.5 21zM369 -368v91h18q199 0 199 243v1061h99v-1059q0 -158 -73.5 -247t-215.5 -89h-27z" />
    <glyph glyph-name="uni01CA" unicode="&#x1ca;" horiz-adv-x="2379" 
d="M309 0h-104v1405h100l955 -1232v1232h103v-1405h-98l-956 1234v-1234zM1724 10q-75 34 -136 92l62 74q48 -46 106.5 -72t111.5 -26q113 0 178 69t65 192v1066h104v-1072q0 -109 -42.5 -189.5t-120.5 -124t-184 -43.5q-69 0 -144 34z" />
    <glyph glyph-name="uni01CB" unicode="&#x1cb;" horiz-adv-x="1964" 
d="M309 0h-104v1405h100l955 -1232v1232h103v-1405h-98l-956 1234v-1234zM1694.5 1330q-21.5 21 -21.5 51q0 31 21 52.5t54 21.5t54.5 -21.5t21.5 -52.5q0 -30 -21.5 -51t-54.5 -21q-32 0 -53.5 21zM1482 -368v91h18q199 0 199 243v1061h99v-1059q0 -158 -73.5 -247
t-215.5 -89h-27z" />
    <glyph glyph-name="uni01CC" unicode="&#x1cc;" horiz-adv-x="1621" 
d="M859 999.5q91 -50.5 141 -148t50 -235.5v-616h-100v603q0 169 -85.5 260t-236.5 91q-96 0 -179.5 -47t-133.5 -130t-50 -188v-589h-99v1027h95v-188q33 60 91.5 108t134.5 75.5t159 27.5q122 0 213 -50.5zM1351.5 1330q-21.5 21 -21.5 51q0 31 21 52.5t54 21.5
t54.5 -21.5t21.5 -52.5q0 -30 -21.5 -51t-54.5 -21q-32 0 -53.5 21zM1139 -368v91h18q199 0 199 243v1061h99v-1059q0 -158 -73.5 -247t-215.5 -89h-27z" />
    <glyph glyph-name="uni01CD" unicode="&#x1cd;" horiz-adv-x="1284" 
d="M1264 0h-109l-147 368h-732l-147 -368h-109l572 1406h99zM635 1268l-321 -804h655l-322 804l-6 16zM418 1652l43 65l180 -119l180 119l44 -65l-207 -149h-32z" />
    <glyph glyph-name="uni01CE" unicode="&#x1ce;" horiz-adv-x="1260" 
d="M995 1027h100v-1027h-98v217l1 14q-63 -116 -170 -185t-242 -69q-137 0 -251 71t-180 193.5t-66 270.5t66 271t180 194.5t251 71.5q133 0 239.5 -67.5t169.5 -182.5v228zM799 130.5q94 57.5 147.5 157.5t53.5 224q0 123 -54 223.5t-147.5 158.5t-207.5 58
q-113 0 -205 -58t-145 -158.5t-53 -223.5q0 -124 53 -224t145 -157.5t205 -57.5q114 0 208 57.5zM379 1384l52 61l189 -146l189 146l52 -61l-219 -181h-43z" />
    <glyph glyph-name="uni01CF" unicode="&#x1cf;" horiz-adv-x="513" 
d="M309 0h-104v1405h104v-1405zM33 1652l43 65l180 -119l180 119l44 -65l-207 -149h-32z" />
    <glyph glyph-name="uni01D0" unicode="&#x1d0;" horiz-adv-x="430" 
d="M265 0h-99v1027h99v-1027zM-27 1386l52 61l189 -146l189 146l52 -61l-219 -181h-43z" />
    <glyph glyph-name="uni01D1" unicode="&#x1d1;" horiz-adv-x="1646" 
d="M459.5 74q-165.5 96 -261.5 262t-96 366q0 201 96 367t261.5 262t363.5 96q199 0 364 -96t261 -262t96 -367q0 -200 -96 -366t-261.5 -262t-363.5 -96t-363.5 96zM1132.5 161.5q141.5 82.5 224 225t82.5 315.5t-82.5 316t-224 225.5t-309.5 82.5q-167 0 -308.5 -82.5
t-224 -225.5t-82.5 -316t82.5 -315.5t224 -225t308.5 -82.5q168 0 309.5 82.5zM601 1669l43 65l180 -119l180 119l44 -65l-207 -149h-32z" />
    <glyph glyph-name="uni01D2" unicode="&#x1d2;" horiz-adv-x="1237" 
d="M352.5 46q-121.5 71 -192.5 194t-71 271t71 271.5t192.5 195t266.5 71.5q144 0 265.5 -71.5t192.5 -195t71 -271.5q0 -147 -71 -270t-192.5 -194.5t-266.5 -71.5q-144 0 -265.5 71zM835.5 128q98.5 58 156 159t57.5 224q0 122 -57.5 223.5t-156 160t-215.5 58.5
q-118 0 -217 -58.5t-157 -160t-58 -223.5q0 -123 58 -224t157 -159t217 -58q117 0 215.5 58zM373 1387l52 61l189 -146l189 146l52 -61l-219 -181h-43z" />
    <glyph glyph-name="uni01D3" unicode="&#x1d3;" horiz-adv-x="1461" 
d="M424 54q-128 79 -194 220t-66 326v806h103v-801q0 -158 53.5 -278t158 -186.5t253.5 -66.5q148 0 252 66.5t157 186t53 278.5v801h103v-806q0 -185 -66 -326t-193.5 -220t-305.5 -79q-180 0 -308 79zM490 1652l43 65l180 -119l180 119l44 -65l-207 -149h-32z" />
    <glyph glyph-name="uni01D4" unicode="&#x1d4;" horiz-adv-x="1175" 
d="M910 1027h99v-1027h-95v188q-33 -60 -91.5 -108t-134.5 -75.5t-159 -27.5q-122 0 -213 50.5t-141 148t-50 235.5v616h100v-603q0 -169 85.5 -260t236.5 -91q96 0 179.5 47t133.5 130t50 188v589zM354 1386l52 61l189 -146l189 146l52 -61l-219 -181h-43z" />
    <glyph glyph-name="uni01D5" unicode="&#x1d5;" horiz-adv-x="1461" 
d="M424 54q-128 79 -194 220t-66 326v806h103v-801q0 -158 53.5 -278t158 -186.5t253.5 -66.5q148 0 252 66.5t157 186t53 278.5v801h103v-806q0 -185 -66 -326t-193.5 -220t-305.5 -79q-180 0 -308 79zM489.5 1523.5q-21.5 21.5 -21.5 53.5t21.5 52.5t54.5 20.5
q32 0 53.5 -21t21.5 -52q0 -32 -21.5 -53.5t-53.5 -21.5q-33 0 -54.5 21.5zM825 1523.5q-21 21.5 -21 53.5q0 31 21 52t53 21q33 0 54.5 -20.5t21.5 -52.5t-21.5 -53.5t-54.5 -21.5q-32 0 -53 21.5zM918 1701h-413v81h413v-81z" />
    <glyph glyph-name="uni01D6" unicode="&#x1d6;" horiz-adv-x="1175" 
d="M910 1027h99v-1027h-95v188q-33 -60 -91.5 -108t-134.5 -75.5t-159 -27.5q-122 0 -213 50.5t-141 148t-50 235.5v616h100v-603q0 -169 85.5 -260t236.5 -91q96 0 179.5 47t133.5 130t50 188v589zM372.5 1237.5q-21.5 21.5 -21.5 53.5t21.5 52.5t54.5 20.5q32 0 53.5 -21
t21.5 -52q0 -32 -21.5 -53.5t-53.5 -21.5q-33 0 -54.5 21.5zM708 1237.5q-21 21.5 -21 53.5q0 31 21 52t53 21q33 0 54.5 -20.5t21.5 -52.5t-21.5 -53.5t-54.5 -21.5q-32 0 -53 21.5zM800 1434h-413v81h413v-81z" />
    </font>
</defs>
</svg>
